SplineFontDB: 3.0
FontName: FatemiMaqala-BoldSlanted
FullName: FatemiMaqala BoldSlanted
FamilyName: FatemiMaqala
Weight: Bold
Copyright: All the rights are reserved to Dawat Hadiyah
Version: 1.3
ItalicAngle: 0
UnderlinePosition: -1250
UnderlineWidth: 100
Ascent: 1638
Descent: 410
InvalidEm: 0
LayerCount: 4
Layer: 0 1 "Back" 1
Layer: 1 1 "Fore" 0
Layer: 2 0 "Back 2" 1
Layer: 3 1 "Back 3" 1
NeedsXUIDChange: 1
XUID: [1021 574 -2067448607 9942]
UseXUID: 1
UseUniqueID: 1
StyleMap: 0x0001
FSType: 0
OS2Version: 0
OS2_WeightWidthSlopeOnly: 0
OS2_UseTypoMetrics: 1
CreationTime: 1033018408
ModificationTime: 1460271734
PfmFamily: 17
TTFWeight: 700
TTFWidth: 5
LineGap: -100
VLineGap: 0
Panose: 0 0 0 0 0 0 0 0 0 0
OS2TypoAscent: 2200
OS2TypoAOffset: 0
OS2TypoDescent: -1400
OS2TypoDOffset: 0
OS2TypoLinegap: -100
OS2WinAscent: 2200
OS2WinAOffset: 0
OS2WinDescent: 1400
OS2WinDOffset: 0
HheadAscent: 2200
HheadAOffset: 0
HheadDescent: -1400
HheadDOffset: 0
OS2Vendor: 'GLYF'
Lookup: 1 0 0 "dotlessi" { "'ccmp' Glyph Composition/Decomposition in Latin lookup 10 subtable"  } ['ccmp' ('latn' <'TRK ' > ) ]
Lookup: 1 8 0 "'locl' Localized Forms in Arabic lookup 18" { "'locl' Localized Forms in Arabic lookup 18-1"  } ['locl' ('arab' <'URD ' > ) ]
Lookup: 1 8 0 "'locl' Localized Forms in Arabic lookup 25" { "'locl' Localized Forms in Arabic lookup 25-1"  } ['locl' ('arab' <'FAR ' > ) ]
Lookup: 2 0 0 "longlaamkaafs" { "longlaamkaafs-1"  } []
Lookup: 3 0 0 "shortalefs" { "'aalt' Access All Alternates lookup 8 subtable"  } []
Lookup: 1 0 0 "straightrehs" { "straightrehs-1"  } []
Lookup: 1 8 0 "hehgoal" { "hehgoal-1"  } []
Lookup: 1 8 0 "'fina' Terminal Forms in Arabic lookup 4" { "'fina' Terminal Forms in Arabic lookup 4 subtable"  } ['fina' ('DFLT' <'dflt' > 'arab' <'ARA ' 'FAR ' 'URD ' 'dflt' > 'cyrl' <'dflt' > 'latn' <'TRK ' 'dflt' > ) ]

StartChar: .notdef
Encoding: 65536 -1 0
Width: 748
Flags: W
LayerCount: 4
Fore
SplineSet
163 0 m 2,0,-1
 -77 1365 l 2,1,2
 -79 1376 -79 1376 -72.5 1383 c 128,-1,3
 -66 1390 -66 1390 -57 1390 c 2,4,-1
 487 1390 l 2,5,6
 498 1390 498 1390 506.5 1382 c 128,-1,7
 515 1374 515 1374 517 1365 c 2,8,-1
 757 0 l 2,9,10
 759 -11 759 -11 752.5 -18 c 128,-1,11
 746 -25 746 -25 737 -25 c 2,12,-1
 193 -25 l 2,13,14
 182 -25 182 -25 173.5 -17 c 128,-1,15
 165 -9 165 -9 163 0 c 2,0,-1
265 93 m 1,16,-1
 623 93 l 1,17,-1
 415 1272 l 1,18,-1
 57 1272 l 1,19,-1
 265 93 l 1,16,-1
EndSplineSet
EndChar

StartChar: exclam
Encoding: 33 33 4
Width: 482
GlyphClass: 2
Flags: W
LayerCount: 4
Fore
SplineSet
200 90 m 0,0,1
 190 146 190 146 225 185 c 0,2,3
 259 223 259 223 314 223 c 0,4,5
 369 223 369 223 415 184 c 128,-1,6
 461 145 461 145 470 90 c 0,7,8
 480 35 480 35 449 -6 c 0,9,10
 417 -47 417 -47 362 -47 c 0,11,12
 307 -47 307 -47 258.5 -6 c 128,-1,13
 210 35 210 35 200 90 c 0,0,1
130 1309 m 0,14,15
 187 1309 187 1309 225 1262 c 0,16,17
 259 1220 259 1220 268 1168 c 0,18,19
 273 1142 273 1142 281 1052 c 0,20,21
 289 963 289 963 307.5 751 c 128,-1,22
 326 539 326 539 344 342 c 0,23,24
 344 337 344 337 343 333 c 0,25,26
 331 297 331 297 298 293 c 0,27,28
 292 292 292 292 286 295 c 0,29,30
 256 307 256 307 241 329 c 0,31,32
 238 333 238 333 237 338 c 0,33,34
 55 1029 55 1029 30 1168 c 0,35,36
 21 1222 21 1222 46 1264 c 0,37,38
 73 1309 73 1309 130 1309 c 0,14,15
EndSplineSet
Substitution2: "'smcp' Lowercase to Small Capitals lookup 12 subtable" exclam.sc
EndChar

StartChar: quotedbl
Encoding: 34 34 5
Width: 560
GlyphClass: 2
Flags: W
LayerCount: 4
Fore
SplineSet
378 1423 m 0,0,1
 421 1423 421 1423 455 1388 c 0,2,3
 462 1381 462 1381 464 1372 c 0,4,5
 472 1327 472 1327 486 1193 c 0,6,7
 500 1059 500 1059 504 981 c 0,8,9
 504 977 504 977 503 973 c 0,10,11
 493 942 493 942 461 924 c 0,12,13
 456 921 456 921 450 921 c 0,14,15
 423 921 423 921 405 947 c 0,16,17
 404 949 404 949 403 951 c 0,18,19
 289 1194 289 1194 278 1258 c 0,20,21
 268 1312 268 1312 293 1365 c 0,22,23
 320 1423 320 1423 378 1423 c 0,0,1
138 1423 m 0,24,25
 181 1423 181 1423 215 1388 c 0,26,27
 222 1381 222 1381 224 1372 c 0,28,29
 232 1327 232 1327 246 1193 c 0,30,31
 260 1059 260 1059 264 981 c 0,32,33
 264 977 264 977 263 973 c 0,34,35
 253 942 253 942 221 924 c 0,36,37
 216 921 216 921 210 921 c 0,38,39
 183 921 183 921 165 947 c 0,40,41
 164 949 164 949 163 951 c 0,42,43
 49 1194 49 1194 38 1258 c 0,44,45
 28 1312 28 1312 53 1365 c 0,46,47
 80 1423 80 1423 138 1423 c 0,24,25
EndSplineSet
EndChar

StartChar: numbersign
Encoding: 35 35 6
Width: 960
GlyphClass: 2
Flags: W
LayerCount: 4
Fore
SplineSet
701 479 m 1,0,-1
 805 479 l 2,1,2
 825 479 825 479 837 464.5 c 128,-1,3
 849 450 849 450 853 434 c 0,4,5
 860 407 860 407 854 377 c 0,6,7
 847 344 847 344 828 334 c 0,8,9
 823 331 823 331 818 331 c 2,10,-1
 703 331 l 1,11,-1
 706 150 l 2,12,13
 706 149 706 149 706 148 c 0,14,15
 705 131 705 131 687 116 c 0,16,17
 670 103 670 103 642 103 c 0,18,19
 629 103 629 103 618 107 c 0,20,21
 602 112 602 112 595 123 c 2,22,-1
 594 125 l 2,23,24
 589 132 589 132 589 140 c 2,25,-1
 585 331 l 1,26,-1
 380 331 l 1,27,-1
 382 150 l 2,28,29
 382 149 382 149 382 148 c 0,30,31
 381 131 381 131 364 117 c 0,32,33
 347 103 347 103 320 103 c 0,34,35
 307 103 307 103 296 107 c 0,36,37
 280 112 280 112 273 123 c 2,38,-1
 272 125 l 2,39,40
 267 132 267 132 267 140 c 2,41,-1
 263 331 l 1,42,-1
 160 331 l 2,43,44
 157 331 157 331 153 332 c 0,45,46
 123 340 123 340 115 379 c 0,47,48
 110 405 110 405 116 434 c 0,49,50
 124 470 124 470 146 478 c 0,51,52
 150 479 150 479 153 479 c 2,53,-1
 261 479 l 1,54,-1
 257 713 l 1,55,-1
 148 713 l 2,56,57
 113 713 113 713 103 760 c 0,58,59
 97 788 97 788 103 817 c 0,60,61
 110 852 110 852 132 860 c 0,62,63
 136 861 136 861 140 861 c 2,64,-1
 255 861 l 1,65,-1
 252 1040 l 2,66,67
 252 1042 252 1042 252 1043 c 0,68,69
 253 1055 253 1055 255 1059 c 0,70,71
 257 1064 257 1064 262 1072 c 0,72,73
 271 1084 271 1084 287 1086 c 0,74,75
 296 1087 296 1087 312 1087 c 0,76,77
 337 1087 337 1087 354 1077 c 0,78,79
 369 1068 369 1068 369 1052 c 2,80,-1
 372 861 l 1,81,-1
 577 861 l 1,82,-1
 574 1040 l 2,83,84
 574 1042 574 1042 574 1043 c 0,85,86
 575 1055 575 1055 577 1059 c 0,87,88
 579 1064 579 1064 584 1072 c 0,89,90
 593 1084 593 1084 609 1086 c 0,91,92
 618 1087 618 1087 634 1087 c 0,93,94
 659 1087 659 1087 676 1077 c 0,95,96
 691 1068 691 1068 691 1052 c 2,97,-1
 694 861 l 1,98,-1
 792 861 l 2,99,100
 811 861 811 861 823 847 c 128,-1,101
 835 833 835 833 840 816 c 0,102,103
 847 789 847 789 842 760 c 0,104,105
 836 726 836 726 817 716 c 0,106,107
 812 713 812 713 806 713 c 2,108,-1
 697 713 l 1,109,-1
 701 479 l 1,0,-1
583 479 m 1,110,-1
 579 713 l 1,111,-1
 374 713 l 1,112,-1
 378 479 l 1,113,-1
 583 479 l 1,110,-1
EndSplineSet
EndChar

StartChar: dollar
Encoding: 36 36 7
Width: 996
GlyphClass: 2
Flags: W
LayerCount: 4
Fore
SplineSet
450 1391 m 0,0,1
 452 1391 452 1391 461.5 1391 c 128,-1,2
 471 1391 471 1391 475.5 1391 c 128,-1,3
 480 1391 480 1391 489 1390.5 c 128,-1,4
 498 1390 498 1390 503.5 1389 c 128,-1,5
 509 1388 509 1388 517 1386.5 c 128,-1,6
 525 1385 525 1385 529.5 1382 c 128,-1,7
 534 1379 534 1379 539.5 1375 c 128,-1,8
 545 1371 545 1371 548 1365 c 128,-1,9
 551 1359 551 1359 552 1352 c 0,10,11
 552 1350 552 1350 552 1348 c 2,12,-1
 553 1284 l 1,13,14
 576 1279 576 1279 609 1270 c 0,15,16
 663 1256 663 1256 700 1248 c 0,17,18
 716 1245 716 1245 723 1230 c 0,19,20
 738 1194 738 1194 751 1146 c 0,21,22
 765 1100 765 1100 772 1073 c 0,23,24
 778 1046 778 1046 787 1000.5 c 128,-1,25
 796 955 796 955 796 952 c 0,26,27
 798 938 798 938 788 931 c 0,28,29
 771 919 771 919 741 919 c 0,30,31
 713 919 713 919 692 936 c 0,32,33
 685 942 685 942 683 951 c 0,34,35
 668 1001 668 1001 622 1060 c 0,36,37
 592 1100 592 1100 555 1128 c 1,38,-1
 559 723 l 1,39,40
 578 712 578 712 614 692 c 0,41,42
 653 671 653 671 676 658 c 0,43,44
 700 645 700 645 739 621 c 0,45,46
 778 597 778 597 803 577 c 0,47,48
 828 557 828 557 860 528 c 0,49,50
 892 498 892 498 912 470 c 0,51,52
 932 442 932 442 949 407 c 0,53,54
 966 371 966 371 974 332 c 0,55,56
 993 222 993 222 946 134 c 0,57,58
 923 90 923 90 889 56.5 c 128,-1,59
 855 23 855 23 811 0 c 0,60,61
 723 -45 723 -45 613 -45 c 0,62,63
 591 -45 591 -45 568 -44 c 1,64,-1
 569 -108 l 2,65,66
 569 -117 569 -117 563 -123 c 128,-1,67
 557 -129 557 -129 548 -129 c 0,68,69
 525 -129 525 -129 497 -124 c 0,70,71
 496 -124 496 -124 495 -124 c 0,72,73
 451 -116 451 -116 445 -86 c 0,74,75
 445 -84 445 -84 445 -82 c 2,76,-1
 445 -28 l 1,77,78
 394 -18 394 -18 252 12 c 0,79,80
 235 15 235 15 229 31 c 0,81,82
 199 110 199 110 167 209 c 0,83,84
 134 309 134 309 130 330 c 0,85,86
 128 340 128 340 134 348 c 0,87,88
 143 358 143 358 164 365 c 0,89,90
 183 371 183 371 198 371 c 0,91,92
 230 371 230 371 246 347 c 0,93,94
 248 344 248 344 249 341 c 0,95,96
 259 315 259 315 273 289.5 c 128,-1,97
 287 264 287 264 315 221 c 0,98,99
 341 182 341 182 382 148 c 0,100,101
 410 125 410 125 443 109 c 1,102,-1
 438 555 l 1,103,104
 398 577 398 577 372 591 c 0,105,106
 340 609 340 609 292 640 c 0,107,108
 243 671 243 671 210 700 c 0,109,110
 178 728 178 728 144 764 c 0,111,112
 109 803 109 803 88 847 c 0,113,114
 67 891 67 891 59 940 c 0,115,116
 40 1046 40 1046 83 1131 c 0,117,118
 126 1216 126 1216 210 1260 c 0,119,120
 293 1303 293 1303 396 1303 c 0,121,122
 410 1303 410 1303 430 1302 c 1,123,-1
 429 1370 l 2,124,125
 429 1379 429 1379 435 1385 c 128,-1,126
 441 1391 441 1391 450 1391 c 0,0,1
563 491 m 1,127,-1
 567 74 l 1,128,129
 581 73 581 73 596 73 c 0,130,131
 681 73 681 73 732 128 c 0,132,133
 782 183 782 183 765 280 c 0,134,135
 761 301 761 301 754 319 c 0,136,137
 747 339 747 339 740 354 c 0,138,139
 735 366 735 366 722 380 c 0,140,141
 705 398 705 398 697 408 c 0,142,143
 692 414 692 414 673 428 c 0,144,145
 650 443 650 443 641 449 c 0,146,147
 633 454 633 454 606 469 c 0,148,149
 578 484 578 484 570 488 c 2,150,-1
 563 491 l 1,127,-1
435 792 m 1,151,-1
 431 1185 l 1,152,153
 418 1187 418 1187 404 1187 c 0,154,155
 349 1187 349 1187 314 1170 c 0,156,157
 280 1153 280 1153 267 1126 c 0,158,159
 252 1096 252 1096 249 1066 c 0,160,161
 246 1035 246 1035 252 1000 c 0,162,163
 259 961 259 961 277.5 929 c 128,-1,164
 296 897 296 897 327 869 c 0,165,166
 361 839 361 839 391 820 c 0,167,168
 409 807 409 807 435 792 c 1,151,-1
EndSplineSet
EndChar

StartChar: percent
Encoding: 37 37 8
Width: 1334
GlyphClass: 2
Flags: W
LayerCount: 4
Fore
SplineSet
269 1217 m 0,0,1
 223 1217 223 1217 198 1185 c 0,2,3
 170 1151 170 1151 165 1103 c 0,4,5
 159 1052 159 1052 170 992 c 0,6,7
 188 892 188 892 255 805 c 0,8,9
 317 725 317 725 376 725 c 0,10,11
 409 725 409 725 430 743 c 0,12,13
 452 761 452 761 460 793 c 0,14,15
 469 828 469 828 469 867 c 0,16,17
 469 907 469 907 461 952 c 0,18,19
 449 1017 449 1017 419 1079 c 0,20,21
 390 1139 390 1139 347 1180 c 0,22,23
 308 1217 308 1217 269 1217 c 0,0,1
260 1315 m 0,24,25
 399 1315 399 1315 508 1212 c 0,26,27
 615 1110 615 1110 640 968 c 0,28,29
 655 881 655 881 632 804 c 0,30,31
 608 726 608 726 542 676 c 0,32,33
 476 625 476 625 381 625 c 0,34,35
 245 625 245 625 133 726 c 0,36,37
 21 826 21 826 -4 968 c 0,38,39
 -30 1114 -30 1114 44 1214 c 0,40,41
 118 1315 118 1315 260 1315 c 0,24,25
964 553 m 0,42,43
 918 553 918 553 892 521 c 0,44,45
 864 487 864 487 858 438 c 0,46,47
 852 387 852 387 863 328 c 0,48,49
 881 228 881 228 948 142 c 0,50,51
 981 100 981 100 1011.5 80.5 c 128,-1,52
 1042 61 1042 61 1071 61 c 0,53,54
 1104 61 1104 61 1124 79 c 0,55,56
 1146 97 1146 97 1154 129 c 0,57,58
 1163 164 1163 164 1162 203 c 0,59,60
 1162 243 1162 243 1154 288 c 0,61,62
 1142 353 1142 353 1113 415 c 0,63,64
 1084 475 1084 475 1041 517 c 0,65,66
 1003 553 1003 553 964 553 c 0,42,43
955 651 m 0,67,68
 1094 651 1094 651 1202 548 c 0,69,70
 1308 447 1308 447 1333 304 c 0,71,72
 1357 168 1357 168 1288 65 c 0,73,74
 1218 -39 1218 -39 1074 -39 c 0,75,76
 938 -39 938 -39 826 62 c 0,77,78
 714 162 714 162 689 304 c 0,79,80
 663 450 663 450 737 550 c 0,81,82
 812 651 812 651 955 651 c 0,67,68
1110 1233 m 2,83,-1
 364 -15 l 2,84,85
 356 -29 356 -29 330 -39 c 0,86,87
 306 -49 306 -49 284 -49 c 0,88,89
 244 -49 244 -49 220 -13 c 0,90,91
 211 1 211 1 217 13 c 2,92,-1
 961 1264 l 2,93,94
 983 1297 983 1297 1015 1297 c 0,95,96
 1038 1297 1038 1297 1051 1295 c 0,97,98
 1066 1293 1066 1293 1072 1290 c 0,99,100
 1083 1286 1083 1286 1094 1274 c 0,101,102
 1099 1269 1099 1269 1102 1266 c 0,103,104
 1110 1259 1110 1259 1112 1249 c 128,-1,105
 1114 1239 1114 1239 1110 1233 c 2,83,-1
EndSplineSet
EndChar

StartChar: ampersand
Encoding: 38 38 9
Width: 1366
GlyphClass: 2
Flags: W
LayerCount: 4
Fore
SplineSet
858 191 m 1,0,1
 794 249 794 249 707 344 c 0,2,3
 605 454 605 454 537 534 c 2,4,-1
 488 593 l 1,5,6
 463 574 463 574 450 563 c 0,7,8
 433 549 433 549 406 520 c 0,9,10
 381 493 381 493 372 471 c 0,11,12
 362 448 362 448 356 414 c 0,13,14
 351 381 351 381 357 344 c 0,15,16
 378 224 378 224 462 165 c 0,17,18
 548 105 548 105 659 105 c 0,19,20
 716 105 716 105 776 133 c 0,21,22
 825 156 825 156 858 191 c 1,0,1
527 1215 m 0,23,24
 471 1215 471 1215 438 1179 c 0,25,26
 406 1143 406 1143 417 1086 c 0,27,28
 437 972 437 972 555 805 c 1,29,30
 601 836 601 836 627 862 c 0,31,32
 657 892 657 892 671 942 c 128,-1,33
 685 992 685 992 673 1060 c 0,34,35
 662 1124 662 1124 619 1171 c 0,36,37
 578 1215 578 1215 527 1215 c 0,23,24
495 1337 m 0,38,39
 637 1338 637 1338 734 1274 c 0,40,41
 834 1208 834 1208 854 1088 c 0,42,43
 866 1018 866 1018 852 957 c 0,44,45
 837 897 837 897 796 846 c 0,46,47
 757 797 757 797 716 762 c 0,48,49
 682 732 682 732 634 698 c 1,50,51
 770 525 770 525 954 349 c 1,52,53
 981 409 981 409 997 464 c 0,54,55
 1015 527 1015 527 1013 542 c 0,56,57
 1013 543 1013 543 1012 543 c 0,58,59
 1011 544 1011 544 1010 544 c 0,60,61
 995 550 995 550 972 552 c 0,62,63
 949 553 949 553 945 553 c 0,64,65
 931 554 931 554 922 566 c 0,66,67
 911 581 911 581 907 603 c 0,68,69
 903 628 903 628 914 642 c 0,70,71
 920 649 920 649 931 649 c 2,72,-1
 1089 649 l 2,73,74
 1119 649 1119 649 1151 650 c 128,-1,75
 1183 651 1183 651 1227 655 c 0,76,77
 1271 658 1271 658 1306 659 c 0,78,79
 1315 659 1315 659 1323 654 c 128,-1,80
 1331 649 1331 649 1336 641.5 c 128,-1,81
 1341 634 1341 634 1342 629.5 c 128,-1,82
 1343 625 1343 625 1344 615.5 c 128,-1,83
 1345 606 1345 606 1345 604 c 0,84,-1
 1346 600.5 l 0,85,86
 1347 597 1347 597 1348 592.5 c 128,-1,87
 1349 588 1349 588 1349.5 582.5 c 128,-1,88
 1350 577 1350 577 1349 572 c 128,-1,89
 1348 567 1348 567 1345.5 562.5 c 128,-1,90
 1343 558 1343 558 1337.5 555.5 c 128,-1,91
 1332 553 1332 553 1324 553 c 0,92,93
 1301 553 1301 553 1258 542 c 0,94,95
 1221 532 1221 532 1207 525 c 1,96,97
 1202 515 1202 515 1190 486 c 0,98,99
 1171 442 1171 442 1134 367 c 0,100,101
 1102 303 1102 303 1065 247 c 1,102,103
 1105 212 1105 212 1122 197 c 0,104,105
 1143 179 1143 179 1176 153 c 0,106,107
 1207 129 1207 129 1224 122 c 0,108,109
 1239 115 1239 115 1251 115 c 0,110,111
 1269 115 1269 115 1289 141 c 0,112,113
 1313 171 1313 171 1318 191 c 0,114,115
 1322 207 1322 207 1339 207 c 0,116,117
 1364 207 1364 207 1389 189 c 0,118,119
 1417 169 1417 169 1420 146 c 0,120,121
 1421 141 1421 141 1420 136 c 0,122,123
 1417 123 1417 123 1413 111 c 0,124,125
 1408 98 1408 98 1392 72 c 0,126,127
 1376 45 1376 45 1355 26 c 0,128,129
 1333 6 1333 6 1294 -9 c 0,130,131
 1255 -25 1255 -25 1208 -25 c 0,132,133
 1170 -25 1170 -25 1126 -8 c 0,134,135
 1084 8 1084 8 1050 31 c 0,136,137
 1018 53 1018 53 990 75 c 0,138,139
 966 94 966 94 951 108 c 1,140,141
 889 50 889 50 808 13 c 0,142,143
 714 -31 714 -31 615 -31 c 0,144,145
 429 -31 429 -31 300 61 c 0,146,147
 169 155 169 155 140 316 c 0,148,149
 127 390 127 390 145 454 c 0,150,151
 162 517 162 517 209 567 c 0,152,153
 253 615 253 615 300 650 c 0,154,155
 339 679 339 679 393 710 c 1,156,157
 356 759 356 759 334 791 c 0,158,159
 306 832 306 832 274 900 c 0,160,161
 241 970 241 970 229 1038 c 0,162,163
 207 1164 207 1164 284 1251 c 0,164,165
 360 1337 360 1337 495 1337 c 0,38,39
EndSplineSet
Substitution2: "'smcp' Lowercase to Small Capitals lookup 12 subtable" ampersand.sc
EndChar

StartChar: quotesingle
Encoding: 39 39 10
Width: 320
GlyphClass: 2
Flags: W
LayerCount: 4
Fore
SplineSet
138 1423 m 0,0,1
 181 1423 181 1423 215 1388 c 0,2,3
 222 1381 222 1381 224 1372 c 0,4,5
 232 1327 232 1327 246 1193 c 0,6,7
 260 1059 260 1059 264 981 c 0,8,9
 264 977 264 977 263 973 c 0,10,11
 253 942 253 942 221 924 c 0,12,13
 216 921 216 921 210 921 c 0,14,15
 183 921 183 921 165 947 c 0,16,17
 164 949 164 949 163 951 c 0,18,19
 49 1194 49 1194 38 1258 c 0,20,21
 28 1312 28 1312 53 1365 c 0,22,23
 80 1423 80 1423 138 1423 c 0,0,1
EndSplineSet
Substitution2: "'smcp' Lowercase to Small Capitals lookup 12 subtable" quotesingle.sc
EndChar

StartChar: parenleft
Encoding: 40 40 11
Width: 524
GlyphClass: 2
Flags: W
LayerCount: 4
Fore
SplineSet
244.5 570 m 128,-1,1
 287 328 287 328 404 100 c 0,2,3
 520 -126 520 -126 671 -241 c 0,4,5
 688 -254 688 -254 683 -271 c 0,6,7
 682 -275 682 -275 676 -284 c 0,8,9
 671 -293 671 -293 662 -304 c 0,10,11
 652 -316 652 -316 645 -321 c 0,12,13
 632 -331 632 -331 615 -320 c 0,14,15
 400 -171 400 -171 249.5 56.5 c 128,-1,16
 99 284 99 284 49 570 c 0,17,18
 -2 857 -2 857 68.5 1083 c 128,-1,19
 139 1309 139 1309 302 1458 c 0,20,21
 314 1469 314 1469 331 1459 c 0,22,23
 340 1454 340 1454 354 1442 c 0,24,25
 367 1431 367 1431 373 1424 c 0,26,27
 381 1416 381 1416 386 1409 c 0,28,29
 398 1392 398 1392 386 1379 c 0,30,31
 276 1262 276 1262 239 1038 c 0,32,0
 202 812 202 812 244.5 570 c 128,-1,1
EndSplineSet
Substitution2: "'smcp' Lowercase to Small Capitals lookup 12 subtable" parenleft.sc
EndChar

StartChar: parenright
Encoding: 41 41 12
Width: 524
GlyphClass: 2
Flags: W
LayerCount: 4
Fore
SplineSet
475 570 m 0,0,1
 525 284 525 284 454.5 56.5 c 128,-1,2
 384 -171 384 -171 222 -320 c 0,3,4
 210 -331 210 -331 193 -321 c 0,5,6
 184 -316 184 -316 170 -304 c 0,7,8
 157 -293 157 -293 150 -285 c 2,9,-1
 141 -275 l 2,10,11
 134 -267 134 -267 133 -257.5 c 128,-1,12
 132 -248 132 -248 138 -241 c 0,13,14
 249 -125 249 -125 285 100 c 0,15,16
 321 328 321 328 278.5 570 c 128,-1,17
 236 812 236 812 120 1038 c 0,18,19
 4 1262 4 1262 -148 1379 c 0,20,21
 -165 1392 -165 1392 -159 1409 c 0,22,23
 -158 1413 -158 1413 -152 1422 c 0,24,25
 -147 1430 -147 1430 -138 1442 c 0,26,27
 -128 1454 -128 1454 -121 1459 c 0,28,29
 -108 1469 -108 1469 -91 1458 c 0,30,31
 125 1309 125 1309 274.5 1083 c 128,-1,32
 424 857 424 857 475 570 c 0,0,1
EndSplineSet
Substitution2: "'smcp' Lowercase to Small Capitals lookup 12 subtable" parenright.sc
EndChar

StartChar: plus
Encoding: 43 43 13
Width: 1084
GlyphClass: 2
Flags: W
LayerCount: 4
Fore
SplineSet
390 971 m 0,0,1
 449 995 449 995 481 995 c 0,2,3
 495 995 495 995 508 990 c 0,4,5
 522 984 522 984 529 975 c 2,6,-1
 532 972 l 2,7,8
 537 966 537 966 538 958 c 2,9,-1
 606 573 l 1,10,-1
 989 573 l 2,11,12
 1008 573 1008 573 1024 558 c 0,13,14
 1038 545 1038 545 1041 524 c 0,15,16
 1046 495 1046 495 1040 466 c 0,17,18
 1034 435 1034 435 1020 418 c 0,19,20
 1014 411 1014 411 1004 411 c 2,21,-1
 635 411 l 1,22,-1
 702 32 l 2,23,24
 704 20 704 20 695 12 c 0,25,26
 664 -15 664 -15 599 -15 c 0,27,28
 581 -15 581 -15 564 -4 c 0,29,30
 544 10 544 10 540 28 c 2,31,-1
 473 411 l 1,32,-1
 88 411 l 2,33,34
 68 411 68 411 57 425.5 c 128,-1,35
 46 440 46 440 43 456 c 128,-1,36
 40 472 40 472 43 509 c 0,37,38
 46 552 46 552 63 568 c 0,39,40
 69 573 69 573 77 573 c 2,41,-1
 444 573 l 1,42,-1
 378 948 l 2,43,44
 375 965 375 965 390 971 c 0,0,1
EndSplineSet
EndChar

StartChar: comma
Encoding: 44 44 14
Width: 402
GlyphClass: 2
Flags: W
LayerCount: 4
Fore
SplineSet
161 271 m 0,0,1
 196 271 196 271 229 254 c 0,2,3
 235 251 235 251 240 245 c 0,4,5
 291 177 291 177 306 92 c 0,6,7
 322 1 322 1 262 -127 c 0,8,9
 202 -254 202 -254 126 -300 c 0,10,11
 121 -303 121 -303 115 -303 c 0,12,13
 91 -303 91 -303 69 -275 c 0,14,15
 51 -253 51 -253 48 -236 c 0,16,17
 46 -223 46 -223 54 -216 c 0,18,19
 73 -200 73 -200 85 -187 c 0,20,21
 97 -175 97 -175 115 -147 c 0,22,23
 132 -122 132 -122 137 -89 c 0,24,25
 142 -55 142 -55 135 -14 c 0,26,27
 131 10 131 10 96 48 c 0,28,29
 49 100 49 100 40 148 c 0,30,31
 32 194 32 194 67 233 c 0,32,33
 100 271 100 271 161 271 c 0,0,1
EndSplineSet
Substitution2: "'smcp' Lowercase to Small Capitals lookup 12 subtable" comma.sc
Substitution2: "'c2sc' Capitals to Small Capitals in Latin lookup 11 subtable" comma.sc
EndChar

StartChar: hyphen
Encoding: 45 45 15
Width: 754
GlyphClass: 2
Flags: W
LayerCount: 4
Fore
SplineSet
127 547 m 0,0,1
 539 569 539 569 606 571 c 0,2,3
 624 571 624 571 637 557.5 c 128,-1,4
 650 544 650 544 653 528 c 0,5,6
 663 469 663 469 646 409 c 0,7,8
 642 396 642 396 627 395 c 0,9,10
 586 392 586 392 148 373 c 0,11,12
 128 373 128 373 114 388 c 0,13,14
 103 400 103 400 100 420 c 0,15,16
 91 472 91 472 109 533 c 0,17,18
 112 546 112 546 127 547 c 0,0,1
EndSplineSet
EndChar

StartChar: period
Encoding: 46 46 16
Width: 414
GlyphClass: 2
Flags: W
LayerCount: 4
Fore
SplineSet
71 90 m 0,0,1
 61 146 61 146 95 185 c 0,2,3
 129 223 129 223 184 223 c 0,4,5
 239 223 239 223 285 184 c 128,-1,6
 331 145 331 145 341 90 c 0,7,8
 351 35 351 35 319 -6 c 0,9,10
 287 -47 287 -47 232 -47 c 0,11,12
 177 -47 177 -47 129 -6 c 128,-1,13
 81 35 81 35 71 90 c 0,0,1
EndSplineSet
Substitution2: "'smcp' Lowercase to Small Capitals lookup 12 subtable" period.sc
Substitution2: "'c2sc' Capitals to Small Capitals in Latin lookup 11 subtable" period.sc
EndChar

StartChar: slash
Encoding: 47 47 17
Width: 826
GlyphClass: 2
Flags: W
LayerCount: 4
Fore
SplineSet
593 1547 m 0,0,1
 610 1547 610 1547 625.5 1537.5 c 128,-1,2
 641 1528 641 1528 649 1512 c 0,3,4
 653 1503 653 1503 652 1495 c 2,5,-1
 331 -33 l 2,6,7
 326 -55 326 -55 303 -75 c 0,8,9
 279 -95 279 -95 241 -95 c 0,10,11
 223 -95 223 -95 209 -90 c 0,12,13
 194 -85 194 -85 186 -78 c 0,14,15
 183 -75 183 -75 180 -71 c 2,16,-1
 177 -67 l 2,17,18
 170 -57 170 -57 173 -47 c 2,19,-1
 497 1498 l 2,20,21
 498 1505 498 1505 500.5 1509.5 c 128,-1,22
 503 1514 503 1514 504 1515.5 c 128,-1,23
 505 1517 505 1517 509 1520 c 128,-1,24
 513 1523 513 1523 514 1523 c 0,25,26
 525 1531 525 1531 546 1539 c 0,27,28
 567 1547 567 1547 593 1547 c 0,0,1
EndSplineSet
Substitution2: "'smcp' Lowercase to Small Capitals lookup 12 subtable" slash.sc
EndChar

StartChar: zero
Encoding: 48 48 18
Width: 1090
GlyphClass: 2
Flags: W
LayerCount: 4
Fore
SplineSet
460 1183 m 0,0,1
 390 1183 390 1183 347 1115 c 0,2,3
 301 1042 301 1042 291 920 c 0,4,5
 281 795 281 795 309 640 c 0,6,7
 336 487 336 487 389 359 c 0,8,9
 441 234 441 234 510 161 c 0,10,11
 573 93 573 93 632 93 c 0,12,13
 706 93 706 93 748 164 c 0,14,15
 793 241 793 241 799 365 c 0,16,17
 805 492 805 492 777 650 c 0,18,19
 750 803 750 803 698 927 c 0,20,21
 647 1049 647 1049 580 1119 c 0,22,23
 520 1183 520 1183 460 1183 c 0,0,1
426 1307 m 0,24,25
 570 1307 570 1307 695 1212 c 0,26,27
 817 1119 817 1119 896 968 c 0,28,29
 973 820 973 820 1005 638 c 0,30,31
 1037 458 1037 458 1011 309 c 0,32,33
 985 158 985 158 896 64 c 0,34,35
 805 -31 805 -31 662 -31 c 0,36,37
 521 -31 521 -31 396 64 c 0,38,39
 274 157 274 157 194 309 c 0,40,41
 115 458 115 458 83 638 c 128,-1,42
 51 818 51 818 77 967 c 0,43,44
 103 1118 103 1118 192 1212 c 0,45,46
 283 1307 283 1307 426 1307 c 0,24,25
EndSplineSet
Substitution2: "'ordn' Ordinals lookup 17 subtable" zero.ordn
Substitution2: "'onum' Oldstyle Figures lookup 16 subtable" zero.onum
Substitution2: "'zero' Slashed Zero lookup 15 subtable" zero.slash
Substitution2: "'pnum' Proportional Numbers lookup 14 subtable" zero.prop
EndChar

StartChar: one
Encoding: 49 49 19
Width: 1090
GlyphClass: 2
Flags: W
LayerCount: 4
Fore
SplineSet
192 1142 m 0,0,1
 261 1176 261 1176 341 1218 c 0,2,3
 422 1260 422 1260 468 1283 c 0,4,5
 477 1288 477 1288 487 1294 c 128,-1,6
 497 1300 497 1300 502 1302.5 c 128,-1,7
 507 1305 507 1305 513 1307 c 128,-1,8
 519 1309 519 1309 526 1309 c 2,9,-1
 530 1309 l 2,10,11
 565 1309 565 1309 584 1257 c 0,12,13
 586 1252 586 1252 585 1247 c 0,14,15
 582 1178 582 1178 603 1058 c 2,16,-1
 749 232 l 2,17,18
 767 128 767 128 781 95 c 1,19,20
 792 90 792 90 816 86 c 0,21,22
 863 77 863 77 889 77 c 0,23,24
 901 77 901 77 911 67 c 0,25,26
 924 53 924 53 930 24 c 0,27,28
 936 -7 936 -7 925 -22 c 0,29,30
 919 -31 919 -31 907 -31 c 0,31,32
 702 -21 702 -21 684 -21 c 0,33,34
 673 -21 673 -21 473 -31 c 0,35,36
 461 -32 461 -32 452 -22 c 0,37,38
 436 -7 436 -7 431 24 c 0,39,40
 427 53 427 53 435 67 c 0,41,42
 441 77 441 77 453 77 c 0,43,44
 480 77 480 77 523 86 c 0,45,46
 546 90 546 90 555 95 c 1,47,48
 558 132 558 132 541 232 c 2,49,-1
 398 1040 l 2,50,51
 392 1075 392 1075 384 1086 c 0,52,53
 380 1091 380 1091 372 1091 c 0,54,55
 344 1091 344 1091 248 1053 c 0,56,57
 236 1048 236 1048 223 1056 c 0,58,59
 201 1071 201 1071 191 1091 c 0,60,61
 186 1100 186 1100 184 1110 c 0,62,63
 183 1116 183 1116 185 1128 c 128,-1,64
 187 1140 187 1140 192 1142 c 0,0,1
EndSplineSet
Substitution2: "'ordn' Ordinals lookup 17 subtable" one.ordn
Substitution2: "'onum' Oldstyle Figures lookup 16 subtable" one.onum
Substitution2: "'pnum' Proportional Numbers lookup 14 subtable" one.prop
EndChar

StartChar: two
Encoding: 50 50 20
Width: 1090
GlyphClass: 2
Flags: W
LayerCount: 4
Fore
SplineSet
1041 290 m 0,0,1
 1016 184 1016 184 986 -8 c 0,2,3
 983 -25 983 -25 966 -25 c 2,4,-1
 274 -25 l 2,5,6
 268 -25 268 -25 262 -22 c 0,7,8
 250 -16 250 -16 236 -2 c 0,9,10
 221 14 221 14 219 28 c 0,11,12
 217 38 217 38 223 45 c 0,13,14
 477 395 477 395 594 626 c 0,15,16
 635 707 635 707 642 770 c 0,17,18
 649 834 649 834 635 912 c 0,19,20
 618 1006 618 1006 552 1068 c 0,21,22
 487 1129 487 1129 402 1129 c 0,23,24
 351 1129 351 1129 307 1110 c 0,25,26
 263 1091 263 1091 235 1063 c 0,27,28
 206 1033 206 1033 189 1010 c 0,29,30
 173 987 173 987 166 969 c 0,31,32
 161 957 161 957 146 957 c 0,33,34
 125 957 125 957 102 976 c 0,35,36
 77 996 77 996 73 1014 c 0,37,38
 72 1017 72 1017 73 1020 c 0,39,40
 75 1047 75 1047 99 1092 c 0,41,42
 122 1134 122 1134 160 1184 c 0,43,44
 200 1235 200 1235 267 1272 c 0,45,46
 336 1309 336 1309 414 1309 c 0,47,48
 565 1309 565 1309 694.5 1199.5 c 128,-1,49
 824 1090 824 1090 849 950 c 0,50,51
 879 779 879 779 785 632 c 0,52,53
 672 456 672 456 467 171 c 1,54,-1
 807 171 l 2,55,56
 855 171 855 171 881 201 c 0,57,58
 910 234 910 234 928 310 c 0,59,60
 935 337 935 337 970 337 c 0,61,62
 1002 337 1002 337 1028 320 c 0,63,64
 1045 308 1045 308 1041 290 c 0,0,1
EndSplineSet
Substitution2: "'ordn' Ordinals lookup 17 subtable" two.ordn
Substitution2: "'onum' Oldstyle Figures lookup 16 subtable" two.onum
Substitution2: "'pnum' Proportional Numbers lookup 14 subtable" two.prop
EndChar

StartChar: three
Encoding: 51 51 21
Width: 1090
GlyphClass: 2
Flags: W
LayerCount: 4
Fore
SplineSet
446 1309 m 0,0,1
 491 1309 491 1309 543 1290 c 0,2,3
 594 1271 594 1271 642 1238 c 0,4,5
 692 1204 692 1204 732 1148 c 0,6,7
 771 1092 771 1092 782 1028 c 0,8,9
 791 977 791 977 779 928 c 0,10,11
 767 880 767 880 741 842 c 0,12,13
 716 807 716 807 690 781 c 0,14,15
 684 775 684 775 677 769 c 1,16,17
 700 761 700 761 723 750 c 0,18,19
 777 724 777 724 831 684 c 0,20,21
 885 642 885 642 926 576 c 0,22,23
 967 511 967 511 980 436 c 0,24,25
 999 331 999 331 968 240 c 0,26,27
 937 150 937 150 872 90 c 0,28,29
 807 31 807 31 718 -2 c 128,-1,30
 629 -35 629 -35 530 -35 c 0,31,32
 412 -35 412 -35 307 14 c 0,33,34
 305 15 305 15 304 15 c 0,35,36
 285 26 285 26 263 55 c 0,37,38
 240 84 240 84 236 112 c 0,39,40
 227 164 227 164 252 198 c 0,41,42
 278 233 278 233 323 233 c 0,43,44
 356 233 356 233 384 216 c 0,45,46
 409 201 409 201 438 170 c 0,47,48
 463 144 463 144 470 138 c 0,49,50
 520 95 520 95 608 95 c 0,51,52
 645 95 645 95 677 110 c 0,53,54
 710 125 710 125 737 156 c 0,55,56
 763 186 763 186 772 244 c 0,57,58
 782 303 782 303 768 380 c 0,59,60
 749 489 749 489 666 563 c 0,61,62
 583 637 583 637 492 637 c 0,63,64
 475 637 475 637 456 633 c 0,65,66
 435 629 435 629 412 621 c 0,67,68
 387 613 387 613 384 612 c 0,69,70
 368 606 368 606 355 620 c 0,71,72
 334 642 334 642 328 676 c 0,73,74
 324 698 324 698 330 710 c 0,75,76
 334 718 334 718 344 720 c 0,77,78
 403 733 403 733 450 756 c 0,79,80
 496 778 496 778 533 812 c 0,81,82
 568 844 568 844 583 890 c 0,83,84
 598 936 598 936 588 992 c 0,85,86
 576 1061 576 1061 520 1107 c 0,87,88
 464 1153 464 1153 389 1153 c 0,89,90
 351 1153 351 1153 317 1136 c 0,91,92
 281 1118 281 1118 263 1099 c 0,93,94
 244 1079 244 1079 226 1055 c 0,95,96
 222 1050 222 1050 218 1044 c 128,-1,97
 214 1038 214 1038 212 1035 c 128,-1,98
 210 1032 210 1032 207 1029 c 128,-1,99
 204 1026 204 1026 199 1024 c 0,100,101
 194 1021 194 1021 188 1021 c 0,102,103
 164 1021 164 1021 144 1050 c 0,104,105
 130 1070 130 1070 127 1090 c 0,106,107
 126 1098 126 1098 129 1104 c 0,108,109
 172 1189 172 1189 250 1248 c 0,110,111
 331 1309 331 1309 446 1309 c 0,0,1
EndSplineSet
Substitution2: "'ordn' Ordinals lookup 17 subtable" three.ordn
Substitution2: "'onum' Oldstyle Figures lookup 16 subtable" three.onum
Substitution2: "'pnum' Proportional Numbers lookup 14 subtable" three.prop
EndChar

StartChar: four
Encoding: 52 52 22
Width: 1090
GlyphClass: 2
Flags: W
LayerCount: 4
Fore
SplineSet
693 1313 m 0,0,1
 706 1313 706 1313 718 1307 c 0,2,3
 729 1302 729 1302 739 1292 c 0,4,5
 755 1274 755 1274 759 1252 c 2,6,-1
 894 487 l 1,7,-1
 987 487 l 2,8,9
 992 487 992 487 996 486 c 128,-1,10
 1000 485 1000 485 1004 483 c 128,-1,11
 1008 481 1008 481 1011 479.5 c 128,-1,12
 1014 478 1014 478 1017 474 c 128,-1,13
 1020 470 1020 470 1022 468 c 128,-1,14
 1024 466 1024 466 1026.5 461.5 c 128,-1,15
 1029 457 1029 457 1030 455.5 c 128,-1,16
 1031 454 1031 454 1033.5 449.5 c 0,17,-1
 1036 445 l 0,18,19
 1052 415 1052 415 1058 380 c 0,20,21
 1063 352 1063 352 1054 334 c 0,22,23
 1049 323 1049 323 1036 323 c 2,24,-1
 923 323 l 1,25,-1
 980 -2 l 2,26,27
 982 -11 982 -11 977 -18 c 0,28,29
 973 -24 973 -24 967 -27.5 c 128,-1,30
 961 -31 961 -31 955.5 -33.5 c 128,-1,31
 950 -36 950 -36 938.5 -36.5 c 128,-1,32
 927 -37 927 -37 920.5 -37 c 128,-1,33
 914 -37 914 -37 898 -37 c 128,-1,34
 882 -37 882 -37 875 -37 c 0,35,36
 872 -37 872 -37 862.5 -37 c 128,-1,37
 853 -37 853 -37 848.5 -37 c 128,-1,38
 844 -37 844 -37 834.5 -36.5 c 128,-1,39
 825 -36 825 -36 819.5 -35 c 128,-1,40
 814 -34 814 -34 806.5 -32.5 c 128,-1,41
 799 -31 799 -31 794 -27.5 c 128,-1,42
 789 -24 789 -24 783.5 -20 c 128,-1,43
 778 -16 778 -16 775 -10 c 128,-1,44
 772 -4 772 -4 771 4 c 2,45,-1
 715 323 l 1,46,-1
 176 323 l 2,47,48
 170 323 170 323 163 326 c 0,49,50
 127 344 127 344 119 386 c 0,51,52
 118 394 118 394 122 401 c 2,53,-1
 624 1253 l 2,54,55
 634 1271 634 1271 651 1289 c 0,56,57
 672 1313 672 1313 693 1313 c 0,0,1
600 974 m 1,58,-1
 313 487 l 1,59,-1
 686 487 l 1,60,-1
 600 974 l 1,58,-1
EndSplineSet
Substitution2: "'ordn' Ordinals lookup 17 subtable" four.ordn
Substitution2: "'onum' Oldstyle Figures lookup 16 subtable" four.onum
Substitution2: "'pnum' Proportional Numbers lookup 14 subtable" four.prop
EndChar

StartChar: five
Encoding: 53 53 23
Width: 1090
GlyphClass: 2
Flags: W
LayerCount: 4
Fore
SplineSet
513 815 m 0,0,1
 603 815 603 815 686.5 781.5 c 128,-1,2
 770 748 770 748 830 694 c 0,3,4
 890 640 890 640 929 573 c 0,5,6
 969 505 969 505 981 436 c 0,7,8
 1000 331 1000 331 969 240 c 0,9,10
 938 150 938 150 872 90 c 0,11,12
 807 31 807 31 718 -2 c 128,-1,13
 629 -35 629 -35 531 -35 c 0,14,15
 413 -35 413 -35 307 14 c 0,16,17
 305 15 305 15 304 15 c 0,18,19
 285 26 285 26 264 55 c 0,20,21
 241 84 241 84 236 112 c 0,22,23
 227 164 227 164 252 198 c 0,24,25
 278 233 278 233 324 233 c 0,26,27
 357 233 357 233 385 216 c 0,28,29
 410 201 410 201 439 170 c 0,30,31
 464 144 464 144 470 138 c 0,32,33
 520 95 520 95 608 95 c 0,34,35
 645 95 645 95 678 109.5 c 128,-1,36
 711 124 711 124 737 155 c 0,37,38
 763 185 763 185 773 243 c 0,39,40
 783 302 783 302 769 380 c 0,41,42
 763 416 763 416 746 453 c 0,43,44
 730 489 730 489 701 525 c 128,-1,45
 672 561 672 561 633 590 c 0,46,47
 596 618 596 618 542 635 c 0,48,49
 488 653 488 653 426 653 c 0,50,51
 394 653 394 653 342 644 c 0,52,53
 292 635 292 635 273 625 c 0,54,55
 268 623 268 623 263 623 c 0,56,57
 242 623 242 623 226 645 c 0,58,59
 215 660 215 660 212 676 c 0,60,61
 212 678 212 678 212 681 c 0,62,63
 223 1233 223 1233 223 1275 c 0,64,65
 223 1284 223 1284 229.5 1289.5 c 128,-1,66
 236 1295 236 1295 244 1295 c 2,67,-1
 540 1295 l 2,68,69
 575 1295 575 1295 619 1299 c 0,70,71
 663 1303 663 1303 690 1309 c 2,72,-1
 718 1313 l 2,73,74
 727 1314 727 1314 736 1309 c 0,75,76
 739 1307 739 1307 745 1303.5 c 128,-1,77
 751 1300 751 1300 753 1299 c 0,78,79
 760 1295 760 1295 766 1289 c 0,80,81
 776 1279 776 1279 778 1266 c 0,82,83
 781 1247 781 1247 771 1192.5 c 128,-1,84
 761 1138 761 1138 740 1108 c 0,85,86
 735 1100 735 1100 726 1099 c 0,87,88
 615 1087 615 1087 493 1087 c 2,89,-1
 346 1087 l 1,90,91
 345 1050 345 1050 344 992 c 0,92,93
 343 917 343 917 341 857 c 0,94,95
 340 822 340 822 339 789 c 1,96,97
 367 797 367 797 403 804 c 0,98,99
 468 815 468 815 513 815 c 0,0,1
EndSplineSet
Substitution2: "'ordn' Ordinals lookup 17 subtable" five.ordn
Substitution2: "'onum' Oldstyle Figures lookup 16 subtable" five.onum
Substitution2: "'pnum' Proportional Numbers lookup 14 subtable" five.prop
EndChar

StartChar: six
Encoding: 54 54 24
Width: 1090
GlyphClass: 2
Flags: W
LayerCount: 4
Fore
SplineSet
357 601 m 1,0,1
 360 549 360 549 372 476 c 0,2,3
 384 409 384 409 410.5 339.5 c 128,-1,4
 437 270 437 270 475 208 c 0,5,6
 511 149 511 149 559 113 c 0,7,8
 605 79 605 79 653 79 c 0,9,10
 735 79 735 79 776 158 c 0,11,12
 819 241 819 241 797 368 c 0,13,14
 782 453 782 453 747 520 c 0,15,16
 714 584 714 584 654 626 c 0,17,18
 595 667 595 667 517 667 c 0,19,20
 410 667 410 667 357 601 c 1,0,1
547 815 m 0,21,22
 632 815 632 815 707 787 c 0,23,24
 782 759 782 759 833 714 c 0,25,26
 883 671 883 671 922 615 c 0,27,28
 960 560 960 560 981 507 c 0,29,30
 1002 455 1002 455 1010 406 c 0,31,32
 1042 226 1042 226 940 95 c 0,33,34
 889 30 889 30 818 -3.5 c 128,-1,35
 747 -37 747 -37 658 -37 c 0,36,37
 565 -37 565 -37 476 6 c 0,38,39
 388 49 388 49 323 118 c 0,40,41
 260 186 260 186 216 270 c 0,42,43
 172 354 172 354 156 440 c 0,44,45
 128 598 128 598 154 739 c 0,46,47
 180 880 180 880 259 987 c 0,48,49
 343 1102 343 1102 481 1192 c 0,50,51
 619 1282 619 1282 748 1318 c 0,52,53
 751 1319 751 1319 754 1319 c 0,54,55
 785 1319 785 1319 804 1279 c 0,56,57
 815 1254 815 1254 818 1236 c 0,58,59
 821 1218 821 1218 805 1212 c 0,60,61
 425 1082 425 1082 366 761 c 1,62,63
 393 777 393 777 423 789 c 0,64,65
 489 815 489 815 547 815 c 0,21,22
EndSplineSet
Substitution2: "'ordn' Ordinals lookup 17 subtable" six.ordn
Substitution2: "'onum' Oldstyle Figures lookup 16 subtable" six.onum
Substitution2: "'pnum' Proportional Numbers lookup 14 subtable" six.prop
EndChar

StartChar: seven
Encoding: 55 55 25
Width: 1090
GlyphClass: 2
Flags: W
LayerCount: 4
Fore
SplineSet
700 1291 m 2,0,1
 730 1291 730 1291 781 1294 c 0,2,3
 833 1297 833 1297 835 1297 c 0,4,5
 854 1297 854 1297 865.5 1283 c 128,-1,6
 877 1269 877 1269 879 1254 c 0,7,8
 881 1241 881 1241 878 1221 c 0,9,10
 875 1204 875 1204 871 1188 c 0,11,12
 867 1174 867 1174 859 1148 c 0,13,14
 851 1123 851 1123 846 1109 c 2,15,-1
 516 -15 l 2,16,17
 515 -19 515 -19 513 -22 c 0,18,19
 502 -35 502 -35 477 -35 c 0,20,21
 448 -35 448 -35 410 -22 c 0,22,23
 395 -17 395 -17 386.5 -13 c 128,-1,24
 378 -9 378 -9 367 1.5 c 128,-1,25
 356 12 356 12 354 26 c 0,26,27
 353 34 353 34 355 40 c 0,28,29
 422 178 422 178 516 450 c 0,30,31
 610 723 610 723 669 927 c 2,32,-1
 719 1095 l 1,33,-1
 250 1095 l 2,34,35
 203 1095 203 1095 184 1068 c 0,36,37
 162 1037 162 1037 154 960 c 0,38,39
 152 929 152 929 111 929 c 0,40,41
 79 929 79 929 53 946 c 0,42,43
 37 957 37 957 40 973 c 0,44,45
 66 1163 66 1163 71 1271 c 0,46,47
 71 1280 71 1280 77 1285.5 c 128,-1,48
 83 1291 83 1291 92 1291 c 2,49,-1
 700 1291 l 2,0,1
EndSplineSet
Substitution2: "'ordn' Ordinals lookup 17 subtable" seven.ordn
Substitution2: "'onum' Oldstyle Figures lookup 16 subtable" seven.onum
Substitution2: "'pnum' Proportional Numbers lookup 14 subtable" seven.prop
EndChar

StartChar: eight
Encoding: 56 56 26
Width: 1090
GlyphClass: 2
Flags: W
LayerCount: 4
Fore
SplineSet
642 79 m 0,0,1
 730 79 730 79 772 131 c 0,2,3
 814 184 814 184 798 276 c 0,4,5
 791 317 791 317 761 360 c 0,6,7
 730 405 730 405 695 437 c 0,8,9
 660 469 660 469 613 501 c 0,10,11
 565 534 565 534 544 546 c 0,12,13
 523 558 523 558 504 568 c 1,14,15
 438 519 438 519 416 462 c 0,16,17
 392 403 392 403 407 314 c 0,18,19
 426 207 426 207 497 143 c 0,20,21
 568 79 568 79 642 79 c 0,0,1
446 1191 m 0,22,23
 386 1191 386 1191 353 1136 c 0,24,25
 318 1078 318 1078 333 996 c 0,26,27
 341 949 341 949 365 910 c 0,28,29
 388 871 388 871 425 842 c 0,30,31
 465 810 465 810 492 794 c 0,32,33
 520 777 520 777 562 755 c 0,34,35
 568 752 568 752 572 750 c 0,36,37
 680 833 680 833 655 972 c 0,38,39
 640 1057 640 1057 578 1126 c 0,40,41
 519 1191 519 1191 446 1191 c 0,22,23
437 1311 m 0,42,43
 585 1311 585 1311 701 1226 c 0,44,45
 820 1139 820 1139 846 992 c 0,46,47
 857 932 857 932 843.5 879 c 128,-1,48
 830 826 830 826 796 784 c 0,49,50
 763 744 763 744 736 720 c 0,51,52
 717 703 717 703 689 683 c 1,53,54
 792 625 792 625 879 541 c 0,55,56
 981 442 981 442 1000 334 c 0,57,58
 1028 176 1028 176 924 66 c 0,59,60
 822 -43 822 -43 659 -43 c 0,61,62
 485 -43 485 -43 357 54 c 0,63,64
 228 152 228 152 200 308 c 0,65,66
 195 337 195 337 197 365 c 0,67,68
 199 391 199 391 202 413 c 0,69,70
 206 437 206 437 220 462 c 0,71,72
 232 484 232 484 240 499 c 0,73,74
 249 516 249 516 270 539 c 0,75,76
 289 559 289 559 297 568 c 0,77,78
 307 579 307 579 330 597 c 0,79,80
 352 614 352 614 358 619 c 0,81,82
 365 624 365 624 387 641 c 2,83,-1
 389 642 l 1,84,85
 313 689 313 689 245 762 c 0,86,87
 161 851 161 851 142 960 c 0,88,89
 118 1098 118 1098 206.5 1204.5 c 128,-1,90
 295 1311 295 1311 437 1311 c 0,42,43
EndSplineSet
Substitution2: "'ordn' Ordinals lookup 17 subtable" eight.ordn
Substitution2: "'onum' Oldstyle Figures lookup 16 subtable" eight.onum
Substitution2: "'pnum' Proportional Numbers lookup 14 subtable" eight.prop
EndChar

StartChar: nine
Encoding: 57 57 27
Width: 1090
GlyphClass: 2
Flags: W
LayerCount: 4
Fore
SplineSet
733 681 m 1,0,1
 730 733 730 733 718 806 c 0,2,3
 706 873 706 873 679.5 942.5 c 128,-1,4
 653 1012 653 1012 615 1074 c 0,5,6
 579 1133 579 1133 531 1169 c 0,7,8
 485 1203 485 1203 437 1203 c 0,9,10
 356 1203 356 1203 315 1124 c 0,11,12
 272 1041 272 1041 295 914 c 0,13,14
 310 828 310 828 344 762 c 0,15,16
 377 698 377 698 437 656 c 0,17,18
 495 615 495 615 573 615 c 0,19,20
 680 615 680 615 733 681 c 1,0,1
285 70 m 0,21,22
 665 200 665 200 724 521 c 1,23,24
 697 505 697 505 667 493 c 0,25,26
 601 467 601 467 543 467 c 0,27,28
 458 467 458 467 383 495 c 0,29,30
 308 523 308 523 257 568 c 0,31,32
 207 611 207 611 169 668 c 0,33,34
 131 724 131 724 110 775 c 0,35,36
 90 826 90 826 82 876 c 0,37,38
 50 1056 50 1056 151 1187 c 0,39,40
 253 1319 253 1319 432 1319 c 0,41,42
 525 1319 525 1319 614 1276 c 0,43,44
 702 1233 702 1233 767 1164 c 0,45,46
 830 1096 830 1096 874 1012 c 0,47,48
 918 928 918 928 934 842 c 0,49,50
 962 684 962 684 936 543 c 0,51,52
 910 402 910 402 831 295 c 0,53,54
 747 180 747 180 609 90 c 0,55,56
 471 0 471 0 342 -36 c 0,57,58
 339 -37 339 -37 336 -37 c 0,59,60
 305 -37 305 -37 286 3 c 0,61,62
 275 28 275 28 272 46 c 0,63,64
 269 64 269 64 285 70 c 0,21,22
EndSplineSet
Substitution2: "'onum' Oldstyle Figures lookup 16 subtable" nine.onum
Substitution2: "'pnum' Proportional Numbers lookup 14 subtable" nine.prop
EndChar

StartChar: colon
Encoding: 58 58 28
Width: 452
GlyphClass: 2
Flags: W
LayerCount: 4
Fore
SplineSet
149 90 m 0,0,1
 139 146 139 146 174 185 c 0,2,3
 208 223 208 223 263 223 c 0,4,5
 318 223 318 223 363.5 184 c 128,-1,6
 409 145 409 145 419 90 c 0,7,8
 429 35 429 35 398 -6 c 0,9,10
 366 -47 366 -47 310 -47 c 0,11,12
 255 -47 255 -47 207 -6 c 128,-1,13
 159 35 159 35 149 90 c 0,0,1
32 754 m 0,14,15
 22 810 22 810 57 849 c 0,16,17
 91 887 91 887 146 887 c 0,18,19
 201 887 201 887 246.5 848 c 128,-1,20
 292 809 292 809 302 754 c 0,21,22
 312 699 312 699 281 658 c 0,23,24
 249 617 249 617 193 617 c 0,25,26
 138 617 138 617 90 658 c 128,-1,27
 42 699 42 699 32 754 c 0,14,15
EndSplineSet
Substitution2: "'smcp' Lowercase to Small Capitals lookup 12 subtable" colon.sc
EndChar

StartChar: semicolon
Encoding: 59 59 29
Width: 464
GlyphClass: 2
Flags: W
LayerCount: 4
Fore
SplineSet
258 271 m 0,0,1
 293 271 293 271 325 254 c 0,2,3
 331 251 331 251 336 245 c 0,4,5
 387 177 387 177 402 92 c 0,6,7
 418 1 418 1 358 -127 c 0,8,9
 298 -254 298 -254 222 -300 c 0,10,11
 217 -303 217 -303 211 -303 c 0,12,13
 187 -303 187 -303 165 -275 c 0,14,15
 147 -253 147 -253 144 -236 c 0,16,17
 142 -223 142 -223 151 -216 c 0,18,19
 170 -200 170 -200 182 -187 c 0,20,21
 194 -175 194 -175 211 -147 c 0,22,23
 228 -122 228 -122 233 -89 c 0,24,25
 238 -55 238 -55 231 -14 c 0,26,27
 227 10 227 10 192 48 c 0,28,29
 145 100 145 100 136 148 c 0,30,31
 128 194 128 194 163 233 c 0,32,33
 197 271 197 271 258 271 c 0,0,1
16 754 m 0,34,35
 6 810 6 810 40 849 c 0,36,37
 74 887 74 887 129 887 c 0,38,39
 184 887 184 887 230 848 c 128,-1,40
 276 809 276 809 286 754 c 0,41,42
 296 699 296 699 264 658 c 0,43,44
 232 617 232 617 177 617 c 0,45,46
 122 617 122 617 74 658 c 128,-1,47
 26 699 26 699 16 754 c 0,34,35
EndSplineSet
Substitution2: "'smcp' Lowercase to Small Capitals lookup 12 subtable" semicolon.sc
EndChar

StartChar: less
Encoding: 60 60 30
Width: 984
GlyphClass: 2
Flags: W
LayerCount: 4
Fore
SplineSet
974 70 m 0,0,1
 977 53 977 53 972 6 c 0,2,3
 972 4 972 4 971.5 -7 c 128,-1,4
 971 -18 971 -18 970 -24 c 128,-1,5
 969 -30 969 -30 966 -38.5 c 128,-1,6
 963 -47 963 -47 956 -51 c 128,-1,7
 949 -55 949 -55 939 -55 c 0,8,9
 931 -55 931 -55 916 -48 c 2,10,-1
 99 332 l 2,11,12
 45 358 45 358 32 434 c 0,13,14
 24 479 24 479 69 504 c 2,15,-1
 741 878 l 2,16,17
 753 885 753 885 761 885 c 0,18,19
 770 885 770 885 778 882 c 128,-1,20
 786 879 786 879 793 871 c 128,-1,21
 800 863 800 863 804.5 856.5 c 128,-1,22
 809 850 809 850 815 837 c 128,-1,23
 821 824 821 824 823.5 816.5 c 128,-1,24
 826 809 826 809 832 793 c 128,-1,25
 838 777 838 777 840 771 c 0,26,27
 844 760 844 760 842 749 c 0,28,29
 840 739 840 739 836 732 c 2,30,-1
 834 730 l 2,31,32
 832 727 832 727 829 726 c 2,33,-1
 275 418 l 1,34,-1
 948 104 l 2,35,36
 957 100 957 100 964.5 89.5 c 128,-1,37
 972 79 972 79 974 70 c 0,0,1
EndSplineSet
Substitution2: "'smcp' Lowercase to Small Capitals lookup 12 subtable" less.sc
EndChar

StartChar: equal
Encoding: 61 61 31
Width: 1130
GlyphClass: 2
Flags: W
LayerCount: 4
Fore
SplineSet
996 215 m 2,0,-1
 184 215 l 2,1,2
 179 215 179 215 175 217 c 0,3,4
 146 228 146 228 142 268 c 0,5,6
 139 295 139 295 148 328 c 0,7,8
 159 365 159 365 180 373 c 0,9,10
 184 375 184 375 188 375 c 2,11,-1
 994 375 l 2,12,13
 998 375 998 375 1002 374 c 0,14,15
 1033 364 1033 364 1040 324 c 0,16,17
 1044 298 1044 298 1036 265 c 0,18,19
 1027 229 1027 229 1008 218 c 0,20,21
 1002 215 1002 215 996 215 c 2,0,-1
946 503 m 2,22,-1
 134 503 l 2,23,24
 129 503 129 503 124 505 c 0,25,26
 95 516 95 516 91 556 c 0,27,28
 88 583 88 583 97 616 c 0,29,30
 108 653 108 653 129 661 c 0,31,32
 133 663 133 663 138 663 c 2,33,-1
 944 663 l 2,34,35
 948 663 948 663 952 662 c 0,36,37
 983 652 983 652 989 612 c 0,38,39
 993 586 993 586 985 553 c 0,40,41
 976 517 976 517 957 506 c 0,42,43
 952 503 952 503 946 503 c 2,22,-1
EndSplineSet
Substitution2: "'smcp' Lowercase to Small Capitals lookup 12 subtable" equal.sc
EndChar

StartChar: greater
Encoding: 62 62 32
Width: 986
GlyphClass: 2
Flags: W
LayerCount: 4
Fore
SplineSet
132 70 m 0,0,1
 130 80 130 80 133 88 c 0,2,3
 135 95 135 95 138 99 c 0,4,5
 140 102 140 102 144 103 c 2,6,-1
 146 104 l 1,7,-1
 708 418 l 1,8,-1
 49 725 l 2,9,10
 26 735 26 735 21 764 c 128,-1,11
 16 793 16 793 23 833 c 0,12,13
 23 835 23 835 24 844 c 128,-1,14
 25 853 25 853 26.5 858.5 c 128,-1,15
 28 864 28 864 31.5 871 c 128,-1,16
 35 878 35 878 41.5 881.5 c 128,-1,17
 48 885 48 885 57 885 c 0,18,19
 65 885 65 885 80 878 c 2,20,-1
 885 504 l 2,21,22
 937 480 937 480 946 434 c 0,23,24
 960 357 960 357 916 332 c 2,25,-1
 233 -48 l 2,26,27
 221 -55 221 -55 213 -55 c 0,28,29
 203 -55 203 -55 194.5 -51 c 128,-1,30
 186 -47 186 -47 180 -39 c 128,-1,31
 174 -31 174 -31 171 -25 c 128,-1,32
 168 -19 168 -19 163.5 -8 c 128,-1,33
 159 3 159 3 157 5 c 0,34,35
 135 51 135 51 132 70 c 0,0,1
EndSplineSet
Substitution2: "'smcp' Lowercase to Small Capitals lookup 12 subtable" greater.sc
EndChar

StartChar: question
Encoding: 63 63 33
Width: 712
GlyphClass: 2
Flags: W
LayerCount: 4
Fore
SplineSet
196 90 m 0,0,1
 186 146 186 146 221 185 c 0,2,3
 255 223 255 223 310 223 c 0,4,5
 365 223 365 223 411 184 c 128,-1,6
 457 145 457 145 466 90 c 0,7,8
 476 35 476 35 445 -6 c 0,9,10
 413 -47 413 -47 358 -47 c 0,11,12
 303 -47 303 -47 254.5 -6 c 128,-1,13
 206 35 206 35 196 90 c 0,0,1
122 1071 m 0,14,15
 85 1071 85 1071 42 1106 c 0,16,17
 -3 1141 -3 1141 -13 1196 c 0,18,19
 -23 1253 -23 1253 -6 1285 c 0,20,21
 -3 1290 -3 1290 2 1292 c 0,22,23
 32 1309 32 1309 106 1309 c 0,24,25
 151 1309 151 1309 209 1292 c 0,26,27
 266 1276 266 1276 327 1242 c 0,28,29
 388 1209 388 1209 443 1164 c 0,30,31
 499 1118 499 1118 540 1052 c 0,32,33
 582 986 582 986 595 914 c 0,34,35
 614 804 614 804 578 728 c 0,36,37
 542 654 542 654 438 586 c 0,38,39
 402 562 402 562 358 522 c 0,40,41
 317 484 317 484 312 472 c 0,42,43
 309 465 309 465 310 450 c 0,44,45
 310 432 310 432 312 420 c 0,46,47
 314 407 314 407 319 379 c 0,48,49
 324 351 324 351 326 344 c 0,50,51
 327 338 327 338 325 333 c 0,52,53
 313 297 313 297 280 293 c 0,54,55
 274 292 274 292 268 295 c 0,56,57
 238 307 238 307 223 329 c 0,58,59
 221 332 221 332 220 334 c 0,60,61
 191 404 191 404 170 522 c 0,62,63
 162 566 162 566 167 604 c 0,64,65
 172 641 172 641 182 665 c 0,66,67
 192 690 192 690 215 716 c 0,68,69
 237 740 237 740 252 752 c 0,70,71
 266 763 266 763 292 782 c 0,72,73
 300 787 300 787 303 790 c 0,74,75
 304 791 l 0,76,77
 340 817 340 817 355 828 c 0,78,79
 369 838 369 838 393 860 c 0,80,81
 415 880 415 880 422 894 c 0,82,83
 429 908 429 908 434 930 c 0,84,85
 439 951 439 951 435 974 c 0,86,87
 424 1039 424 1039 380.5 1076 c 128,-1,88
 337 1113 337 1113 287 1113 c 0,89,90
 232 1113 232 1113 194 1094 c 0,91,92
 146 1071 146 1071 122 1071 c 0,14,15
EndSplineSet
Substitution2: "'smcp' Lowercase to Small Capitals lookup 12 subtable" question.sc
EndChar

StartChar: at
Encoding: 64 64 34
Width: 1496
GlyphClass: 2
Flags: W
LayerCount: 4
Fore
SplineSet
708 1181 m 0,0,1
 826 1181 826 1181 933 1146 c 0,2,3
 1041 1110 1041 1110 1124 1048 c 0,4,5
 1206 986 1206 986 1271 904.5 c 128,-1,6
 1336 823 1336 823 1376 730 c 0,7,8
 1416 638 1416 638 1434 540 c 0,9,10
 1462 384 1462 384 1429 252 c 0,11,12
 1396 119 1396 119 1310 41 c 0,13,14
 1266 1 1266 1 1213.5 -19 c 128,-1,15
 1161 -39 1161 -39 1099 -39 c 0,16,17
 1012 -39 1012 -39 952 10 c 0,18,19
 896 56 896 56 876 143 c 1,20,21
 858 110 858 110 834 77 c 0,22,23
 802 30 802 30 759 -2 c 0,24,25
 713 -35 713 -35 664 -35 c 0,26,27
 561 -35 561 -35 488 56 c 0,28,29
 419 141 419 141 397 260 c 0,30,31
 377 373 377 373 411 489 c 0,32,33
 444 604 444 604 511 692 c 0,34,35
 578 781 578 781 676 838 c 0,36,37
 776 895 776 895 882 895 c 0,38,39
 961 895 961 895 1042 867 c 0,40,41
 1051 864 1051 864 1057 856 c 128,-1,42
 1063 848 1063 848 1063 839 c 2,43,-1
 1052 207 l 2,44,45
 1052 206 l 0,46,47
 1050 185 1050 185 1054 162 c 0,48,49
 1060 128 1060 128 1081 113 c 0,50,51
 1103 97 1103 97 1137 97 c 0,52,53
 1175 97 1175 97 1211 129 c 0,54,55
 1250 164 1250 164 1276 222 c 0,56,57
 1302 280 1302 280 1311 363 c 128,-1,58
 1320 446 1320 446 1305 534 c 0,59,60
 1291 614 1291 614 1259 689 c 0,61,62
 1228 763 1228 763 1177 829 c 0,63,64
 1126 895 1126 895 1062 944 c 0,65,66
 999 993 999 993 913 1022 c 0,67,68
 827 1051 827 1051 731 1051 c 0,69,70
 617 1051 617 1051 522.5 1010 c 128,-1,71
 428 969 428 969 366 899 c 0,72,73
 303 828 303 828 264 736.5 c 128,-1,74
 225 645 225 645 215 543 c 0,75,76
 205 441 205 441 223 340 c 0,77,78
 251 180 251 180 345.5 54.5 c 128,-1,79
 440 -71 440 -71 560 -134 c 0,80,81
 639 -176 639 -176 711 -187 c 0,82,83
 720 -188 720 -188 727.5 -195.5 c 128,-1,84
 735 -203 735 -203 736 -212 c 0,85,86
 738 -225 738 -225 732.5 -235 c 128,-1,87
 727 -245 727 -245 721 -248.5 c 128,-1,88
 715 -252 715 -252 704 -258 c 0,89,90
 675 -273 675 -273 650 -273 c 0,91,92
 598 -273 598 -273 561 -259 c 0,93,94
 399 -203 399 -203 264 -37 c 0,95,96
 130 129 130 129 93 340 c 0,97,98
 72 461 72 461 83 581 c 0,99,100
 94 701 94 701 140.5 809 c 128,-1,101
 187 917 187 917 262 1000 c 0,102,103
 338 1084 338 1084 453 1132.5 c 128,-1,104
 568 1181 568 1181 708 1181 c 0,0,1
823 753 m 0,105,106
 775 753 775 753 727 715 c 0,107,108
 676 675 676 675 640 612 c 0,109,110
 604 548 604 548 589 464 c 0,111,112
 574 381 574 381 588 302 c 0,113,114
 618 131 618 131 695 131 c 0,115,116
 731 131 731 131 772 193 c 0,117,118
 817 261 817 261 846 360 c 0,119,120
 874 460 874 460 876 553 c 2,121,-1
 880 742 l 1,122,123
 859 753 859 753 823 753 c 0,105,106
EndSplineSet
Substitution2: "'smcp' Lowercase to Small Capitals lookup 12 subtable" at.sc
EndChar

StartChar: A
Encoding: 65 65 35
Width: 1254
GlyphClass: 2
Flags: W
LayerCount: 4
Fore
SplineSet
232 287 m 0,0,1
 376 966 376 966 444 1277 c 0,2,3
 444 1278 444 1278 445 1280 c 0,4,5
 452 1300 452 1300 479 1324 c 0,6,7
 509 1351 509 1351 530 1351 c 0,8,9
 541 1351 541 1351 552 1344 c 2,10,-1
 555 1342 l 2,11,12
 565 1337 565 1337 569 1329 c 2,13,-1
 1165 261 l 2,14,15
 1234 138 1234 138 1239 129 c 0,16,17
 1252 108 1252 108 1293 94 c 0,18,19
 1341 77 1341 77 1361 77 c 0,20,21
 1374 77 1374 77 1384 66 c 0,22,23
 1397 50 1397 50 1401 22 c 0,24,25
 1405 -2 1405 -2 1405 -12 c 0,26,27
 1404 -21 1404 -21 1397.5 -26 c 128,-1,28
 1391 -31 1391 -31 1383 -31 c 0,29,30
 1182 -21 1182 -21 1162 -21 c 0,31,32
 1122 -21 1122 -21 1087 -22 c 0,33,34
 1052 -23 1052 -23 1009 -27 c 0,35,36
 965 -30 965 -30 933 -31 c 0,37,38
 921 -31 921 -31 912 -22 c 0,39,40
 896 -7 896 -7 891 24 c 0,41,42
 886 55 886 55 898 70 c 0,43,44
 904 77 904 77 915 77 c 0,45,46
 936 77 936 77 970 84 c 0,47,48
 996 89 996 89 1005 96 c 0,49,50
 1005 100 1005 100 1005 106 c 0,51,52
 1001 129 1001 129 952 222 c 0,53,54
 901 319 901 319 852 403 c 2,55,-1
 808 479 l 1,56,57
 770 481 770 481 618 481 c 0,58,59
 499 481 499 481 412 476 c 1,60,61
 383 335 383 335 367 242 c 0,62,63
 354 164 354 164 364 108 c 0,64,65
 365 105 365 105 373 100 c 0,66,67
 389 91 389 91 412 86 c 0,68,69
 438 81 438 81 456 79 c 128,-1,70
 474 77 474 77 483 77 c 0,71,72
 493 77 493 77 502 70 c 0,73,74
 507 66 507 66 510 62 c 128,-1,75
 513 58 513 58 515 53 c 128,-1,76
 517 48 517 48 518 45 c 128,-1,77
 519 42 519 42 520.5 35.5 c 128,-1,78
 522 29 522 29 522 27 c 0,79,80
 529 0 529 0 527 -14 c 0,81,82
 524 -32 524 -32 505 -31 c 0,83,84
 475 -30 475 -30 440 -27 c 0,85,86
 406 -24 406 -24 377 -22.5 c 128,-1,87
 348 -21 348 -21 310 -21 c 0,88,89
 270 -21 270 -21 239 -22 c 0,90,91
 208 -23 208 -23 171 -27 c 0,92,93
 133 -30 133 -30 99 -31 c 0,94,95
 88 -31 88 -31 79 -24 c 0,96,97
 74 -20 74 -20 70.5 -15.5 c 128,-1,98
 67 -11 67 -11 65 -5.5 c 128,-1,99
 63 -0 63 -0 62.5 2.5 c 128,-1,100
 62 5 62 5 61 11.5 c 128,-1,101
 60 18 60 18 60 20 c 0,102,103
 55 47 55 47 58 61 c 0,104,105
 62 77 62 77 79 77 c 0,106,107
 101 77 101 77 137 87 c 0,108,109
 168 95 168 95 174 105 c 0,110,111
 204 157 204 157 232 287 c 0,0,1
520 1012 m 1,112,-1
 439 612 l 1,113,114
 526 609 526 609 593 609 c 0,115,116
 657 609 657 609 735 613 c 1,117,-1
 520 1012 l 1,112,-1
EndSplineSet
EndChar

StartChar: B
Encoding: 66 66 36
Width: 1192
GlyphClass: 2
Flags: W
LayerCount: 4
Fore
SplineSet
442 639 m 1,0,-1
 515 220 l 2,1,2
 520 194 520 194 531 154 c 0,3,4
 540 121 540 121 547 110 c 1,5,6
 565 94 565 94 594 90 c 0,7,8
 629 83 629 83 691 83 c 0,9,10
 842 83 842 83 901 148.5 c 128,-1,11
 960 214 960 214 936 352 c 0,12,13
 910 498 910 498 814 568.5 c 128,-1,14
 718 639 718 639 539 639 c 2,15,-1
 442 639 l 1,0,-1
419 765 m 1,16,-1
 561 765 l 2,17,18
 675 765 675 765 720 826 c 0,19,20
 766 888 766 888 750 974 c 0,21,22
 729 1095 729 1095 642 1161 c 0,23,24
 554 1229 554 1229 422 1229 c 0,25,26
 363 1229 363 1229 346 1221 c 1,27,28
 344 1195 344 1195 357 1117 c 2,29,-1
 419 765 l 1,16,-1
490 1343 m 0,30,31
 550 1343 550 1343 608 1334 c 0,32,33
 666 1325 666 1325 727 1302 c 0,34,35
 789 1279 789 1279 838 1243 c 0,36,37
 888 1206 888 1206 925 1149 c 128,-1,38
 962 1092 962 1092 974 1020 c 0,39,40
 994 908 994 908 936 820 c 0,41,42
 899 764 899 764 858 733 c 1,43,44
 878 727 878 727 899 718 c 0,45,46
 955 694 955 694 1012 652 c 0,47,48
 1070 609 1070 609 1116 542 c 0,49,50
 1163 474 1163 474 1176 398 c 0,51,52
 1210 203 1210 203 1088 83 c 0,53,54
 976 -27 976 -27 673 -31 c 1,55,-1
 213 -31 l 2,56,57
 202 -31 202 -31 192 -22 c 0,58,59
 176 -7 176 -7 172 24 c 0,60,61
 168 53 168 53 175 67 c 0,62,63
 180 77 180 77 194 77 c 0,64,65
 222 77 222 77 270 86 c 0,66,67
 296 91 296 91 306 96 c 1,68,69
 308 129 308 129 289 232 c 2,70,-1
 139 1086 l 2,71,72
 121 1189 121 1189 107 1222 c 1,73,74
 95 1227 95 1227 68 1232 c 0,75,76
 17 1241 17 1241 -12 1241 c 0,77,78
 -24 1241 -24 1241 -33 1251 c 0,79,80
 -46 1265 -46 1265 -53 1294 c 0,81,82
 -59 1325 -59 1325 -48 1340 c 0,83,84
 -42 1349 -42 1349 -29 1349 c 0,85,86
 177 1339 177 1339 207 1339 c 0,87,88
 241 1339 241 1339 333 1341 c 0,89,90
 426 1343 426 1343 490 1343 c 0,30,31
EndSplineSet
EndChar

StartChar: C
Encoding: 67 67 37
Width: 1348
GlyphClass: 2
Flags: W
LayerCount: 4
Fore
SplineSet
649 1359 m 0,0,1
 882 1359 882 1359 1086 1316 c 0,2,3
 1103 1312 1103 1312 1109 1296 c 0,4,5
 1203 1022 1203 1022 1208 998 c 0,6,7
 1214 972 1214 972 1188 957 c 0,8,9
 1169 945 1169 945 1148 945 c 0,10,11
 1125 945 1125 945 1108 955 c 0,12,13
 1098 961 1098 961 1095 971 c 0,14,15
 1044 1109 1044 1109 942 1176 c 128,-1,16
 840 1243 840 1243 679 1243 c 0,17,18
 546 1243 546 1243 453 1160 c 0,19,20
 359 1076 359 1076 325 950 c 0,21,22
 291 823 291 823 315 686 c 0,23,24
 331 594 331 594 366 506 c 0,25,26
 401 419 401 419 456 341 c 0,27,28
 510 263 510 263 579 205 c 0,29,30
 646 148 646 148 733.5 113.5 c 128,-1,31
 821 79 821 79 917 79 c 0,32,33
 1063 79 1063 79 1148 169 c 0,34,35
 1219 244 1219 244 1224 387 c 0,36,37
 1224 396 1224 396 1230 401.5 c 128,-1,38
 1236 407 1236 407 1245 407 c 2,39,-1
 1254 407 l 2,40,41
 1291 407 1291 407 1326 387 c 0,42,43
 1339 380 1339 380 1341 366 c 0,44,45
 1348 325 1348 325 1343 206 c 0,46,47
 1340 137 1340 137 1335.5 105 c 128,-1,48
 1331 73 1331 73 1316 59 c 0,49,50
 1314 57 1314 57 1313 56 c 0,51,52
 1164 -37 1164 -37 887 -37 c 0,53,54
 737 -37 737 -37 596.5 18 c 128,-1,55
 456 73 456 73 350 166 c 0,56,57
 244 258 244 258 171 382.5 c 128,-1,58
 98 507 98 507 74 644 c 0,59,60
 49 788 49 788 78.5 919 c 128,-1,61
 108 1050 108 1050 182 1147 c 0,62,63
 256 1244 256 1244 378 1301.5 c 128,-1,64
 500 1359 500 1359 649 1359 c 0,0,1
EndSplineSet
EndChar

StartChar: D
Encoding: 68 68 38
Width: 1420
GlyphClass: 2
Flags: W
LayerCount: 4
Fore
SplineSet
360 1112 m 2,0,-1
 516 230 l 2,1,2
 535 124 535 124 546 101 c 0,3,4
 551 97 551 97 568 93 c 128,-1,5
 585 89 585 89 618.5 86 c 128,-1,6
 652 83 652 83 693 83 c 0,7,8
 798 83 798 83 881 116 c 0,9,10
 965 149 965 149 1024 213 c 0,11,12
 1082 277 1082 277 1104 382 c 0,13,14
 1126 488 1126 488 1102 626 c 0,15,16
 1079 754 1079 754 1031 858 c 0,17,18
 984 960 984 960 923 1027.5 c 128,-1,19
 862 1095 862 1095 785 1140 c 0,20,21
 708 1186 708 1186 629 1206 c 0,22,23
 549 1227 549 1227 463 1227 c 0,24,25
 374 1227 374 1227 349 1217 c 1,26,27
 347 1186 347 1186 360 1112 c 2,0,-1
497 1341 m 0,28,29
 663 1341 663 1341 808 1290 c 0,30,31
 955 1239 955 1239 1064 1148.5 c 128,-1,32
 1173 1058 1173 1058 1245 934 c 0,33,34
 1317 810 1317 810 1342 668 c 0,35,36
 1361 558 1361 558 1357 462 c 0,37,38
 1352 364 1352 364 1314 272 c 0,39,40
 1275 179 1275 179 1203 113 c 128,-1,41
 1131 47 1131 47 1005 8 c 0,42,43
 943 -12 943 -12 869.5 -21.5 c 128,-1,44
 796 -31 796 -31 713 -31 c 2,45,-1
 213 -31 l 2,46,47
 202 -31 202 -31 192 -22 c 0,48,49
 176 -7 176 -7 172 24 c 0,50,51
 168 53 168 53 175 67 c 0,52,53
 180 77 180 77 194 77 c 0,54,55
 222 77 222 77 270 86 c 0,56,57
 296 91 296 91 306 96 c 1,58,59
 308 129 308 129 289 232 c 2,60,-1
 139 1086 l 2,61,62
 121 1189 121 1189 107 1222 c 1,63,64
 95 1227 95 1227 68 1232 c 0,65,66
 17 1241 17 1241 -12 1241 c 0,67,68
 -24 1241 -24 1241 -33 1251 c 0,69,70
 -46 1265 -46 1265 -53 1294 c 0,71,72
 -59 1325 -59 1325 -48 1340 c 0,73,74
 -42 1349 -42 1349 -29 1349 c 0,75,76
 177 1339 177 1339 207 1339 c 0,77,78
 245 1339 245 1339 348 1340 c 0,79,80
 452 1341 452 1341 497 1341 c 0,28,29
EndSplineSet
EndChar

StartChar: E
Encoding: 69 69 39
Width: 1174
GlyphClass: 2
Flags: W
LayerCount: 4
Fore
SplineSet
207 1339 m 0,0,1
 297 1339 297 1339 516 1346 c 0,2,3
 736 1353 736 1353 849 1353 c 0,4,5
 858 1353 858 1353 866.5 1347 c 128,-1,6
 875 1341 875 1341 877 1331 c 0,7,8
 895 1274 895 1274 934 1181 c 0,9,10
 973 1086 973 1086 983 1061 c 0,11,12
 988 1048 988 1048 980 1038 c 0,13,14
 966 1021 966 1021 929 1021 c 0,15,16
 885 1021 885 1021 871 1054 c 0,17,18
 825 1155 825 1155 771 1189 c 0,19,20
 716 1223 716 1223 634 1223 c 2,21,-1
 462 1223 l 2,22,23
 373 1223 373 1223 348 1213 c 1,24,25
 346 1181 346 1181 358 1112 c 2,26,-1
 426 725 l 1,27,28
 450 723 450 723 488 723 c 2,29,-1
 594 723 l 2,30,31
 644 723 644 723 671 724 c 0,32,33
 697 725 697 725 718 729 c 0,34,35
 736 733 736 733 743 738 c 0,36,37
 750 743 750 743 755 754.5 c 128,-1,38
 760 766 760 766 762 782 c 0,39,40
 764 802 764 802 767 830 c 0,41,42
 767 841 767 841 768 849 c 0,43,44
 771 881 771 881 816 881 c 0,45,46
 850 881 850 881 871 864 c 0,47,48
 880 857 880 857 881 846 c 2,49,-1
 948 468 l 2,50,51
 950 458 950 458 944 450 c 0,52,53
 931 435 931 435 897 435 c 0,54,55
 854 435 854 435 836 467 c 0,56,57
 835 468 835 468 834 470 c 0,58,59
 800 547 800 547 788 566 c 0,60,61
 779 580 779 580 769 587 c 0,62,63
 759 591 759 591 703.5 595 c 128,-1,64
 648 599 648 599 568 599 c 2,65,-1
 537 599 l 2,66,67
 526 599 526 599 506 599 c 0,68,69
 487 599 487 599 476 597.5 c 128,-1,70
 465 596 465 596 453 594 c 0,71,72
 451 594 451 594 450 594 c 2,73,-1
 518 205 l 2,74,75
 523 178 523 178 530 144 c 0,76,77
 537 116 537 116 542 105 c 1,78,79
 555 98 555 98 572 96 c 0,80,81
 598 93 598 93 667 93 c 2,82,-1
 763 93 l 2,83,84
 832 93 832 93 897 107 c 0,85,86
 960 121 960 121 993.5 143.5 c 128,-1,87
 1027 166 1027 166 1042 207 c 0,88,89
 1059 252 1059 252 1075 332 c 0,90,91
 1079 361 1079 361 1122 361 c 0,92,93
 1170 361 1170 361 1193 342 c 0,94,95
 1206 331 1206 331 1203 316 c 0,96,97
 1199 290 1199 290 1188 232 c 0,98,99
 1177 175 1177 175 1171 140 c 0,100,101
 1165 105 1165 105 1159 61 c 0,102,103
 1154 18 1154 18 1154 -12 c 0,104,105
 1154 -21 1154 -21 1148 -27 c 128,-1,106
 1142 -33 1142 -33 1133 -33 c 0,107,108
 1030 -33 1030 -33 809 -29 c 0,109,110
 589 -25 589 -25 450 -25 c 0,111,112
 401 -25 401 -25 326 -28 c 0,113,114
 250 -31 250 -31 213 -31 c 0,115,116
 202 -31 202 -31 193 -22 c 0,117,118
 177 -7 177 -7 172 24 c 0,119,120
 168 53 168 53 176 67 c 0,121,122
 181 77 181 77 194 77 c 0,123,124
 222 77 222 77 270 86 c 0,125,126
 296 91 296 91 306 96 c 1,127,128
 308 129 308 129 289 232 c 2,129,-1
 139 1086 l 2,130,131
 121 1189 121 1189 107 1222 c 1,132,133
 95 1227 95 1227 68 1232 c 0,134,135
 17 1241 17 1241 -11 1241 c 0,136,137
 -23 1241 -23 1241 -33 1251 c 0,138,139
 -46 1265 -46 1265 -52 1294 c 0,140,141
 -58 1325 -58 1325 -48 1340 c 0,142,143
 -42 1349 -42 1349 -29 1349 c 0,144,145
 177 1339 177 1339 207 1339 c 0,0,1
EndSplineSet
EndChar

StartChar: F
Encoding: 70 70 40
Width: 1070
GlyphClass: 2
Flags: W
LayerCount: 4
Fore
SplineSet
207 1339 m 0,0,1
 297 1339 297 1339 516 1346 c 0,2,3
 736 1353 736 1353 849 1353 c 0,4,5
 858 1353 858 1353 866.5 1347 c 128,-1,6
 875 1341 875 1341 878 1331 c 0,7,8
 896 1274 896 1274 934 1181 c 0,9,10
 973 1086 973 1086 983 1061 c 0,11,12
 988 1048 988 1048 980 1038 c 0,13,14
 966 1021 966 1021 930 1021 c 0,15,16
 886 1021 886 1021 871 1054 c 0,17,18
 825 1155 825 1155 771 1189 c 0,19,20
 716 1223 716 1223 634 1223 c 2,21,-1
 462 1223 l 2,22,23
 373 1223 373 1223 348 1213 c 1,24,25
 346 1180 346 1180 363 1084 c 2,26,-1
 427 725 l 1,27,28
 451 723 451 723 488 723 c 2,29,-1
 594 723 l 2,30,31
 644 723 644 723 671 724 c 0,32,33
 697 725 697 725 718 729 c 0,34,35
 736 733 736 733 743 738 c 0,36,37
 750 743 750 743 755.5 754.5 c 128,-1,38
 761 766 761 766 762 782 c 0,39,40
 764 802 764 802 767 830 c 0,41,42
 767 841 767 841 768 849 c 0,43,44
 771 881 771 881 816 881 c 0,45,46
 850 881 850 881 871 864 c 0,47,48
 880 857 880 857 881 846 c 2,49,-1
 948 468 l 2,50,51
 950 458 950 458 944 450 c 0,52,53
 931 435 931 435 897 435 c 0,54,55
 854 435 854 435 836 467 c 0,56,57
 835 468 835 468 835 470 c 0,58,59
 801 547 801 547 788 566 c 0,60,61
 779 580 779 580 769 587 c 0,62,63
 759 591 759 591 703.5 595 c 128,-1,64
 648 599 648 599 568 599 c 0,65,66
 480 599 480 599 450 592 c 1,67,-1
 514 232 l 2,68,69
 532 130 532 130 545 96 c 1,70,71
 559 90 559 90 593 86 c 0,72,73
 653 77 653 77 684 77 c 0,74,75
 696 77 696 77 706 67 c 0,76,77
 719 53 719 53 725 24 c 0,78,79
 731 -7 731 -7 720 -22 c 0,80,81
 714 -31 714 -31 702 -31 c 0,82,83
 496 -21 496 -21 447 -21 c 0,84,85
 399 -21 399 -21 326 -26 c 0,86,87
 251 -31 251 -31 213 -31 c 0,88,89
 202 -31 202 -31 193 -22 c 0,90,91
 177 -7 177 -7 172 24 c 0,92,93
 168 53 168 53 176 67 c 0,94,95
 181 77 181 77 194 77 c 0,96,97
 222 77 222 77 270 86 c 0,98,99
 296 91 296 91 306 96 c 1,100,101
 308 129 308 129 290 232 c 2,102,-1
 139 1086 l 2,103,104
 121 1189 121 1189 107 1222 c 1,105,106
 95 1227 95 1227 68 1232 c 0,107,108
 17 1241 17 1241 -11 1241 c 0,109,110
 -23 1241 -23 1241 -33 1251 c 0,111,112
 -46 1265 -46 1265 -52 1294 c 0,113,114
 -58 1325 -58 1325 -48 1340 c 0,115,116
 -42 1349 -42 1349 -29 1349 c 0,117,118
 177 1339 177 1339 207 1339 c 0,0,1
EndSplineSet
EndChar

StartChar: G
Encoding: 71 71 41
Width: 1440
GlyphClass: 2
Flags: W
LayerCount: 4
Fore
SplineSet
1100 350 m 2,0,1
 1082 453 1082 453 1068 486 c 1,2,3
 1056 491 1056 491 1030 496 c 0,4,5
 980 505 980 505 952 505 c 0,6,7
 940 505 940 505 930 515 c 0,8,9
 917 529 917 529 911 558 c 0,10,11
 905 589 905 589 915 604 c 0,12,13
 921 613 921 613 934 613 c 0,14,15
 1140 603 1140 603 1168 603 c 0,16,17
 1186 603 1186 603 1389 613 c 0,18,19
 1401 614 1401 614 1411 604 c 0,20,21
 1427 589 1427 589 1432 558 c 0,22,23
 1436 529 1436 529 1428 515 c 0,24,25
 1423 505 1423 505 1410 505 c 0,26,27
 1383 505 1383 505 1338 496 c 0,28,29
 1315 492 1315 492 1306 487 c 1,30,31
 1304 454 1304 454 1322 350 c 2,32,-1
 1347 208 l 2,33,34
 1350 189 1350 189 1362 169 c 0,35,36
 1379 140 1379 140 1381 128 c 0,37,38
 1385 108 1385 108 1372 94 c 0,39,40
 1364 85 1364 85 1338 70 c 0,41,42
 1283 38 1283 38 1245 20 c 0,43,44
 1205 1 1205 1 1108 -18 c 0,45,46
 1012 -37 1012 -37 887 -37 c 0,47,48
 737 -37 737 -37 596.5 18 c 128,-1,49
 456 73 456 73 350 166 c 0,50,51
 244 258 244 258 171 382.5 c 128,-1,52
 98 507 98 507 74 644 c 0,53,54
 49 788 49 788 78.5 919 c 128,-1,55
 108 1050 108 1050 182 1147 c 0,56,57
 256 1244 256 1244 378 1301.5 c 128,-1,58
 500 1359 500 1359 649 1359 c 0,59,60
 882 1359 882 1359 1086 1316 c 0,61,62
 1103 1312 1103 1312 1109 1296 c 0,63,64
 1203 1022 1203 1022 1208 998 c 0,65,66
 1214 972 1214 972 1188 957 c 0,67,68
 1169 945 1169 945 1148 945 c 0,69,70
 1125 945 1125 945 1108 955 c 0,71,72
 1098 961 1098 961 1095 971 c 0,73,74
 1044 1109 1044 1109 942 1176 c 128,-1,75
 840 1243 840 1243 679 1243 c 0,76,77
 546 1243 546 1243 453 1160 c 0,78,79
 359 1076 359 1076 325 950 c 0,80,81
 291 823 291 823 315 686 c 0,82,83
 331 594 331 594 366 506 c 0,84,85
 401 419 401 419 455 341 c 0,86,87
 509 263 509 263 578 205 c 0,88,89
 645 148 645 148 732.5 113.5 c 128,-1,90
 820 79 820 79 917 79 c 0,91,92
 1025 79 1025 79 1136 140 c 0,93,94
 1136 143 1136 143 1135 148 c 2,95,-1
 1100 350 l 2,0,1
EndSplineSet
EndChar

StartChar: H
Encoding: 72 72 42
Width: 1452
GlyphClass: 2
Flags: W
LayerCount: 4
Fore
SplineSet
207 1339 m 0,0,1
 235 1339 235 1339 438 1349 c 0,2,3
 450 1350 450 1350 460 1340 c 0,4,5
 476 1325 476 1325 481 1291 c 0,6,7
 486 1259 486 1259 478 1245 c 0,8,9
 472 1235 472 1235 459 1235 c 0,10,11
 431 1235 431 1235 383 1226 c 0,12,13
 357 1221 357 1221 347 1216 c 1,14,15
 345 1183 345 1183 364 1080 c 2,16,-1
 422 749 l 1,17,18
 697 743 697 743 716 743 c 0,19,20
 750 743 750 743 1000 749 c 1,21,-1
 942 1080 l 2,22,23
 924 1183 924 1183 910 1216 c 1,24,25
 898 1221 898 1221 871 1226 c 0,26,27
 820 1235 820 1235 791 1235 c 0,28,29
 779 1235 779 1235 770 1245 c 0,30,31
 757 1259 757 1259 750 1291 c 0,32,33
 743 1325 743 1325 754 1340 c 0,34,35
 760 1349 760 1349 773 1349 c 0,36,37
 979 1339 979 1339 1009 1339 c 0,38,39
 1037 1339 1037 1339 1240 1349 c 0,40,41
 1252 1350 1252 1350 1262 1340 c 0,42,43
 1278 1325 1278 1325 1283 1291 c 0,44,45
 1288 1259 1288 1259 1280 1245 c 0,46,47
 1275 1235 1275 1235 1261 1235 c 0,48,49
 1233 1235 1233 1235 1185 1226 c 0,50,51
 1159 1221 1159 1221 1149 1216 c 1,52,53
 1147 1183 1147 1183 1166 1080 c 2,54,-1
 1314 238 l 2,55,56
 1332 135 1332 135 1346 102 c 1,57,58
 1358 97 1358 97 1385 92 c 0,59,60
 1436 83 1436 83 1465 83 c 0,61,62
 1478 83 1478 83 1486 73 c 0,63,64
 1499 59 1499 59 1506 27 c 0,65,66
 1513 -7 1513 -7 1502 -22 c 0,67,68
 1496 -31 1496 -31 1483 -31 c 0,69,70
 1277 -21 1277 -21 1249 -21 c 0,71,72
 1219 -21 1219 -21 1016 -31 c 0,73,74
 1004 -32 1004 -32 994 -22 c 0,75,76
 978 -7 978 -7 973 27 c 0,77,78
 968 59 968 59 976 73 c 0,79,80
 982 83 982 83 995 83 c 0,81,82
 1023 83 1023 83 1071 92 c 0,83,84
 1097 97 1097 97 1107 102 c 1,85,86
 1109 135 1109 135 1090 238 c 2,87,-1
 1023 618 l 1,88,89
 988 619 988 619 907 622 c 0,90,91
 795 625 795 625 737 625 c 0,92,93
 505 625 505 625 445 617 c 1,94,-1
 512 238 l 2,95,96
 530 135 530 135 544 102 c 1,97,98
 556 97 556 97 583 92 c 0,99,100
 634 83 634 83 663 83 c 0,101,102
 675 83 675 83 684 73 c 0,103,104
 697 59 697 59 704 27 c 0,105,106
 711 -7 711 -7 700 -22 c 0,107,108
 694 -31 694 -31 681 -31 c 0,109,110
 475 -21 475 -21 447 -21 c 0,111,112
 417 -21 417 -21 214 -31 c 0,113,114
 202 -32 202 -32 192 -22 c 0,115,116
 176 -7 176 -7 171 27 c 0,117,118
 166 59 166 59 174 73 c 0,119,120
 179 83 179 83 193 83 c 0,121,122
 221 83 221 83 269 92 c 0,123,124
 295 97 295 97 305 102 c 1,125,126
 307 135 307 135 288 238 c 2,127,-1
 140 1080 l 2,128,129
 122 1183 122 1183 108 1216 c 1,130,131
 96 1221 96 1221 69 1226 c 0,132,133
 18 1235 18 1235 -11 1235 c 0,134,135
 -23 1235 -23 1235 -32 1245 c 0,136,137
 -45 1259 -45 1259 -52 1291 c 0,138,139
 -59 1325 -59 1325 -48 1340 c 0,140,141
 -42 1349 -42 1349 -29 1349 c 0,142,143
 177 1339 177 1339 207 1339 c 0,0,1
EndSplineSet
EndChar

StartChar: I
Encoding: 73 73 43
Width: 648
GlyphClass: 2
Flags: W
LayerCount: 4
Fore
SplineSet
207 1339 m 0,0,1
 235 1339 235 1339 438 1349 c 0,2,3
 450 1350 450 1350 460 1340 c 0,4,5
 476 1325 476 1325 480 1294 c 0,6,7
 484 1265 484 1265 477 1251 c 0,8,9
 471 1241 471 1241 458 1241 c 0,10,11
 430 1241 430 1241 382 1232 c 0,12,13
 356 1227 356 1227 346 1222 c 1,14,15
 344 1189 344 1189 363 1086 c 2,16,-1
 513 232 l 2,17,18
 531 129 531 129 545 96 c 1,19,20
 557 91 557 91 584 86 c 0,21,22
 635 77 635 77 664 77 c 0,23,24
 676 77 676 77 685 67 c 0,25,26
 698 53 698 53 705 24 c 0,27,28
 711 -7 711 -7 700 -22 c 0,29,30
 694 -31 694 -31 681 -31 c 0,31,32
 475 -21 475 -21 447 -21 c 0,33,34
 417 -21 417 -21 214 -31 c 0,35,36
 202 -32 202 -32 192 -22 c 0,37,38
 176 -7 176 -7 172 24 c 0,39,40
 168 53 168 53 175 67 c 0,41,42
 180 77 180 77 194 77 c 0,43,44
 222 77 222 77 270 86 c 0,45,46
 296 91 296 91 306 96 c 1,47,48
 308 129 308 129 289 232 c 2,49,-1
 139 1086 l 2,50,51
 121 1189 121 1189 107 1222 c 1,52,53
 95 1227 95 1227 68 1232 c 0,54,55
 17 1241 17 1241 -12 1241 c 0,56,57
 -24 1241 -24 1241 -33 1251 c 0,58,59
 -46 1265 -46 1265 -53 1294 c 0,60,61
 -59 1325 -59 1325 -48 1340 c 0,62,63
 -42 1349 -42 1349 -29 1349 c 0,64,65
 177 1339 177 1339 207 1339 c 0,0,1
EndSplineSet
EndChar

StartChar: J
Encoding: 74 74 44
Width: 626
GlyphClass: 2
Flags: W
LayerCount: 4
Fore
SplineSet
157 1339 m 0,0,1
 185 1339 185 1339 388 1349 c 0,2,3
 400 1350 400 1350 409 1340 c 0,4,5
 425 1325 425 1325 430 1294 c 0,6,7
 434 1265 434 1265 426 1251 c 0,8,9
 420 1241 420 1241 408 1241 c 0,10,11
 380 1241 380 1241 332 1232 c 0,12,13
 306 1227 306 1227 296 1222 c 1,14,15
 294 1189 294 1189 312 1086 c 2,16,-1
 461 242 l 2,17,18
 494 56 494 56 483 -83 c 0,19,20
 472 -224 472 -224 420 -310 c 0,21,22
 368 -396 368 -396 286 -438 c 0,23,24
 205 -479 205 -479 95 -479 c 0,25,26
 68 -479 68 -479 20 -467 c 0,27,28
 -30 -454 -30 -454 -53 -438 c 0,29,30
 -54 -437 -54 -437 -56 -436 c 0,31,32
 -83 -413 -83 -413 -91 -372 c 0,33,34
 -101 -314 -101 -314 -77 -276 c 0,35,36
 -52 -235 -52 -235 6 -235 c 0,37,38
 15 -235 15 -235 26 -237 c 0,39,40
 38 -239 38 -239 50 -246 c 0,41,42
 59 -250 59 -250 65 -253 c 0,43,44
 73 -257 73 -257 85 -265 c 0,45,46
 96 -272 96 -272 100 -276 c 0,47,48
 104 -279 104 -279 116 -288 c 0,49,50
 127 -297 127 -297 131 -300 c 0,51,52
 176 -335 176 -335 210 -335 c 0,53,54
 234 -335 234 -335 249 -317 c 0,55,56
 267 -296 267 -296 277 -238 c 0,57,58
 287 -178 287 -178 279 -61 c 0,59,60
 270 58 270 58 239 232 c 2,61,-1
 88 1086 l 2,62,63
 70 1189 70 1189 56 1222 c 1,64,65
 44 1227 44 1227 17 1232 c 0,66,67
 -34 1241 -34 1241 -62 1241 c 0,68,69
 -74 1241 -74 1241 -84 1251 c 0,70,71
 -97 1265 -97 1265 -103 1294 c 0,72,73
 -109 1325 -109 1325 -98 1340 c 0,74,75
 -92 1349 -92 1349 -80 1349 c 0,76,77
 127 1339 127 1339 157 1339 c 0,0,1
EndSplineSet
EndChar

StartChar: K
Encoding: 75 75 45
Width: 1314
GlyphClass: 2
Flags: W
LayerCount: 4
Fore
SplineSet
207 1339 m 0,0,1
 235 1339 235 1339 438 1349 c 0,2,3
 450 1350 450 1350 460 1340 c 0,4,5
 476 1325 476 1325 481 1291 c 0,6,7
 486 1259 486 1259 478 1245 c 0,8,9
 472 1235 472 1235 459 1235 c 0,10,11
 431 1235 431 1235 383 1226 c 0,12,13
 357 1221 357 1221 347 1216 c 1,14,15
 345 1184 345 1184 358 1110 c 2,16,-1
 425 732 l 1,17,18
 477 783 477 783 579 902 c 0,19,20
 674 1017 674 1017 711 1065 c 128,-1,21
 748 1113 748 1113 783 1171 c 0,22,23
 801 1201 801 1201 797 1218 c 0,24,25
 797 1221 797 1221 796 1222 c 0,26,27
 796 1224 796 1224 794 1224 c 0,28,29
 789 1227 789 1227 784 1229 c 128,-1,30
 779 1231 779 1231 773 1233 c 0,31,32
 765 1235 765 1235 758.5 1235.5 c 128,-1,33
 752 1236 752 1236 743 1237 c 0,34,35
 734 1237 734 1237 728 1237 c 2,36,-1
 707 1237 l 2,37,38
 692 1237 692 1237 683 1250 c 0,39,40
 672 1264 672 1264 668 1290 c 0,41,42
 664 1314 664 1314 667 1332 c 0,43,44
 670 1349 670 1349 688 1349 c 0,45,46
 712 1348 712 1348 761 1344 c 0,47,48
 810 1341 810 1341 849 1339 c 0,49,50
 887 1337 887 1337 919 1337 c 0,51,52
 970 1337 970 1337 1042 1342 c 0,53,54
 1114 1348 1114 1348 1132 1349 c 0,55,56
 1149 1350 1149 1350 1159 1334 c 0,57,58
 1168 1320 1168 1320 1173 1288 c 0,59,-1
 1174 1282.5 l 0,60,61
 1175 1277 1175 1277 1175 1274 c 128,-1,62
 1175 1271 1175 1271 1175.5 1265 c 128,-1,63
 1176 1259 1176 1259 1174.5 1255.5 c 128,-1,64
 1173 1252 1173 1252 1170.5 1247.5 c 128,-1,65
 1168 1243 1168 1243 1163.5 1240.5 c 128,-1,66
 1159 1238 1159 1238 1152 1237 c 2,67,-1
 1135 1236 l 2,68,69
 1120 1235 1120 1235 1108 1234 c 0,70,71
 1097 1233 1097 1233 1076 1228 c 0,72,73
 1057 1223 1057 1223 1041.5 1216.5 c 128,-1,74
 1026 1210 1026 1210 1008 1198 c 0,75,76
 992 1187 992 1187 981 1171 c 0,77,78
 931 1105 931 1105 879.5 1040 c 128,-1,79
 828 975 828 975 794.5 936 c 128,-1,80
 761 897 761 897 697 823 c 0,81,82
 640 758 640 758 606 719 c 1,83,84
 625 701 625 701 664 663 c 0,85,86
 716 613 716 613 733 596.5 c 128,-1,87
 750 580 750 580 796 535.5 c 128,-1,88
 842 491 842 491 861.5 472.5 c 128,-1,89
 881 454 881 454 921.5 416 c 128,-1,90
 962 378 962 378 984 358 c 128,-1,91
 1006 338 1006 338 1041 306 c 0,92,93
 1075 275 1075 275 1099.5 254 c 128,-1,94
 1124 233 1124 233 1152.5 208.5 c 128,-1,95
 1181 184 1181 184 1208 162 c 0,96,97
 1255 125 1255 125 1304 104 c 128,-1,98
 1353 83 1353 83 1426 77 c 0,99,100
 1440 76 1440 76 1448 64 c 0,101,102
 1461 46 1461 46 1462 17 c 0,103,104
 1463 -8 1463 -8 1461 -17 c 0,105,106
 1457 -31 1457 -31 1441 -31 c 0,107,108
 1216 -31 1216 -31 1144 -8 c 0,109,110
 1055 22 1055 22 983 84 c 0,111,112
 918 138 918 138 451 583 c 1,113,-1
 512 238 l 2,114,115
 530 135 530 135 544 102 c 1,116,117
 556 97 556 97 583 92 c 0,118,119
 634 83 634 83 663 83 c 0,120,121
 675 83 675 83 684 73 c 0,122,123
 697 59 697 59 704 27 c 0,124,125
 711 -7 711 -7 700 -22 c 0,126,127
 694 -31 694 -31 681 -31 c 0,128,129
 475 -21 475 -21 447 -21 c 0,130,131
 417 -21 417 -21 214 -31 c 0,132,133
 202 -32 202 -32 192 -22 c 0,134,135
 176 -7 176 -7 171 27 c 0,136,137
 166 59 166 59 174 73 c 0,138,139
 179 83 179 83 193 83 c 0,140,141
 221 83 221 83 269 92 c 0,142,143
 295 97 295 97 305 102 c 1,144,145
 307 135 307 135 288 238 c 2,146,-1
 140 1080 l 2,147,148
 122 1183 122 1183 108 1216 c 1,149,150
 96 1221 96 1221 69 1226 c 0,151,152
 18 1235 18 1235 -11 1235 c 0,153,154
 -23 1235 -23 1235 -32 1245 c 0,155,156
 -45 1259 -45 1259 -52 1291 c 0,157,158
 -59 1325 -59 1325 -48 1340 c 0,159,160
 -42 1349 -42 1349 -29 1349 c 0,161,162
 177 1339 177 1339 207 1339 c 0,0,1
EndSplineSet
EndChar

StartChar: L
Encoding: 76 76 46
Width: 1128
GlyphClass: 2
Flags: W
LayerCount: 4
Fore
SplineSet
513 232 m 2,0,1
 531 132 531 132 542 105 c 1,2,3
 555 98 555 98 571 96 c 0,4,5
 597 93 597 93 667 93 c 2,6,-1
 781 93 l 2,7,8
 841 93 841 93 902 106 c 0,9,10
 961 118 961 118 992 143 c 0,11,12
 1057 194 1057 194 1075 335 c 0,13,14
 1079 361 1079 361 1121 361 c 0,15,16
 1169 361 1169 361 1192 342 c 0,17,18
 1205 331 1205 331 1203 316 c 0,19,20
 1199 290 1199 290 1188 232 c 0,21,22
 1177 175 1177 175 1170 140 c 0,23,24
 1164 105 1164 105 1159 61 c 0,25,26
 1154 18 1154 18 1154 -12 c 0,27,28
 1154 -21 1154 -21 1148 -27 c 128,-1,29
 1142 -33 1142 -33 1133 -33 c 0,30,31
 1030 -33 1030 -33 809 -29 c 0,32,33
 589 -25 589 -25 449 -25 c 0,34,35
 400 -25 400 -25 326 -28 c 0,36,37
 250 -31 250 -31 212 -31 c 0,38,39
 201 -31 201 -31 192 -22 c 0,40,41
 176 -7 176 -7 171 24 c 0,42,43
 167 53 167 53 175 67 c 0,44,45
 180 77 180 77 193 77 c 0,46,47
 221 77 221 77 270 86 c 0,48,49
 296 91 296 91 305 96 c 1,50,51
 307 129 307 129 289 232 c 2,52,-1
 139 1086 l 2,53,54
 121 1189 121 1189 107 1222 c 1,55,56
 95 1227 95 1227 67 1232 c 0,57,58
 16 1241 16 1241 -12 1241 c 0,59,60
 -24 1241 -24 1241 -34 1251 c 0,61,62
 -47 1265 -47 1265 -53 1294 c 0,63,64
 -59 1325 -59 1325 -48 1340 c 0,65,66
 -42 1349 -42 1349 -30 1349 c 0,67,68
 176 1339 176 1339 207 1339 c 0,69,70
 235 1339 235 1339 438 1349 c 0,71,72
 450 1350 450 1350 459 1340 c 0,73,74
 475 1325 475 1325 480 1294 c 0,75,76
 484 1265 484 1265 476 1251 c 0,77,78
 470 1241 470 1241 458 1241 c 0,79,80
 430 1241 430 1241 382 1232 c 0,81,82
 356 1227 356 1227 346 1222 c 1,83,84
 344 1190 344 1190 357 1116 c 2,85,-1
 513 232 l 2,0,1
EndSplineSet
EndChar

StartChar: M
Encoding: 77 77 47
Width: 1814
GlyphClass: 2
Flags: W
LayerCount: 4
Fore
SplineSet
976 340 m 1,0,1
 1128 1057 1128 1057 1135 1093 c 2,2,-1
 1181 1333 l 2,3,4
 1184 1351 1184 1351 1203 1349 c 0,5,6
 1332 1341 1332 1341 1361 1341 c 0,7,8
 1484 1341 1484 1341 1581 1349 c 0,9,10
 1591 1350 1591 1350 1600 1343.5 c 128,-1,11
 1609 1337 1609 1337 1612 1327 c 2,12,-1
 1628 1269 l 2,13,14
 1631 1259 1631 1259 1627 1250 c 128,-1,15
 1623 1241 1623 1241 1608 1241 c 0,16,17
 1583 1241 1583 1241 1534 1230 c 0,18,19
 1503 1223 1503 1223 1492 1216 c 1,20,21
 1489 1197 1489 1197 1497 1154 c 0,22,23
 1510 1093 1510 1093 1540 939 c 0,24,25
 1571 784 1571 784 1612 577 c 128,-1,26
 1653 370 1653 370 1671 281 c 0,27,28
 1698 147 1698 147 1725 96 c 1,29,30
 1735 89 1735 89 1766 85 c 0,31,32
 1817 77 1817 77 1846 77 c 0,33,34
 1860 77 1860 77 1869 65 c 0,35,36
 1883 47 1883 47 1887 21 c 0,37,38
 1891 -3 1891 -3 1889 -15 c 0,39,40
 1886 -32 1886 -32 1867 -31 c 0,41,42
 1666 -21 1666 -21 1629 -21 c 0,43,44
 1589 -21 1589 -21 1552 -22 c 0,45,46
 1516 -23 1516 -23 1470 -27 c 0,47,48
 1423 -30 1423 -30 1391 -31 c 0,49,50
 1380 -31 1380 -31 1372 -24 c 0,51,52
 1367 -20 1367 -20 1363.5 -15.5 c 128,-1,53
 1360 -11 1360 -11 1358.5 -7 c 128,-1,54
 1357 -3 1357 -3 1355.5 1.5 c 128,-1,55
 1354 6 1354 6 1354 10 c 128,-1,56
 1354 14 1354 14 1353 18 c 0,57,58
 1348 43 1348 43 1351 61 c 0,59,60
 1354 77 1354 77 1372 77 c 0,61,62
 1394 77 1394 77 1436 83 c 0,63,64
 1472 88 1472 88 1484 95 c 1,65,66
 1489 110 1489 110 1480 158 c 0,67,68
 1478 171 1478 171 1468 214 c 0,69,70
 1458 258 1458 258 1456 274 c 0,71,72
 1338 852 1338 852 1286 1099 c 1,73,74
 1242 902 1242 902 1061 89 c 0,75,76
 1061 88 l 0,77,78
 1054 64 1054 64 1034 24 c 0,79,80
 1026 7 1026 7 1021 -1 c 128,-1,81
 1016 -9 1016 -9 1007 -17.5 c 128,-1,82
 998 -26 998 -26 987 -29 c 0,83,84
 983 -31 983 -31 977 -30 c 128,-1,85
 971 -29 971 -29 969.5 -28.5 c 128,-1,86
 968 -28 968 -28 963 -26 c 128,-1,87
 958 -24 958 -24 955 -24 c 0,88,89
 944 -20 944 -20 938 -10 c 2,90,-1
 309 1049 l 1,91,92
 332 901 332 901 358 725 c 0,93,94
 396 474 396 474 419 314 c 0,95,96
 442 158 442 158 444 150 c 0,97,98
 450 116 450 116 459 99 c 1,99,100
 471 91 471 91 508 85 c 0,101,102
 566 77 566 77 598 77 c 0,103,104
 609 77 609 77 618 68 c 0,105,106
 634 53 634 53 639 23 c 0,107,108
 644 -3 644 -3 641 -15 c 0,109,110
 638 -32 638 -32 620 -31 c 0,111,112
 592 -30 592 -30 551 -27 c 0,113,114
 511 -24 511 -24 478 -22.5 c 128,-1,115
 445 -21 445 -21 407 -21 c 0,116,117
 367 -21 367 -21 332 -22 c 0,118,119
 297 -23 297 -23 253 -27 c 0,120,121
 208 -30 208 -30 175 -31 c 0,122,123
 164 -31 164 -31 156 -24 c 0,124,125
 151 -20 151 -20 147.5 -15.5 c 128,-1,126
 144 -11 144 -11 142.5 -7 c 128,-1,127
 141 -3 141 -3 139.5 1.5 c 128,-1,128
 138 6 138 6 138 10 c 128,-1,129
 138 14 138 14 137 18 c 0,130,131
 132 43 132 43 135 61 c 0,132,133
 138 77 138 77 156 77 c 0,134,135
 187 77 187 77 241 86 c 0,136,137
 284 93 284 93 293 103 c 0,138,139
 305 127 305 127 297 189 c 0,140,141
 193 935 193 935 156 1144 c 0,142,143
 147 1194 147 1194 138 1214 c 1,144,145
 126 1221 126 1221 93 1229 c 0,146,147
 39 1241 39 1241 16 1241 c 0,148,149
 -3 1241 -3 1241 -12.5 1254 c 128,-1,150
 -22 1267 -22 1267 -21 1280 c 2,151,-1
 -21 1294 l 2,152,153
 -22 1297 -22 1297 -24 1305.5 c 128,-1,154
 -26 1314 -26 1314 -26.5 1318 c 128,-1,155
 -27 1322 -27 1322 -25.5 1329 c 128,-1,156
 -24 1336 -24 1336 -19 1342 c 0,157,158
 -12 1350 -12 1350 -1 1349 c 0,159,160
 35 1347 35 1347 70 1344 c 0,161,162
 106 1342 106 1342 136 1340 c 0,163,164
 165 1339 165 1339 205 1339 c 0,165,166
 256 1339 256 1339 363 1349 c 0,167,168
 372 1350 372 1350 380 1345 c 128,-1,169
 388 1340 388 1340 392 1332 c 0,170,171
 418 1279 418 1279 522 1104 c 0,172,173
 627 928 627 928 771 685 c 0,174,175
 911 451 911 451 991 312 c 2,176,-1
 976 340 l 1,0,1
EndSplineSet
EndChar

StartChar: N
Encoding: 78 78 48
Width: 1552
GlyphClass: 2
Flags: W
LayerCount: 4
Fore
SplineSet
165 1345 m 0,0,1
 260 1345 260 1345 315 1349 c 0,2,3
 330 1350 330 1350 340 1337 c 0,4,5
 403 1260 403 1260 778 884 c 0,6,7
 1090 571 1090 571 1241 408 c 1,8,-1
 1121 1090 l 2,9,10
 1110 1151 1110 1151 1103 1176 c 0,11,12
 1097 1197 1097 1197 1084 1214 c 1,13,14
 1072 1222 1072 1222 1030 1231 c 0,15,16
 973 1243 973 1243 947 1243 c 0,17,18
 934 1243 934 1243 925 1254 c 0,19,20
 911 1270 911 1270 905 1297 c 0,21,22
 900 1323 900 1323 904 1337 c 0,23,24
 909 1352 909 1352 925 1351 c 0,25,26
 1126 1341 1126 1341 1156 1341 c 0,27,28
 1196 1341 1196 1341 1227 1342 c 0,29,30
 1258 1343 1258 1343 1295 1347 c 0,31,32
 1333 1350 1333 1350 1367 1351 c 0,33,34
 1382 1351 1382 1351 1392 1339 c 0,35,36
 1420 1303 1420 1303 1407 1258 c 0,37,38
 1403 1243 1403 1243 1387 1243 c 0,39,40
 1361 1243 1361 1243 1307 1231 c 0,41,42
 1267 1223 1267 1223 1257 1215 c 1,43,44
 1250 1198 1250 1198 1251 1177 c 0,45,46
 1252 1152 1252 1152 1263 1092 c 2,47,-1
 1406 278 l 2,48,49
 1436 106 1436 106 1459 3 c 0,50,51
 1460 0 1460 0 1459 -2 c 0,52,53
 1459 -35 1459 -35 1415 -35 c 0,54,55
 1398 -35 1398 -35 1369 -21 c 0,56,57
 1342 -8 1342 -8 1315 21 c 2,58,-1
 303 1066 l 1,59,-1
 451 230 l 2,60,61
 462 169 462 169 469 144 c 0,62,63
 475 123 475 123 488 106 c 1,64,65
 500 98 500 98 541 89 c 0,66,67
 597 77 597 77 623 77 c 0,68,69
 636 77 636 77 645 66 c 0,70,71
 659 50 659 50 665 23 c 0,72,73
 670 -3 670 -3 666 -17 c 0,74,75
 661 -32 661 -32 645 -31 c 0,76,77
 444 -21 444 -21 416 -21 c 0,78,79
 376 -21 376 -21 345 -22 c 0,80,81
 314 -23 314 -23 277 -27 c 0,82,83
 239 -30 239 -30 205 -31 c 0,84,85
 190 -31 190 -31 180 -19 c 0,86,87
 152 17 152 17 165 62 c 0,88,89
 169 77 169 77 185 77 c 0,90,91
 211 77 211 77 265 89 c 0,92,93
 305 97 305 97 315 105 c 1,94,95
 322 122 322 122 321 143 c 0,96,97
 320 168 320 168 309 228 c 2,98,-1
 156 1096 l 2,99,100
 146 1155 146 1155 138 1181 c 0,101,102
 132 1202 132 1202 118 1219 c 1,103,104
 106 1227 106 1227 63 1235 c 0,105,106
 4 1247 4 1247 -22 1247 c 0,107,108
 -38 1247 -38 1247 -47 1262 c 0,109,110
 -75 1307 -75 1307 -60 1343 c 0,111,112
 -55 1356 -55 1356 -40 1355 c 0,113,114
 -7 1354 -7 1354 61 1349 c 0,115,116
 128 1345 128 1345 165 1345 c 0,0,1
EndSplineSet
EndChar

StartChar: O
Encoding: 79 79 49
Width: 1496
GlyphClass: 2
Flags: W
LayerCount: 4
Fore
SplineSet
613 1241 m 0,0,1
 532 1241 532 1241 471 1210 c 0,2,3
 410 1179 410 1179 374 1128 c 0,4,5
 338 1076 338 1076 320 1005 c 0,6,7
 301 934 301 934 300 857 c 0,8,9
 299 780 299 780 313 700 c 0,10,11
 333 585 333 585 384.5 473.5 c 128,-1,12
 436 362 436 362 509 271 c 0,13,14
 581 182 581 182 679 127 c 0,15,16
 776 73 776 73 881 73 c 0,17,18
 962 73 962 73 1024 104 c 128,-1,19
 1086 135 1086 135 1120 187 c 0,20,21
 1156 240 1156 240 1176 311 c 0,22,23
 1196 383 1196 383 1196 459 c 0,24,25
 1196 537 1196 537 1182 618 c 0,26,27
 1162 732 1162 732 1110.5 843.5 c 128,-1,28
 1059 955 1059 955 985 1045 c 0,29,30
 913 1133 913 1133 815 1187 c 0,31,32
 718 1241 718 1241 613 1241 c 0,0,1
622 1359 m 0,33,34
 758 1359 758 1359 891 1307 c 0,35,36
 1024 1255 1024 1255 1132 1163 c 0,37,38
 1241 1071 1241 1071 1319 939 c 128,-1,39
 1397 807 1397 807 1423 656 c 0,40,41
 1448 514 1448 514 1417 384 c 0,42,43
 1386 254 1386 254 1310.5 160 c 128,-1,44
 1235 66 1235 66 1120 11 c 0,45,46
 1005 -45 1005 -45 870 -45 c 0,47,48
 734 -45 734 -45 601 8 c 0,49,50
 469 60 469 60 361.5 151.5 c 128,-1,51
 254 243 254 243 177 374.5 c 128,-1,52
 100 506 100 506 73 656 c 0,53,54
 48 799 48 799 79 929 c 0,55,56
 110 1059 110 1059 184 1153 c 128,-1,57
 258 1247 258 1247 372 1303 c 0,58,59
 487 1359 487 1359 622 1359 c 0,33,34
EndSplineSet
EndChar

StartChar: P
Encoding: 80 80 50
Width: 1096
GlyphClass: 2
Flags: W
LayerCount: 4
Fore
SplineSet
1008 958 m 0,0,1
 1042 765 1042 765 933 647 c 0,2,3
 825 531 825 531 619 531 c 0,4,5
 559 531 559 531 518 550 c 0,6,7
 516 551 516 551 515 551 c 0,8,9
 486 568 486 568 473 592 c 0,10,11
 467 604 467 604 465 616 c 0,12,13
 464 623 464 623 465 630 c 0,14,15
 467 637 467 637 471 643 c 0,16,17
 481 655 481 655 500 650 c 0,18,19
 550 637 550 637 572 637 c 0,20,21
 685 637 685 637 745 712 c 0,22,23
 805 788 805 788 780 924 c 0,24,25
 755 1067 755 1067 664 1148 c 0,26,27
 573 1229 573 1229 421 1229 c 0,28,29
 362 1229 362 1229 345 1221 c 1,30,31
 343 1192 343 1192 362 1084 c 2,32,-1
 512 232 l 2,33,34
 530 129 530 129 544 96 c 1,35,36
 556 91 556 91 583 86 c 0,37,38
 634 77 634 77 663 77 c 0,39,40
 675 77 675 77 684 67 c 0,41,42
 697 53 697 53 704 24 c 0,43,44
 710 -7 710 -7 699 -22 c 0,45,46
 693 -31 693 -31 680 -31 c 0,47,48
 474 -21 474 -21 446 -21 c 0,49,50
 416 -21 416 -21 213 -31 c 0,51,52
 201 -32 201 -32 191 -22 c 0,53,54
 175 -7 175 -7 171 24 c 0,55,56
 167 53 167 53 174 67 c 0,57,58
 179 77 179 77 193 77 c 0,59,60
 221 77 221 77 269 86 c 0,61,62
 295 91 295 91 305 96 c 1,63,64
 307 129 307 129 288 232 c 2,65,-1
 138 1086 l 2,66,67
 120 1189 120 1189 106 1222 c 1,68,69
 94 1227 94 1227 67 1232 c 0,70,71
 16 1241 16 1241 -13 1241 c 0,72,73
 -25 1241 -25 1241 -34 1251 c 0,74,75
 -47 1265 -47 1265 -54 1294 c 0,76,77
 -60 1325 -60 1325 -49 1340 c 0,78,79
 -43 1349 -43 1349 -30 1349 c 0,80,81
 176 1339 176 1339 206 1339 c 0,82,83
 240 1339 240 1339 332 1341 c 0,84,85
 425 1343 425 1343 489 1343 c 0,86,87
 603 1343 603 1343 711 1301 c 0,88,89
 820 1258 820 1258 903 1168 c 0,90,91
 987 1077 987 1077 1008 958 c 0,0,1
EndSplineSet
EndChar

StartChar: Q
Encoding: 81 81 51
Width: 1494
GlyphClass: 2
Flags: W
LayerCount: 4
Fore
SplineSet
591 1241 m 0,0,1
 510 1241 510 1241 448 1210 c 0,2,3
 387 1179 387 1179 352 1128 c 0,4,5
 316 1076 316 1076 297 1005 c 0,6,7
 278 934 278 934 278 857 c 0,8,9
 277 780 277 780 291 700 c 0,10,11
 311 585 311 585 362.5 473.5 c 128,-1,12
 414 362 414 362 487 271 c 0,13,14
 559 182 559 182 657 127 c 0,15,16
 754 73 754 73 859 73 c 0,17,18
 940 73 940 73 1001.5 104 c 128,-1,19
 1063 135 1063 135 1098 187 c 0,20,21
 1134 240 1134 240 1154 311 c 0,22,23
 1174 383 1174 383 1174 459 c 0,24,25
 1174 537 1174 537 1160 618 c 0,26,27
 1140 732 1140 732 1088 843.5 c 128,-1,28
 1036 955 1036 955 963 1045 c 0,29,30
 891 1133 891 1133 793 1187 c 0,31,32
 696 1241 696 1241 591 1241 c 0,0,1
600 1359 m 0,33,34
 736 1359 736 1359 869 1307 c 0,35,36
 1002 1255 1002 1255 1110 1163 c 0,37,38
 1219 1071 1219 1071 1296.5 939 c 128,-1,39
 1374 807 1374 807 1401 656 c 0,40,41
 1442 422 1442 422 1339 236 c 0,42,43
 1250 76 1250 76 1088 4 c 1,44,45
 1124 -14 1124 -14 1163 -35 c 0,46,47
 1233 -73 1233 -73 1270 -91 c 0,48,49
 1304 -108 1304 -108 1361 -122.5 c 128,-1,50
 1418 -137 1418 -137 1488 -137 c 0,51,52
 1584 -137 1584 -137 1621 -126 c 0,53,54
 1624 -125 1624 -125 1628 -125 c 0,55,56
 1669 -125 1669 -125 1689 -150 c 0,57,58
 1690 -151 1690 -151 1691 -153 c 0,59,60
 1697 -162 1697 -162 1699 -170 c 0,61,62
 1702 -185 1702 -185 1689 -192 c 0,63,64
 1600 -244 1600 -244 1527 -270 c 0,65,66
 1452 -297 1452 -297 1364 -297 c 0,67,68
 1300 -297 1300 -297 1230 -274 c 0,69,70
 1162 -252 1162 -252 1096 -217 c 0,71,72
 1032 -183 1032 -183 967 -146 c 0,73,74
 904 -111 904 -111 826 -76 c 0,75,76
 749 -42 749 -42 678 -24 c 0,77,78
 446 32 446 32 271 217.5 c 128,-1,79
 96 403 96 403 51 656 c 0,80,81
 26 799 26 799 57 929 c 0,82,83
 88 1059 88 1059 162 1153 c 128,-1,84
 236 1247 236 1247 350 1303 c 0,85,86
 465 1359 465 1359 600 1359 c 0,33,34
EndSplineSet
EndChar

StartChar: R
Encoding: 82 82 52
Width: 1242
GlyphClass: 2
Flags: W
LayerCount: 4
Fore
SplineSet
489 1343 m 0,0,1
 563 1343 563 1343 641.5 1319.5 c 128,-1,2
 720 1296 720 1296 791 1252 c 0,3,4
 864 1207 864 1207 918 1134 c 0,5,6
 972 1061 972 1061 987 972 c 0,7,8
 1007 860 1007 860 935 757 c 0,9,10
 874 670 874 670 786 629 c 1,11,12
 946 426 946 426 1170 187 c 0,13,14
 1221 132 1221 132 1271.5 107.5 c 128,-1,15
 1322 83 1322 83 1398 77 c 0,16,17
 1412 76 1412 76 1420 64 c 0,18,19
 1433 46 1433 46 1434 17 c 0,20,21
 1435 -8 1435 -8 1433 -17 c 0,22,23
 1429 -31 1429 -31 1413 -31 c 0,24,25
 1214 -31 1214 -31 1136 -6 c 0,26,27
 1063 19 1063 19 1019 53 c 0,28,29
 998 69 998 69 977 91 c 0,30,31
 944 127 944 127 815 279 c 0,32,33
 686 431 686 431 574 566 c 0,34,35
 563 579 563 579 533 579 c 2,36,-1
 452 579 l 1,37,-1
 513 232 l 2,38,39
 531 129 531 129 545 96 c 1,40,41
 557 91 557 91 584 86 c 0,42,43
 635 77 635 77 664 77 c 0,44,45
 676 77 676 77 685 67 c 0,46,47
 698 53 698 53 705 24 c 0,48,49
 711 -7 711 -7 700 -22 c 0,50,51
 694 -31 694 -31 681 -31 c 0,52,53
 475 -21 475 -21 447 -21 c 0,54,55
 417 -21 417 -21 214 -31 c 0,56,57
 202 -32 202 -32 192 -22 c 0,58,59
 176 -7 176 -7 172 24 c 0,60,61
 168 53 168 53 175 67 c 0,62,63
 180 77 180 77 194 77 c 0,64,65
 222 77 222 77 270 86 c 0,66,67
 295 91 295 91 306 96 c 1,68,69
 307 125 307 125 289 232 c 2,70,-1
 138 1086 l 2,71,72
 120 1189 120 1189 106 1222 c 1,73,74
 94 1227 94 1227 67 1232 c 0,75,76
 16 1241 16 1241 -13 1241 c 0,77,78
 -25 1241 -25 1241 -34 1251 c 0,79,80
 -47 1265 -47 1265 -54 1294 c 0,81,82
 -60 1325 -60 1325 -49 1340 c 0,83,84
 -43 1349 -43 1349 -30 1349 c 0,85,86
 176 1339 176 1339 206 1339 c 0,87,88
 240 1339 240 1339 332 1341 c 0,89,90
 425 1343 425 1343 489 1343 c 0,0,1
753 954 m 0,91,92
 730 1083 730 1083 649 1157 c 0,93,94
 569 1229 569 1229 421 1229 c 0,95,96
 362 1229 362 1229 345 1221 c 1,97,98
 343 1192 343 1192 362 1084 c 2,99,-1
 432 691 l 1,100,-1
 514 691 l 2,101,102
 628 691 628 691 701 765 c 0,103,104
 773 838 773 838 753 954 c 0,91,92
EndSplineSet
EndChar

StartChar: S
Encoding: 83 83 53
Width: 1004
GlyphClass: 2
Flags: W
LayerCount: 4
Fore
SplineSet
398 1357 m 0,0,1
 444 1357 444 1357 485 1352 c 128,-1,2
 526 1347 526 1347 554 1340 c 0,3,4
 580 1333 580 1333 629 1321 c 0,5,6
 678 1309 678 1309 716 1300 c 0,7,8
 734 1296 734 1296 739 1280 c 0,9,10
 768 1192 768 1192 817 994 c 0,11,12
 825 967 825 967 795 954 c 0,13,14
 777 945 777 945 759 945 c 0,15,16
 735 945 735 945 717 960 c 0,17,18
 710 966 710 966 707 975 c 0,19,20
 698 1003 698 1003 680 1038 c 0,21,22
 662 1072 662 1072 632 1108.5 c 128,-1,23
 602 1145 602 1145 567 1175 c 0,24,25
 534 1203 534 1203 491 1221 c 0,26,27
 449 1239 449 1239 405 1239 c 0,28,29
 352 1239 352 1239 316 1221 c 0,30,31
 281 1203 281 1203 266 1175 c 0,32,33
 250 1144 250 1144 245.5 1110.5 c 128,-1,34
 241 1077 241 1077 247 1042 c 0,35,36
 252 1016 252 1016 262 992 c 0,37,38
 273 968 273 968 285 949 c 0,39,40
 297 931 297 931 318 912 c 0,41,42
 340 891 340 891 358 877 c 0,43,44
 375 863 375 863 405 845 c 0,45,46
 436 826 436 826 455.5 814.5 c 128,-1,47
 475 803 475 803 511 784 c 128,-1,48
 547 765 547 765 566 753 c 0,49,50
 584 743 584 743 624 721 c 0,51,52
 664 699 664 699 689 685 c 0,53,54
 715 671 715 671 754 646 c 0,55,56
 794 621 794 621 820.5 600.5 c 128,-1,57
 847 580 847 580 879 550 c 0,58,59
 912 519 912 519 934 490 c 128,-1,60
 956 461 956 461 973 423 c 0,61,62
 991 385 991 385 998 346 c 0,63,64
 1013 260 1013 260 988 185 c 0,65,66
 964 111 964 111 910 61 c 0,67,68
 857 11 857 11 782.5 -17 c 128,-1,69
 708 -45 708 -45 624 -45 c 0,70,71
 575 -45 575 -45 518 -38 c 0,72,73
 461 -31 461 -31 423 -24 c 0,74,75
 385 -17 385 -17 327 -3 c 0,76,77
 270 10 270 10 249 13 c 0,78,79
 232 16 232 16 225 33 c 0,80,81
 195 113 195 113 164 217 c 0,82,83
 132 322 132 322 127 348 c 0,84,85
 125 358 125 358 132 366 c 0,86,87
 158 397 158 397 196 397 c 0,88,89
 213 397 213 397 227 388 c 0,90,91
 242 378 242 378 249 358 c 0,92,93
 259 332 259 332 275.5 301 c 128,-1,94
 292 270 292 270 325 226 c 0,95,96
 357 183 357 183 394 151 c 0,97,98
 431 119 431 119 488 96 c 0,99,100
 544 73 544 73 607 73 c 0,101,102
 699 73 699 73 750 132 c 0,103,104
 801 190 801 190 783 292 c 0,105,106
 778 319 778 319 768.5 343.5 c 128,-1,107
 759 368 759 368 748 385 c 0,108,109
 737 402 737 402 719 419 c 0,110,111
 699 437 699 437 683 449 c 128,-1,112
 667 461 667 461 641 477 c 0,113,114
 613 493 613 493 593 503 c 0,115,116
 573 513 573 513 539 530 c 0,117,118
 504 547 504 547 483 558 c 0,119,120
 437 583 437 583 424 590 c 0,121,122
 411 597 411 597 366 622 c 0,123,124
 320 648 320 648 302 660 c 0,125,126
 286 671 286 671 248 697 c 0,127,128
 207 725 207 725 188 745 c 0,129,130
 171 763 171 763 144 791 c 0,131,132
 114 822 114 822 98 850 c 0,133,134
 83 876 83 876 69 909 c 0,135,136
 54 944 54 944 48 980 c 0,137,138
 29 1090 29 1090 74 1178 c 0,139,140
 119 1265 119 1265 206 1312 c 0,141,142
 291 1357 291 1357 398 1357 c 0,0,1
EndSplineSet
EndChar

StartChar: T
Encoding: 84 84 54
Width: 1252
GlyphClass: 2
Flags: W
LayerCount: 4
Fore
SplineSet
898 1347 m 2,0,1
 918 1347 918 1347 952 1356 c 0,2,3
 987 1365 987 1365 1001 1374 c 0,4,5
 1033 1392 1033 1392 1062 1378 c 0,6,7
 1075 1372 1075 1372 1079 1359 c 0,8,9
 1140 1151 1140 1151 1190 1017 c 0,10,11
 1195 1004 1195 1004 1188 994 c 0,12,13
 1168 970 1168 970 1135 973 c 0,14,15
 1102 974 1102 974 1084 994 c 0,16,17
 1080 998 1080 998 1078 1003 c 0,18,19
 1038 1109 1038 1109 982 1171 c 0,20,21
 931 1227 931 1227 871 1227 c 2,22,-1
 642 1227 l 1,23,-1
 817 232 l 2,24,25
 835 129 835 129 849 96 c 1,26,27
 861 91 861 91 888 86 c 0,28,29
 939 77 939 77 968 77 c 0,30,31
 980 77 980 77 989 67 c 0,32,33
 1002 53 1002 53 1009 24 c 0,34,35
 1015 -7 1015 -7 1004 -22 c 0,36,37
 998 -31 998 -31 986 -31 c 0,38,39
 780 -21 780 -21 751 -21 c 0,40,41
 721 -21 721 -21 518 -31 c 0,42,43
 506 -32 506 -32 496 -22 c 0,44,45
 480 -7 480 -7 476 24 c 0,46,47
 472 53 472 53 479 67 c 0,48,49
 485 77 485 77 498 77 c 0,50,51
 526 77 526 77 574 86 c 0,52,53
 600 91 600 91 610 96 c 1,54,55
 612 129 612 129 593 232 c 2,56,-1
 418 1227 l 1,57,-1
 185 1227 l 2,58,59
 126 1227 126 1227 94 1171 c 0,60,61
 59 1109 59 1109 57 1003 c 0,62,63
 57 998 57 998 55 994 c 0,64,65
 44 974 44 974 11 973 c 0,66,67
 -22 971 -22 971 -50 994 c 0,68,69
 -61 1004 -61 1004 -61 1017 c 0,70,71
 -57 1151 -57 1151 -69 1359 c 0,72,73
 -70 1373 -70 1373 -58 1379 c 0,74,75
 -33 1392 -33 1392 11 1372 c 0,76,77
 29 1363 29 1363 63 1355 c 0,78,79
 96 1347 96 1347 116 1347 c 2,80,-1
 898 1347 l 2,0,1
EndSplineSet
EndChar

StartChar: U
Encoding: 85 85 55
Width: 1446
GlyphClass: 2
Flags: W
LayerCount: 4
Fore
SplineSet
175 1339 m 0,0,1
 203 1339 203 1339 406 1349 c 0,2,3
 418 1350 418 1350 428 1340 c 0,4,5
 444 1325 444 1325 448 1294 c 0,6,7
 452 1265 452 1265 445 1251 c 0,8,9
 439 1241 439 1241 426 1241 c 0,10,11
 398 1241 398 1241 350 1232 c 0,12,13
 324 1227 324 1227 314 1222 c 1,14,15
 312 1189 312 1189 331 1086 c 2,16,-1
 418 592 l 2,17,18
 460 355 460 355 572 240 c 0,19,20
 677 133 677 133 846 133 c 0,21,22
 1026 133 1026 133 1097.5 234.5 c 128,-1,23
 1169 336 1169 336 1136 548 c 2,24,-1
 1040 1090 l 2,25,26
 1029 1151 1029 1151 1022 1176 c 0,27,28
 1016 1197 1016 1197 1002 1214 c 1,29,30
 990 1222 990 1222 953 1231 c 0,31,32
 900 1243 900 1243 874 1243 c 0,33,34
 861 1243 861 1243 852 1254 c 0,35,36
 838 1270 838 1270 832 1297 c 0,37,38
 827 1323 827 1323 831 1337 c 0,39,40
 836 1352 836 1352 852 1351 c 0,41,42
 1053 1341 1053 1341 1075 1341 c 0,43,44
 1115 1341 1115 1341 1146 1342 c 0,45,46
 1177 1343 1177 1343 1214 1347 c 0,47,48
 1252 1350 1252 1350 1286 1351 c 0,49,50
 1301 1351 1301 1351 1311 1339 c 0,51,52
 1339 1303 1339 1303 1326 1258 c 0,53,54
 1322 1243 1322 1243 1306 1243 c 0,55,56
 1280 1243 1280 1243 1225 1231 c 0,57,58
 1185 1223 1185 1223 1176 1215 c 1,59,60
 1169 1198 1169 1198 1170 1177 c 0,61,62
 1171 1152 1171 1152 1182 1092 c 2,63,-1
 1277 552 l 2,64,65
 1330 254 1330 254 1209.5 110.5 c 128,-1,66
 1089 -33 1089 -33 833 -33 c 0,67,68
 604 -33 604 -33 434 106 c 0,69,70
 253 252 253 252 210 502 c 2,71,-1
 107 1086 l 2,72,73
 89 1189 89 1189 75 1222 c 1,74,75
 63 1227 63 1227 36 1232 c 0,76,77
 -15 1241 -15 1241 -44 1241 c 0,78,79
 -56 1241 -56 1241 -65 1251 c 0,80,81
 -78 1265 -78 1265 -85 1294 c 0,82,83
 -91 1325 -91 1325 -80 1340 c 0,84,85
 -74 1349 -74 1349 -61 1349 c 0,86,87
 145 1339 145 1339 175 1339 c 0,0,1
EndSplineSet
EndChar

StartChar: V
Encoding: 86 86 56
Width: 1276
GlyphClass: 2
Flags: W
LayerCount: 4
Fore
SplineSet
99 1339 m 0,0,1
 146 1339 146 1339 344 1349 c 0,2,3
 363 1350 363 1350 372 1332 c 0,4,5
 379 1319 379 1319 383 1290 c 0,6,7
 384.5 1284.5 l 0,8,9
 386 1279 386 1279 386.5 1275 c 128,-1,10
 387 1271 387 1271 386.5 1265 c 128,-1,11
 386 1259 386 1259 384 1254.5 c 128,-1,12
 382 1250 382 1250 377 1246.5 c 128,-1,13
 372 1243 372 1243 365 1241 c 0,14,15
 363 1241 363 1241 361 1241 c 0,16,17
 354 1241 354 1241 339 1239 c 128,-1,18
 324 1237 324 1237 304 1230 c 0,19,20
 288 1225 288 1225 278 1215 c 0,21,22
 271 1208 271 1208 273 1200 c 0,23,24
 279 1163 279 1163 329 1073 c 0,25,26
 579 612 579 612 737 325 c 1,27,28
 745 358 745 358 756 409 c 0,29,30
 786 536 786 536 829 725 c 128,-1,31
 872 914 872 914 902 1055 c 0,32,33
 921 1143 921 1143 913 1186 c 0,34,35
 911 1198 911 1198 900 1208 c 0,36,37
 886 1220 886 1220 866 1226 c 0,38,39
 842 1233 842 1233 824 1236 c 0,40,41
 807 1239 807 1239 797 1239 c 0,42,43
 792 1239 792 1239 787 1241 c 128,-1,44
 782 1243 782 1243 778 1246 c 128,-1,45
 774 1249 774 1249 771 1251.5 c 128,-1,46
 768 1254 768 1254 765.5 1258 c 128,-1,47
 763 1262 763 1262 762 1264.5 c 128,-1,48
 761 1267 761 1267 759.5 1272 c 128,-1,49
 758 1277 758 1277 757.5 1279 c 128,-1,50
 757 1281 757 1281 756.5 1285.5 c 0,51,-1
 756 1290 l 0,52,53
 750 1323 750 1323 761 1338 c 0,54,55
 767 1347 767 1347 779 1347 c 0,56,57
 928 1339 928 1339 987 1339 c 0,58,59
 1027 1339 1027 1339 1056 1340.5 c 128,-1,60
 1085 1342 1085 1342 1118 1345 c 0,61,62
 1152 1348 1152 1348 1181 1349 c 0,63,64
 1197 1350 1197 1350 1206 1335 c 0,65,66
 1215 1321 1215 1321 1219 1290 c 0,67,-1
 1220 1286 l 0,68,69
 1221 1282 1221 1282 1221.5 1278 c 128,-1,70
 1222 1274 1222 1274 1222.5 1269 c 128,-1,71
 1223 1264 1223 1264 1222 1259 c 128,-1,72
 1221 1254 1221 1254 1218.5 1250 c 128,-1,73
 1216 1246 1216 1246 1210 1243.5 c 128,-1,74
 1204 1241 1204 1241 1197 1241 c 0,75,76
 1179 1241 1179 1241 1142 1229 c 0,77,78
 1109 1218 1109 1218 1095 1198 c 0,79,80
 1067 1157 1067 1157 1034 1003 c 0,81,82
 940 581 940 581 813 54 c 0,83,84
 804 15 804 15 783 -7 c 128,-1,85
 762 -29 762 -29 728 -29 c 0,86,87
 710 -29 710 -29 697 -12 c 0,88,89
 691 -5 691 -5 684 8 c 2,90,-1
 678 17 l 2,91,92
 677 18 677 18 677 19 c 0,93,94
 619 123 619 123 432 460 c 0,95,96
 246 797 246 797 120 1019 c 0,97,98
 51 1142 51 1142 -2 1206 c 0,99,100
 -13 1219 -13 1219 -50 1229 c 0,101,102
 -93 1241 -93 1241 -115 1241 c 0,103,104
 -134 1241 -134 1241 -143.5 1254 c 128,-1,105
 -153 1267 -153 1267 -153 1280 c 2,106,-1
 -153 1294 l 2,107,108
 -154 1297 -154 1297 -156 1305.5 c 128,-1,109
 -158 1314 -158 1314 -158.5 1318 c 128,-1,110
 -159 1322 -159 1322 -157.5 1329 c 128,-1,111
 -156 1336 -156 1336 -151 1342 c 0,112,113
 -145 1350 -145 1350 -134 1349 c 0,114,115
 -101 1348 -101 1348 -56 1345 c 0,116,117
 -12 1342 -12 1342 24 1340 c 0,118,119
 59 1339 59 1339 99 1339 c 0,0,1
EndSplineSet
EndChar

StartChar: W
Encoding: 87 87 57
Width: 1800
GlyphClass: 2
Flags: W
LayerCount: 4
Fore
SplineSet
115 1339 m 0,0,1
 153 1339 153 1339 187 1340 c 0,2,3
 220 1341 220 1341 261 1345 c 0,4,5
 302 1348 302 1348 329 1349 c 0,6,7
 348 1350 348 1350 356 1332 c 0,8,9
 363 1319 363 1319 367 1290 c 0,10,11
 368.5 1284.5 l 0,12,13
 370 1279 370 1279 370.5 1275 c 128,-1,14
 371 1271 371 1271 370.5 1265 c 128,-1,15
 370 1259 370 1259 368 1254.5 c 128,-1,16
 366 1250 366 1250 361 1246.5 c 128,-1,17
 356 1243 356 1243 349 1241 c 0,18,19
 347 1241 347 1241 345 1241 c 0,20,21
 338 1241 338 1241 323 1239 c 128,-1,22
 308 1237 308 1237 288 1230 c 0,23,24
 272 1225 272 1225 262 1215 c 0,25,26
 256 1208 256 1208 257 1200 c 0,27,28
 260 1183 260 1183 308 1077 c 0,29,30
 349 986 349 986 484 706 c 0,31,32
 582 503 582 503 639 383 c 1,33,34
 660 545 660 545 700 823 c 0,35,36
 750 1176 750 1176 761 1265 c 0,37,38
 765 1299 765 1299 790 1324 c 0,39,40
 816 1349 816 1349 843 1349 c 0,41,42
 850 1349 850 1349 856.5 1346.5 c 128,-1,43
 863 1344 863 1344 867.5 1341 c 128,-1,44
 872 1338 872 1338 877 1332 c 128,-1,45
 882 1326 882 1326 884.5 1323 c 128,-1,46
 887 1320 887 1320 891.5 1312 c 128,-1,47
 896 1304 896 1304 897 1302.5 c 128,-1,48
 898 1301 898 1301 899 1300 c 0,49,50
 1236 618 1236 618 1352 387 c 1,51,52
 1360 465 1360 465 1371 561 c 0,53,54
 1387 709 1387 709 1399 819 c 128,-1,55
 1411 929 1411 929 1421 1054 c 0,56,57
 1428 1147 1428 1147 1421 1188 c 0,58,59
 1419 1199 1419 1199 1407 1209 c 0,60,61
 1392 1222 1392 1222 1372 1228 c 0,62,63
 1348 1235 1348 1235 1329 1238 c 0,64,65
 1311 1241 1311 1241 1301 1241 c 0,66,67
 1296 1241 1296 1241 1290.5 1243 c 128,-1,68
 1285 1245 1285 1245 1281 1248 c 128,-1,69
 1277 1251 1277 1251 1274.5 1253.5 c 128,-1,70
 1272 1256 1272 1256 1269.5 1260 c 128,-1,71
 1267 1264 1267 1264 1265.5 1266.5 c 128,-1,72
 1264 1269 1264 1269 1263 1274 c 128,-1,73
 1262 1279 1262 1279 1261.5 1281 c 128,-1,74
 1261 1283 1261 1283 1260.5 1287.5 c 128,-1,75
 1260 1292 1260 1292 1259 1292 c 0,76,77
 1253 1325 1253 1325 1264 1340 c 0,78,79
 1270 1349 1270 1349 1283 1349 c 0,80,81
 1469 1339 1469 1339 1499 1339 c 0,82,83
 1539 1339 1539 1339 1566.5 1340.5 c 128,-1,84
 1594 1342 1594 1342 1625 1345 c 0,85,86
 1657 1348 1657 1348 1687 1349 c 0,87,88
 1703 1350 1703 1350 1712 1335 c 0,89,90
 1721 1321 1721 1321 1725 1290 c 0,91,-1
 1726 1286 l 0,92,93
 1727 1282 1727 1282 1727.5 1278 c 128,-1,94
 1728 1274 1728 1274 1728.5 1269 c 128,-1,95
 1729 1264 1729 1264 1728 1259 c 128,-1,96
 1727 1254 1727 1254 1724.5 1250 c 128,-1,97
 1722 1246 1722 1246 1716 1243.5 c 128,-1,98
 1710 1241 1710 1241 1703 1241 c 0,99,100
 1690 1241 1690 1241 1654.5 1227.5 c 128,-1,101
 1619 1214 1619 1214 1600 1195 c 0,102,103
 1573 1169 1573 1169 1560 1055 c 0,104,105
 1542 897 1542 897 1507.5 575.5 c 128,-1,106
 1473 254 1473 254 1449 57 c 0,107,108
 1446 24 1446 24 1420 -2 c 0,109,110
 1393 -29 1393 -29 1364 -29 c 0,111,112
 1343 -28 1343 -28 1327 -4 c 0,113,114
 1317 10 1317 10 1312 21 c 0,115,116
 1270 102 1270 102 1204 232 c 2,117,-1
 1069 496 l 2,118,119
 1003 627 1003 627 945 743 c 0,120,121
 888 857 888 857 849 934 c 1,122,123
 828 774 828 774 792 537 c 0,124,125
 748 241 748 241 725 57 c 0,126,127
 723 39 723 39 716 25 c 128,-1,128
 709 11 709 11 696 -2 c 0,129,130
 669 -29 669 -29 640 -29 c 0,131,132
 619 -28 619 -28 603 -4 c 0,133,134
 593 10 593 10 588 21 c 0,135,136
 483 234 483 234 314 584 c 128,-1,137
 145 934 145 934 85 1057 c 0,138,139
 85 1058 l 0,140,141
 82 1065 82 1065 71 1088 c 128,-1,142
 60 1111 60 1111 56 1118 c 0,143,144
 53 1124 53 1124 44 1141 c 0,145,146
 36 1157 36 1157 33 1162 c 0,147,148
 28 1169 28 1169 20 1180 c 0,149,150
 14 1189 14 1189 8 1194 c 0,151,152
 1 1200 1 1200 -7 1208 c 0,153,154
 -24 1222 -24 1222 -57 1231 c 0,155,156
 -93 1241 -93 1241 -111 1241 c 0,157,158
 -130 1241 -130 1241 -139.5 1254 c 128,-1,159
 -149 1267 -149 1267 -149 1280 c 2,160,-1
 -149 1294 l 2,161,162
 -150 1297 -150 1297 -152 1305.5 c 128,-1,163
 -154 1314 -154 1314 -154.5 1318 c 128,-1,164
 -155 1322 -155 1322 -153.5 1329 c 128,-1,165
 -152 1336 -152 1336 -147 1342 c 0,166,167
 -141 1350 -141 1350 -129 1349 c 0,168,169
 102 1339 102 1339 115 1339 c 0,0,1
EndSplineSet
EndChar

StartChar: X
Encoding: 88 88 58
Width: 1336
GlyphClass: 2
Flags: W
LayerCount: 4
Fore
SplineSet
199 1339 m 0,0,1
 254 1339 254 1339 452 1349 c 0,2,3
 469 1350 469 1350 479 1334 c 0,4,5
 488 1320 488 1320 492 1290 c 0,6,7
 493 1286 l 0,8,9
 494 1282 494 1282 494.5 1279 c 128,-1,10
 495 1276 495 1276 495 1271.5 c 128,-1,11
 495 1267 495 1267 494.5 1263 c 128,-1,12
 494 1259 494 1259 492.5 1254.5 c 128,-1,13
 491 1250 491 1250 488 1247.5 c 128,-1,14
 485 1245 485 1245 480 1243 c 128,-1,15
 475 1241 475 1241 468 1241 c 0,16,17
 451 1241 451 1241 430 1237 c 0,18,19
 410 1233 410 1233 391 1220 c 0,20,21
 379 1212 379 1212 380 1202 c 0,22,23
 383 1184 383 1184 408 1156 c 2,24,-1
 678 830 l 1,25,26
 699 867 699 867 729 917 c 0,27,28
 771 990 771 990 795 1031 c 128,-1,29
 819 1072 819 1072 845 1119 c 0,30,31
 870 1166 870 1166 883 1194 c 0,32,33
 887 1202 887 1202 884 1212 c 0,34,35
 884 1213 884 1213 881 1217 c 0,36,37
 874 1223 874 1223 848 1230 c 0,38,39
 818 1239 818 1239 770 1239 c 0,40,41
 768 1239 768 1239 766 1239 c 0,42,43
 758 1240 758 1240 751.5 1244 c 128,-1,44
 745 1248 745 1248 741.5 1252 c 128,-1,45
 738 1256 738 1256 735.5 1262 c 128,-1,46
 733 1268 733 1268 732 1271.5 c 128,-1,47
 731 1275 731 1275 730 1280.5 c 128,-1,48
 729 1286 729 1286 729 1287 c 0,49,50
 722 1317 722 1317 727 1333 c 0,51,52
 732 1348 732 1348 749 1347 c 0,53,54
 883 1337 883 1337 955 1337 c 0,55,56
 1054 1337 1054 1337 1172 1347 c 0,57,58
 1186 1348 1186 1348 1196 1337 c 0,59,60
 1208 1323 1208 1323 1213 1293 c 0,61,62
 1218 1261 1218 1261 1205 1246 c 0,63,64
 1199 1239 1199 1239 1189 1239 c 0,65,66
 1176 1239 1176 1239 1153 1235 c 0,67,68
 1131 1231 1131 1231 1096 1212 c 0,69,70
 1061 1194 1061 1194 1042 1168 c 0,71,72
 903 959 903 959 765 719 c 1,73,-1
 1250 146 l 2,74,75
 1277 113 1277 113 1329 96 c 0,76,77
 1385 77 1385 77 1438 77 c 0,78,79
 1453 77 1453 77 1462 64 c 0,80,81
 1473 49 1473 49 1477 20 c 0,82,83
 1481 -7 1481 -7 1479 -15 c 0,84,85
 1475 -31 1475 -31 1458 -31 c 0,86,87
 1430 -30 1430 -30 1390 -27 c 128,-1,88
 1350 -24 1350 -24 1318 -22 c 0,89,90
 1287 -21 1287 -21 1251 -21 c 0,91,92
 1201 -21 1201 -21 1157 -22.5 c 128,-1,93
 1113 -24 1113 -24 1056 -27 c 128,-1,94
 999 -30 999 -30 961 -31 c 0,95,96
 949 -31 949 -31 940 -22 c 0,97,98
 924 -7 924 -7 918 27 c 2,99,-1
 918 31 l 2,100,101
 917 35 917 35 916.5 38 c 128,-1,102
 916 41 916 41 915.5 46 c 128,-1,103
 915 51 915 51 915.5 54.5 c 128,-1,104
 916 58 916 58 917.5 62.5 c 128,-1,105
 919 67 919 67 921.5 70 c 128,-1,106
 924 73 924 73 929.5 75 c 128,-1,107
 935 77 935 77 942 77 c 0,108,109
 965 77 965 77 1002 91 c 0,110,111
 1022 99 1022 99 1027 106 c 1,112,113
 1024 111 1024 111 1018 120 c 2,114,-1
 656 558 l 1,115,116
 590 442 590 442 519 309 c 0,117,118
 441 163 441 163 427 122 c 0,119,120
 425 107 425 107 423 100 c 0,121,122
 425 99 425 99 427 97 c 0,123,124
 438 90 438 90 470 84 c 0,125,126
 505 77 505 77 556 77 c 0,127,128
 568 77 568 77 577 67 c 0,129,130
 590 53 590 53 597 22 c 0,131,132
 597 20 597 20 599 11.5 c 128,-1,133
 601 3 601 3 601.5 0 c 128,-1,134
 602 -3 602 -3 601 -9.5 c 128,-1,135
 600 -16 600 -16 597 -21 c 0,136,137
 591 -32 591 -32 577 -31 c 0,138,139
 391 -21 391 -21 351 -21 c 0,140,141
 306 -21 306 -21 108 -31 c 0,142,143
 90 -32 90 -32 81 -15 c 0,144,145
 72 1 72 1 69 28 c 0,146,147
 67 57 67 57 74 68 c 0,148,149
 80 77 80 77 92 77 c 0,150,151
 122 77 122 77 187 97 c 0,152,153
 248 116 248 116 272 155 c 0,154,155
 324 241 324 241 372 325.5 c 128,-1,156
 420 410 420 410 476 510 c 0,157,158
 527 600 527 600 563 665 c 1,159,-1
 217 1082 l 2,160,161
 173 1136 173 1136 142 1164 c 0,162,163
 112 1191 112 1191 71 1212 c 0,164,165
 48 1224 48 1224 15.5 1232.5 c 128,-1,166
 -17 1241 -17 1241 -34 1241 c 0,167,168
 -41 1241 -41 1241 -46.5 1243 c 128,-1,169
 -52 1245 -52 1245 -55.5 1248 c 128,-1,170
 -59 1251 -59 1251 -62.5 1255.5 c 128,-1,171
 -66 1260 -66 1260 -67.5 1263.5 c 128,-1,172
 -69 1267 -69 1267 -70.5 1272 c 128,-1,173
 -72 1277 -72 1277 -72.5 1280 c 128,-1,174
 -73 1283 -73 1283 -74 1287 c 2,175,-1
 -74 1291 l 2,176,177
 -80 1325 -80 1325 -70 1340 c 0,178,179
 -64 1349 -64 1349 -52 1349 c 0,180,181
 -17 1348 -17 1348 32 1345 c 0,182,183
 80 1342 80 1342 118 1340 c 0,184,185
 155 1339 155 1339 199 1339 c 0,0,1
EndSplineSet
EndChar

StartChar: Y
Encoding: 89 89 59
Width: 1196
GlyphClass: 2
Flags: W
LayerCount: 4
Fore
SplineSet
572 232 m 2,0,-1
 519 534 l 2,1,2
 515 556 515 556 500 578 c 0,3,4
 418 691 418 691 308 840 c 0,5,6
 197 989 197 989 127 1084 c 0,7,8
 89 1135 89 1135 58 1162 c 128,-1,9
 27 1189 27 1189 -18 1212 c 0,10,11
 -41 1224 -41 1224 -73.5 1232.5 c 128,-1,12
 -106 1241 -106 1241 -123 1241 c 0,13,14
 -156 1241 -156 1241 -164 1291 c 0,15,16
 -170 1326 -170 1326 -158 1342 c 0,17,18
 -152 1350 -152 1350 -141 1349 c 0,19,20
 -106 1348 -106 1348 -57 1345 c 0,21,22
 -9 1342 -9 1342 29 1340 c 0,23,24
 67 1339 67 1339 110 1339 c 0,25,26
 165 1339 165 1339 363 1349 c 0,27,28
 380 1350 380 1350 390 1334 c 0,29,30
 399 1320 399 1320 403 1290 c 0,31,-1
 404 1286 l 0,32,33
 405 1282 405 1282 405.5 1279 c 128,-1,34
 406 1276 406 1276 406 1271.5 c 128,-1,35
 406 1267 406 1267 405.5 1263 c 128,-1,36
 405 1259 405 1259 403.5 1254.5 c 128,-1,37
 402 1250 402 1250 399 1247.5 c 128,-1,38
 396 1245 396 1245 391 1243 c 128,-1,39
 386 1241 386 1241 379 1241 c 0,40,41
 362 1241 362 1241 341 1237 c 0,42,43
 321 1233 321 1233 302 1220 c 0,44,45
 290 1212 290 1212 291 1202 c 0,46,47
 293 1188 293 1188 320 1155 c 2,48,-1
 654 713 l 1,49,50
 694 822 694 822 740 963 c 0,51,52
 794 1130 794 1130 807 1190 c 0,53,54
 809 1199 809 1199 808 1210 c 0,55,56
 808 1212 808 1212 803 1216 c 0,57,58
 796 1222 796 1222 768 1230 c 0,59,60
 736 1239 736 1239 688 1239 c 0,61,62
 680 1239 680 1239 673 1241.5 c 128,-1,63
 666 1244 666 1244 662 1248.5 c 128,-1,64
 658 1253 658 1253 655.5 1258 c 128,-1,65
 653 1263 653 1263 651.5 1268.5 c 128,-1,66
 650 1274 650 1274 649.5 1278.5 c 128,-1,67
 649 1283 649 1283 648.5 1286.5 c 0,68,69
 648 1290 l 0,70,71
 647 1293 647 1293 645 1301.5 c 128,-1,72
 643 1310 643 1310 642 1314 c 128,-1,73
 641 1318 641 1318 642 1324.5 c 128,-1,74
 643 1331 643 1331 646 1337 c 0,75,76
 652 1348 652 1348 666 1347 c 0,77,78
 852 1337 852 1337 866 1337 c 0,79,80
 912 1337 912 1337 946 1338.5 c 128,-1,81
 980 1340 980 1340 1018 1343 c 0,82,83
 1057 1346 1057 1346 1084 1347 c 0,84,85
 1103 1348 1103 1348 1111 1330 c 0,86,87
 1118 1316 1118 1316 1122 1287 c 0,88,89
 1122.5 1284.5 l 0,90,91
 1123 1282 1123 1282 1124 1279 c 128,-1,92
 1125 1276 1125 1276 1125.5 1271.5 c 128,-1,93
 1126 1267 1126 1267 1126 1262.5 c 128,-1,94
 1126 1258 1126 1258 1124.5 1253.5 c 128,-1,95
 1123 1249 1123 1249 1120 1246 c 128,-1,96
 1117 1243 1117 1243 1112 1241 c 128,-1,97
 1107 1239 1107 1239 1100 1239 c 0,98,99
 1087 1239 1087 1239 1073 1237.5 c 128,-1,100
 1059 1236 1059 1236 1030 1230 c 0,101,102
 1005 1224 1005 1224 984 1209 c 0,103,104
 964 1194 964 1194 955 1172 c 0,105,106
 913 1066 913 1066 742 590 c 0,107,108
 737 578 737 578 744 540 c 2,109,-1
 796 232 l 2,110,111
 814 129 814 129 828 96 c 1,112,113
 840 91 840 91 867 86 c 0,114,115
 918 77 918 77 947 77 c 0,116,117
 959 77 959 77 968 67 c 0,118,119
 981 53 981 53 988 24 c 0,120,121
 994 -7 994 -7 983 -22 c 0,122,123
 977 -31 977 -31 964 -31 c 0,124,125
 758 -21 758 -21 730 -21 c 0,126,127
 700 -21 700 -21 497 -31 c 0,128,129
 485 -32 485 -32 475 -22 c 0,130,131
 459 -7 459 -7 455 24 c 0,132,133
 451 53 451 53 458 67 c 0,134,135
 464 77 464 77 477 77 c 0,136,137
 505 77 505 77 553 86 c 0,138,139
 579 91 579 91 589 96 c 1,140,141
 590 129 590 129 572 232 c 2,0,-1
EndSplineSet
EndChar

StartChar: Z
Encoding: 90 90 60
Width: 1266
GlyphClass: 2
Flags: W
LayerCount: 4
Fore
SplineSet
334 1227 m 2,0,1
 244 1227 244 1227 193 1166 c 0,2,3
 140 1102 140 1102 129 983 c 0,4,5
 129 979 129 979 127 977 c 0,6,7
 118 957 118 957 88 957 c 0,8,9
 71 957 71 957 49 964 c 0,10,11
 25 971 25 971 14 980 c 0,12,13
 1 991 1 991 3 1007 c 0,14,15
 27 1132 27 1132 9 1340 c 0,16,17
 8 1350 8 1350 15 1357 c 128,-1,18
 22 1364 22 1364 34 1363 c 0,19,20
 147 1347 147 1347 197 1347 c 2,21,-1
 585 1347 l 2,22,23
 724 1347 724 1347 1000 1367 c 0,24,25
 1004 1367 1004 1367 1008 1366 c 0,26,27
 1022 1362 1022 1362 1046 1342 c 0,28,29
 1071 1319 1071 1319 1074 1298 c 0,30,31
 1075 1294 1075 1294 1075 1291 c 0,32,33
 1074 1285 1074 1285 1068 1271.5 c 128,-1,34
 1062 1258 1062 1258 1047 1227.5 c 128,-1,35
 1032 1197 1032 1197 1017 1168 c 128,-1,36
 1002 1139 1002 1139 971 1079.5 c 128,-1,37
 940 1020 940 1020 914 970 c 0,38,39
 757 663 757 663 599 360 c 2,40,-1
 463 95 l 1,41,-1
 938 95 l 2,42,43
 1044 95 1044 95 1094 158 c 0,44,45
 1102 169 1102 169 1109 180.5 c 128,-1,46
 1116 192 1116 192 1121 201.5 c 128,-1,47
 1126 211 1126 211 1131 226 c 0,48,49
 1137 242 1137 242 1140 250 c 0,50,51
 1142 257 1142 257 1147 276 c 0,52,53
 1152 295 1152 295 1152.5 299.5 c 128,-1,54
 1153 304 1153 304 1158 325 c 0,55,56
 1161 339 1161 339 1161 344 c 0,57,58
 1161 347 1161 347 1162 349 c 0,59,60
 1164 355 1164 355 1168 359 c 128,-1,61
 1172 363 1172 363 1175 365 c 128,-1,62
 1178 367 1178 367 1184 368 c 128,-1,63
 1190 369 1190 369 1193 369 c 128,-1,64
 1196 369 1196 369 1202 369 c 128,-1,65
 1208 369 1208 369 1209 369 c 0,66,67
 1249 369 1249 369 1279 344 c 0,68,69
 1292 333 1292 333 1290 319 c 0,70,71
 1284 274 1284 274 1276.5 217.5 c 128,-1,72
 1269 161 1269 161 1265.5 132.5 c 128,-1,73
 1262 104 1262 104 1258 66 c 0,74,75
 1254 29 1254 29 1252 -5 c 0,76,77
 1252 -14 1252 -14 1245.5 -19.5 c 128,-1,78
 1239 -25 1239 -25 1231 -25 c 2,79,-1
 229 -25 l 2,80,81
 204 -25 204 -25 182 -10 c 0,82,83
 169 -1 169 -1 162 11.5 c 128,-1,84
 155 24 155 24 160 42 c 2,85,-1
 774 1227 l 1,86,-1
 334 1227 l 2,0,1
EndSplineSet
EndChar

StartChar: bracketleft
Encoding: 91 91 61
Width: 518
GlyphClass: 2
Flags: W
LayerCount: 4
Fore
SplineSet
41 1461 m 0,0,1
 113 1461 113 1461 188.5 1464 c 128,-1,2
 264 1467 264 1467 303 1470 c 2,3,-1
 343 1473 l 2,4,5
 354 1474 354 1474 364 1466 c 0,6,7
 380 1453 380 1453 383 1430 c 0,8,9
 386 1411 386 1411 379.5 1396 c 128,-1,10
 373 1381 373 1381 356 1374 c 0,11,12
 323 1361 323 1361 265 1350 c 0,13,14
 208 1338 208 1338 166 1333 c 2,15,-1
 147 1330 l 1,16,-1
 411 -170 l 1,17,18
 559 -189 559 -189 636 -214 c 0,19,20
 655 -220 655 -220 667.5 -235.5 c 128,-1,21
 680 -251 680 -251 683 -270 c 0,22,23
 685 -279 685 -279 683 -287 c 0,24,25
 682 -293 682 -293 681 -297 c 128,-1,26
 680 -301 680 -301 677 -304 c 2,27,-1
 676 -306 l 2,28,29
 669 -314 669 -314 657 -313 c 0,30,31
 514 -301 514 -301 351 -301 c 0,32,33
 323 -301 323 -301 302 -280 c 0,34,35
 286 -263 286 -263 281 -248 c 0,36,37
 277 -237 277 -237 276 -230 c 2,38,-1
 -10 1390 l 2,39,40
 -11 1397 -11 1397 -11 1408 c 0,41,42
 -11 1423 -11 1423 -1 1440 c 0,43,44
 13 1461 13 1461 41 1461 c 0,0,1
EndSplineSet
Substitution2: "'smcp' Lowercase to Small Capitals lookup 12 subtable" bracketleft.sc
EndChar

StartChar: backslash
Encoding: 92 92 62
Width: 802
GlyphClass: 2
Flags: W
LayerCount: 4
Fore
SplineSet
-98 1512 m 0,0,1
 -87 1539 -87 1539 -41 1539 c 0,2,3
 -19 1539 -19 1539 8 1526 c 0,4,5
 37 1511 37 1511 48 1490 c 0,6,7
 194 1203 194 1203 336 942 c 128,-1,8
 478 681 478 681 573.5 517.5 c 128,-1,9
 669 354 669 354 745 228.5 c 128,-1,10
 821 103 821 103 858 41 c 128,-1,11
 895 -21 895 -21 898 -34 c 0,12,13
 899 -38 899 -38 898 -41 c 0,14,15
 896 -58 896 -58 876 -70 c 0,16,17
 859 -81 859 -81 835 -81 c 0,18,19
 816 -81 816 -81 794 -67.5 c 128,-1,20
 772 -54 772 -54 762 -37 c 0,21,22
 24 1280 24 1280 -96 1491 c 0,23,24
 -102 1502 -102 1502 -98 1512 c 0,0,1
EndSplineSet
Substitution2: "'smcp' Lowercase to Small Capitals lookup 12 subtable" backslash.sc
EndChar

StartChar: bracketright
Encoding: 93 93 63
Width: 520
GlyphClass: 2
Flags: W
LayerCount: 4
Fore
SplineSet
169 1461 m 0,0,1
 197 1461 197 1461 218 1440 c 0,2,3
 234 1423 234 1423 239 1408 c 0,4,5
 243 1397 243 1397 244 1390 c 2,6,-1
 530 -230 l 2,7,8
 531 -237 531 -237 531 -248 c 0,9,10
 531 -263 531 -263 521 -280 c 0,11,12
 508 -301 508 -301 479 -301 c 0,13,14
 407 -301 407 -301 331.5 -304 c 128,-1,15
 256 -307 256 -307 217 -310 c 2,16,-1
 177 -313 l 2,17,18
 166 -314 166 -314 156 -306 c 0,19,20
 140 -293 140 -293 137 -270 c 0,21,22
 134 -251 134 -251 140.5 -236 c 128,-1,23
 147 -221 147 -221 164 -214 c 0,24,25
 197 -201 197 -201 255 -190 c 0,26,27
 312 -178 312 -178 354 -173 c 2,28,-1
 373 -170 l 1,29,-1
 109 1330 l 1,30,31
 -39 1349 -39 1349 -116 1374 c 0,32,33
 -135 1380 -135 1380 -147.5 1395.5 c 128,-1,34
 -160 1411 -160 1411 -163 1430 c 0,35,36
 -165 1439 -165 1439 -163 1447 c 0,37,38
 -162 1453 -162 1453 -161 1457 c 128,-1,39
 -160 1461 -160 1461 -157 1464 c 2,40,-1
 -156 1466 l 2,41,42
 -149 1474 -149 1474 -137 1473 c 0,43,44
 6 1461 6 1461 169 1461 c 0,0,1
EndSplineSet
Substitution2: "'smcp' Lowercase to Small Capitals lookup 12 subtable" bracketright.sc
EndChar

StartChar: asciicircum
Encoding: 94 94 64
Width: 780
GlyphClass: 2
Flags: W
LayerCount: 4
Fore
SplineSet
328 1315 m 0,0,1
 362 1315 362 1315 390 1275 c 0,2,3
 438 1205 438 1205 480 1148 c 0,4,5
 522 1091 522 1091 581 1014 c 0,6,7
 641 936 641 936 675 891 c 0,8,9
 679 885 679 885 681 878 c 0,10,11
 685 853 685 853 670 836 c 0,12,13
 656 821 656 821 636 821 c 0,14,15
 625 821 625 821 616 829 c 0,16,17
 567 873 567 873 500 937 c 0,18,19
 433 1002 433 1002 390 1045 c 2,20,-1
 373 1064 l 1,21,22
 284 918 284 918 214 829 c 0,23,24
 208 821 208 821 198 821 c 0,25,26
 179 821 179 821 158 836 c 0,27,28
 135 853 135 853 131 878 c 0,29,30
 130 885 130 885 132 891 c 0,31,32
 152 941 152 941 183 1015 c 0,33,34
 214 1089 214 1089 237 1147 c 0,35,36
 260 1205 260 1205 283 1275 c 0,37,38
 296 1315 296 1315 328 1315 c 0,0,1
EndSplineSet
Substitution2: "'smcp' Lowercase to Small Capitals lookup 12 subtable" asciicircum.sc
EndChar

StartChar: underscore
Encoding: 95 95 65
Width: 1010
GlyphClass: 2
Flags: W
LayerCount: 4
Fore
SplineSet
9 -63 m 0,0,1
 9 -59 9 -59 8 -52 c 0,2,3
 7 -32 7 -32 6.5 -22 c 128,-1,4
 6 -12 6 -12 7 4.5 c 128,-1,5
 8 21 8 21 11.5 29.5 c 128,-1,6
 15 38 15 38 23 44.5 c 128,-1,7
 31 51 31 51 44 51 c 2,8,-1
 942 51 l 2,9,10
 957 51 957 51 968 39.5 c 128,-1,11
 979 28 979 28 981 16 c 0,12,13
 985 -4 985 -4 977 -81 c 0,14,15
 977 -82 977 -82 977 -83 c 0,16,17
 975 -93 975 -93 969 -100 c 0,18,19
 964 -106 964 -106 959 -108 c 0,20,21
 954 -111 954 -111 948 -111 c 2,22,-1
 56 -111 l 2,23,24
 37 -111 37 -111 24.5 -96.5 c 128,-1,25
 12 -82 12 -82 9 -66 c 0,26,27
 9 -64 9 -64 9 -63 c 0,0,1
EndSplineSet
EndChar

StartChar: a
Encoding: 97 97 67
Width: 862
GlyphClass: 2
Flags: W
LayerCount: 4
Fore
SplineSet
429 117 m 0,0,1
 472 117 472 117 524 147 c 0,2,3
 558 167 558 167 567 178 c 1,4,-1
 526 412 l 1,5,6
 407 374 407 374 382 365 c 0,7,8
 335 345 335 345 313 311 c 0,9,10
 292 278 292 278 300 232 c 128,-1,11
 308 186 308 186 346 151 c 0,12,13
 384 117 384 117 429 117 c 0,0,1
399 897 m 0,14,15
 498 897 498 897 587 808 c 0,16,17
 673 721 673 721 695 598 c 2,18,-1
 768 186 l 2,19,20
 775 145 775 145 787 131 c 128,-1,21
 799 117 799 117 817 117 c 0,22,23
 824 117 824 117 830 118 c 128,-1,24
 836 119 836 119 839 121 c 0,25,26
 843 123 843 123 848 126 c 128,-1,27
 853 129 853 129 855 130 c 0,28,29
 857 132 857 132 859 134 c 0,30,-1
 860 136 l 0,31,32
 861 138 861 138 862.5 139 c 128,-1,33
 864 140 864 140 868 141.5 c 128,-1,34
 872 143 872 143 878 143 c 0,35,36
 911 143 911 143 918 102 c 0,37,38
 923 74 923 74 914 51 c 0,39,40
 913 48 913 48 910 46 c 0,41,42
 889 23 889 23 842 -6 c 0,43,44
 792 -37 792 -37 758 -37 c 0,45,46
 705 -37 705 -37 653 12 c 0,47,48
 623 41 623 41 604 74 c 1,49,50
 575 49 575 49 525 15 c 0,51,52
 443 -41 443 -41 391 -41 c 0,53,54
 282 -41 282 -41 194 33 c 128,-1,55
 106 107 106 107 87 214 c 0,56,57
 76 279 76 279 102 330 c 0,58,59
 129 381 129 381 171 397 c 0,60,61
 202 409 202 409 284 440 c 0,62,63
 366 470 366 470 420 491 c 128,-1,64
 474 512 474 512 497 523 c 0,65,-1
 498 523 l 0,66,67
 502 525 502 525 504 527 c 0,68,69
 505 534 505 534 501 550 c 2,70,-1
 492 604 l 2,71,72
 481 666 481 666 427 719 c 0,73,74
 375 771 375 771 316 771 c 0,75,76
 294 771 294 771 280 764 c 0,77,78
 270 759 270 759 264 750 c 0,79,80
 248 725 248 725 248 668 c 0,81,82
 248 614 248 614 223 582.5 c 128,-1,83
 198 551 198 551 150 551 c 0,84,85
 107 551 107 551 75 587 c 0,86,87
 45 620 45 620 38 660 c 0,88,89
 36 671 36 671 38 691 c 0,90,91
 40 712 40 712 46 723 c 0,92,93
 47 725 47 725 48 726 c 0,94,95
 102 786 102 786 198 841 c 0,96,97
 211 848 211 848 224 855 c 0,98,99
 309 897 309 897 399 897 c 0,14,15
EndSplineSet
Substitution2: "'smcp' Lowercase to Small Capitals lookup 12 subtable" a.sc
EndChar

StartChar: b
Encoding: 98 98 68
Width: 996
GlyphClass: 2
Flags: W
LayerCount: 4
Fore
SplineSet
551 -39 m 0,0,1
 505 -39 505 -39 392 -8 c 0,2,3
 385 -6 385 -6 368 -2 c 0,4,5
 352 3 352 3 346 4 c 128,-1,6
 340 5 340 5 326 8 c 0,7,8
 314 10 314 10 308 10 c 0,9,10
 301 10 301 10 291 9 c 0,11,12
 282 8 282 8 274 5 c 0,13,14
 270 3 270 3 266 3 c 128,-1,15
 262 3 262 3 258 3.5 c 128,-1,16
 254 4 254 4 251 5.5 c 128,-1,17
 248 7 248 7 245.5 8.5 c 128,-1,18
 243 10 243 10 240 12.5 c 128,-1,19
 237 15 237 15 235.5 16.5 c 128,-1,20
 234 18 234 18 231 21 c 128,-1,21
 228 24 228 24 227.5 25.5 c 128,-1,22
 227 27 227 27 224.5 30 c 128,-1,23
 222 33 222 33 222 34 c 0,24,25
 205 57 205 57 202 72 c 0,26,27
 201 77 201 77 203 82 c 0,28,29
 216 130 216 130 200 220 c 2,30,-1
 42 1116 l 2,31,32
 29 1191 29 1191 18 1210 c 0,33,34
 16 1213 16 1213 7 1217.5 c 128,-1,35
 -2 1222 -2 1222 -27 1226.5 c 128,-1,36
 -52 1231 -52 1231 -85 1231 c 0,37,38
 -122 1231 -122 1231 -119 1263 c 0,39,40
 -119 1267 -119 1267 -118 1267 c 1,41,42
 -122 1281 -122 1281 -124 1295 c 0,43,-1
 -124.5 1298 l 0,44,45
 -125 1301 -125 1301 -125 1303 c 128,-1,46
 -125 1305 -125 1305 -125.5 1309 c 128,-1,47
 -126 1313 -126 1313 -124.5 1316 c 128,-1,48
 -123 1319 -123 1319 -121.5 1322.5 c 128,-1,49
 -120 1326 -120 1326 -116 1328.5 c 128,-1,50
 -112 1331 -112 1331 -107 1332 c 0,51,52
 -105 1332 -105 1332 -103 1333 c 0,53,54
 29 1347 29 1347 159 1411 c 0,55,56
 164 1413 164 1413 169 1413 c 0,57,58
 189 1413 189 1413 208 1392 c 0,59,60
 223 1375 223 1375 226 1356 c 0,61,62
 227 1352 227 1352 226 1348 c 0,63,64
 216 1288 216 1288 235 1182 c 2,65,-1
 301 807 l 1,66,67
 335 831 335 831 384 859 c 0,68,69
 458 901 458 901 513 901 c 0,70,71
 605 901 605 901 690 860 c 0,72,73
 774 819 774 819 833 754 c 0,74,75
 891 690 891 690 929 615 c 0,76,77
 968 540 968 540 981 466 c 0,78,79
 999 364 999 364 976 271 c 128,-1,80
 953 178 953 178 896 110 c 0,81,82
 868 76 868 76 831.5 49 c 128,-1,83
 795 22 795 22 750 1 c 0,84,85
 660 -39 660 -39 551 -39 c 0,0,1
447 733 m 0,86,87
 416 733 416 733 375 716 c 0,88,89
 335 699 335 699 325 686 c 0,90,91
 323 683 323 683 323 682 c 2,92,-1
 409 196 l 2,93,94
 417 148 417 148 470 115 c 0,95,96
 528 79 528 79 590 79 c 0,97,98
 651 79 651 79 699 123 c 0,99,100
 748 169 748 169 769 241 c 128,-1,101
 790 313 790 313 777 388 c 0,102,103
 748 552 748 552 658 644 c 0,104,105
 570 733 570 733 447 733 c 0,86,87
EndSplineSet
Substitution2: "'smcp' Lowercase to Small Capitals lookup 12 subtable" b.sc
EndChar

StartChar: c
Encoding: 99 99 69
Width: 846
GlyphClass: 2
Flags: W
LayerCount: 4
Fore
SplineSet
729 772 m 0,0,1
 739 713 739 713 714 682 c 0,2,3
 689 651 689 651 649 651 c 0,4,5
 622 651 622 651 592 668 c 0,6,7
 568 682 568 682 540 704 c 0,8,9
 516 723 516 723 506 729 c 0,10,11
 471 750 471 750 451 757 c 0,12,13
 432 763 432 763 399 763 c 0,14,15
 326 763 326 763 279 681 c 0,16,17
 230 595 230 595 255 454 c 0,18,19
 283 297 283 297 379 219 c 0,20,21
 476 141 476 141 609 141 c 0,22,23
 674 141 674 141 717 170 c 0,24,25
 763 201 763 201 786 234 c 0,26,27
 792 243 792 243 803 243 c 0,28,29
 809 243 809 243 814 241.5 c 128,-1,30
 819 240 819 240 820.5 238.5 c 128,-1,31
 822 237 822 237 824 235.5 c 128,-1,32
 826 234 826 234 826 233 c 0,33,34
 835 226 835 226 843 215 c 0,35,36
 851 203 851 203 853 190 c 0,37,38
 857 167 857 167 846 141 c 0,39,40
 834 113 834 113 813 85 c 0,41,42
 792 57 792 57 760 28 c 0,43,44
 726 -2 726 -2 676 -22 c 0,45,46
 625 -41 625 -41 565 -41 c 0,47,48
 441 -41 441 -41 330 21 c 0,49,50
 219 83 219 83 150 180 c 0,51,52
 80 277 80 277 60 388 c 0,53,54
 44 477 44 477 62 559 c 0,55,56
 80 641 80 641 123 702 c 0,57,58
 165 762 165 762 222 808 c 0,59,60
 280 854 280 854 347 877 c 0,61,62
 414 901 414 901 481 901 c 0,63,64
 597 901 597 901 684 849 c 0,65,66
 686 848 686 848 688 846 c 0,67,68
 701 835 701 835 714 812 c 0,69,70
 726 790 726 790 729 772 c 0,0,1
EndSplineSet
Substitution2: "'smcp' Lowercase to Small Capitals lookup 12 subtable" c.sc
EndChar

StartChar: d
Encoding: 100 100 70
Width: 1030
GlyphClass: 2
Flags: W
LayerCount: 4
Fore
SplineSet
516 901 m 0,0,1
 548 901 548 901 597 894 c 0,2,3
 623 890 623 890 641 886 c 1,4,5
 640 892 640 892 640 898 c 2,6,-1
 601 1116 l 2,7,8
 588 1191 588 1191 576 1210 c 0,9,10
 574 1213 574 1213 565.5 1217.5 c 128,-1,11
 557 1222 557 1222 532 1226.5 c 128,-1,12
 507 1231 507 1231 474 1231 c 0,13,14
 455 1231 455 1231 447 1240 c 128,-1,15
 439 1249 439 1249 440 1258 c 2,16,-1
 441 1267 l 1,17,18
 437 1281 437 1281 435 1295 c 0,19,20
 434.5 1298 l 0,21,22
 434 1301 434 1301 434 1303 c 128,-1,23
 434 1305 434 1305 433.5 1309 c 128,-1,24
 433 1313 433 1313 434 1316 c 128,-1,25
 435 1319 435 1319 437 1322.5 c 128,-1,26
 439 1326 439 1326 443 1328.5 c 128,-1,27
 447 1331 447 1331 452 1332 c 0,28,29
 454 1332 454 1332 455 1333 c 0,30,31
 587 1347 587 1347 718 1411 c 0,32,33
 723 1413 723 1413 728 1413 c 0,34,35
 748 1413 748 1413 766 1392 c 0,36,37
 781 1375 781 1375 785 1356 c 0,38,39
 786 1352 786 1352 785 1348 c 0,40,41
 775 1288 775 1288 794 1182 c 2,42,-1
 944 326 l 2,43,44
 971 173 971 173 989 141 c 0,45,46
 993 137 993 137 1002 133 c 0,47,48
 1019 126 1019 126 1035 124 c 0,49,50
 1054 122 1054 122 1071 120 c 0,51,52
 1086 119 1086 119 1089 119 c 0,53,54
 1095 119 1095 119 1100 116.5 c 128,-1,55
 1105 114 1105 114 1109 111 c 128,-1,56
 1113 108 1113 108 1116 104 c 128,-1,57
 1119 100 1119 100 1120.5 97 c 128,-1,58
 1122 94 1122 94 1123.5 89.5 c 128,-1,59
 1125 85 1125 85 1125.5 82.5 c 128,-1,60
 1126 80 1126 80 1127 75.5 c 128,-1,61
 1128 71 1128 71 1128 70 c 0,62,63
 1130 59 1130 59 1126 42 c 0,64,65
 1120 17 1120 17 1099 15 c 0,66,67
 1070 13 1070 13 1035 7 c 128,-1,68
 1000 1 1000 1 970 -6 c 0,69,70
 939 -14 939 -14 913 -22 c 0,71,72
 886 -30 886 -30 870 -35 c 2,73,-1
 853 -40 l 2,74,75
 850 -41 850 -41 846 -41 c 0,76,77
 805 -41 805 -41 794 22 c 2,78,-1
 788 56 l 1,79,80
 759 33 759 33 711 6 c 0,81,82
 628 -41 628 -41 558 -41 c 0,83,84
 406 -41 406 -41 270 92 c 0,85,86
 203 158 203 158 160.5 238.5 c 128,-1,87
 118 319 118 319 101 412 c 0,88,89
 83 511 83 511 119 606 c 0,90,91
 154 699 154 699 219 762 c 0,92,93
 283 824 283 824 362 862 c 0,94,95
 443 901 443 901 516 901 c 0,0,1
476 767 m 0,96,97
 380 767 380 767 336 678 c 0,98,99
 289 585 289 585 311 460 c 0,100,101
 336 320 336 320 423 225 c 0,102,103
 507 133 507 133 626 133 c 0,104,105
 684 133 684 133 729 157 c 0,106,107
 743 164 743 164 752 172 c 128,-1,108
 761 180 761 180 763 183.5 c 128,-1,109
 765 187 765 187 765 188 c 2,110,-1
 676 694 l 2,111,112
 675 698 675 698 670.5 703.5 c 128,-1,113
 666 709 666 709 652 719 c 128,-1,114
 638 729 638 729 617 738 c 0,115,116
 552 767 552 767 476 767 c 0,96,97
EndSplineSet
Substitution2: "'smcp' Lowercase to Small Capitals lookup 12 subtable" d.sc
EndChar

StartChar: e
Encoding: 101 101 71
Width: 860
GlyphClass: 2
Flags: W
LayerCount: 4
Fore
SplineSet
232 595 m 1,0,-1
 529 595 l 2,1,2
 541 595 541 595 544.5 599 c 128,-1,3
 548 603 548 603 546 617 c 0,4,5
 544 633 544 633 532 659 c 0,6,7
 519 686 519 686 497 716 c 0,8,9
 477 743 477 743 445 761 c 0,10,11
 414 779 414 779 378 779 c 0,12,13
 338 779 338 779 309 759 c 0,14,15
 278 738 278 738 264 708 c 0,16,17
 248 675 248 675 241 643 c 0,18,19
 234 615 234 615 232 595 c 1,0,-1
240 471 m 1,20,21
 270 316 270 316 366 229 c 0,22,23
 470 137 470 137 600 137 c 0,24,25
 665 137 665 137 712 168 c 0,26,27
 761 201 761 201 784 234 c 0,28,29
 790 243 790 243 801 243 c 0,30,31
 807 243 807 243 812 241.5 c 128,-1,32
 817 240 817 240 818.5 238.5 c 128,-1,33
 820 237 820 237 822 235.5 c 128,-1,34
 824 234 824 234 824 233 c 0,35,36
 833 226 833 226 841 215 c 0,37,38
 849 203 849 203 851 190 c 0,39,40
 855 167 855 167 844 141 c 0,41,42
 832 113 832 113 811 85 c 0,43,44
 790 57 790 57 758 28 c 0,45,46
 724 -2 724 -2 674 -22 c 0,47,48
 623 -41 623 -41 563 -41 c 0,49,50
 377 -41 377 -41 235 85 c 0,51,52
 93 211 93 211 60 400 c 0,53,54
 42 502 42 502 65 597 c 0,55,56
 87 691 87 691 135.5 756 c 128,-1,57
 184 821 184 821 250 861 c 0,58,59
 318 901 318 901 391 901 c 0,60,61
 464 901 464 901 527 878 c 0,62,63
 591 855 591 855 632 822 c 0,64,65
 673 789 673 789 703 746 c 0,66,67
 733 704 733 704 748 669 c 128,-1,68
 763 634 763 634 768 604 c 0,69,70
 777 553 777 553 770 524 c 0,71,72
 760 487 760 487 717 485 c 0,73,74
 676 482 676 482 459 477 c 0,75,76
 296 472 296 472 240 471 c 1,20,21
EndSplineSet
Substitution2: "'smcp' Lowercase to Small Capitals lookup 12 subtable" e.sc
EndChar

StartChar: f
Encoding: 102 102 72
Width: 616
GlyphClass: 2
Flags: W
LayerCount: 4
Fore
SplineSet
411 1419 m 0,0,1
 458 1419 458 1419 476 1414 c 128,-1,2
 494 1409 494 1409 524 1391 c 0,3,4
 526 1390 526 1390 528 1388 c 0,5,6
 541 1377 541 1377 554 1354 c 0,7,8
 566 1332 566 1332 569 1314 c 0,9,10
 574 1283 574 1283 567 1261 c 0,11,12
 559 1236 559 1236 540 1224 c 0,13,14
 525 1215 525 1215 510 1212 c 0,15,16
 496 1209 496 1209 482 1209 c 0,17,18
 458 1209 458 1209 408 1234 c 0,19,20
 378 1249 378 1249 359 1249 c 0,21,22
 324 1249 324 1249 307 1211 c 0,23,24
 288 1170 288 1170 302 1092 c 2,25,-1
 342 863 l 1,26,-1
 553 863 l 2,27,28
 588 863 588 863 596 816 c 0,29,30
 603 774 603 774 575 738 c 0,31,32
 569 731 569 731 558 731 c 2,33,-1
 365 731 l 1,34,-1
 453 232 l 2,35,36
 471 128 471 128 485 95 c 1,37,38
 497 90 497 90 523 86 c 0,39,40
 572 77 572 77 600 77 c 0,41,42
 612 77 612 77 622 67 c 0,43,44
 635 53 635 53 641 24 c 0,45,46
 647 -7 647 -7 636 -22 c 0,47,48
 630 -31 630 -31 618 -31 c 0,49,50
 412 -21 412 -21 395 -21 c 0,51,52
 361 -21 361 -21 329 -22 c 0,53,54
 297 -23 297 -23 256 -27 c 0,55,56
 214 -30 214 -30 186 -31 c 0,57,58
 174 -31 174 -31 165 -22 c 0,59,60
 149 -7 149 -7 144 24 c 0,61,62
 140 53 140 53 148 67 c 0,63,64
 154 77 154 77 166 77 c 0,65,66
 193 77 193 77 235 86 c 0,67,68
 257 90 257 90 266 95 c 1,69,70
 268 128 268 128 249 232 c 2,71,-1
 161 731 l 1,72,-1
 70 731 l 2,73,74
 51 731 51 731 41 745 c 128,-1,75
 31 759 31 759 28 774 c 0,76,77
 27 782 27 782 28.5 789 c 128,-1,78
 30 796 30 796 32 799.5 c 128,-1,79
 34 803 34 803 39.5 810 c 128,-1,80
 45 817 45 817 48 821 c 0,81,82
 66 847 66 847 73 856 c 0,83,84
 79 863 79 863 89 863 c 2,85,-1
 138 863 l 1,86,-1
 136 876 l 2,87,88
 117 983 117 983 137 1087 c 0,89,90
 157 1190 157 1190 201 1261 c 0,91,92
 244 1331 244 1331 299 1374 c 0,93,94
 357 1419 357 1419 411 1419 c 0,0,1
EndSplineSet
Substitution2: "'smcp' Lowercase to Small Capitals lookup 12 subtable" f.sc
EndChar

StartChar: g
Encoding: 103 103 73
Width: 932
GlyphClass: 2
Flags: W
LayerCount: 4
Fore
SplineSet
328 793 m 0,0,1
 260 793 260 793 230 733 c 0,2,3
 198 668 198 668 213 584 c 0,4,5
 229 494 229 494 290 424 c 0,6,7
 347 359 347 359 420 359 c 0,8,9
 485 359 485 359 513 417 c 0,10,11
 544 480 544 480 529 562 c 0,12,13
 512 657 512 657 455 727 c 0,14,15
 401 793 401 793 328 793 c 0,0,1
553 -33 m 0,16,17
 404 -33 404 -33 380 -40 c 1,18,19
 343 -64 343 -64 314 -98 c 0,20,21
 289 -128 289 -128 293 -152 c 0,22,23
 309 -241 309 -241 381 -295 c 0,24,25
 455 -351 455 -351 571 -351 c 0,26,27
 634 -351 634 -351 695 -323 c 0,28,29
 756 -295 756 -295 790 -249 c 0,30,31
 822 -206 822 -206 815 -162 c 0,32,33
 812 -146 812 -146 797 -126 c 0,34,35
 780 -104 780 -104 750 -83 c 0,36,37
 720 -62 720 -62 669 -48 c 0,38,39
 616 -33 616 -33 553 -33 c 0,16,17
611 159 m 2,40,41
 739 159 739 159 852 91 c 0,42,43
 971 20 971 20 988 -76 c 0,44,45
 1000 -144 1000 -144 966 -218 c 0,46,47
 933 -289 933 -289 870.5 -346 c 128,-1,48
 808 -403 808 -403 713 -440 c 0,49,50
 618 -478 618 -478 514 -479 c 2,51,-1
 508 -479 l 2,52,53
 422 -479 422 -479 339 -453 c 0,54,55
 251 -425 251 -425 183 -363 c 0,56,57
 148 -331 148 -331 125.5 -292 c 128,-1,58
 103 -253 103 -253 95 -210 c 0,59,60
 88 -171 88 -171 108 -132 c 0,61,62
 126 -96 126 -96 161 -65 c 0,63,64
 193 -36 193 -36 223 -16 c 0,65,66
 231 -10 231 -10 239 -5 c 1,67,68
 195 16 195 16 156 49 c 0,69,70
 88 105 88 105 74 184 c 0,71,72
 72 193 72 193 77 200 c 0,73,74
 97 229 97 229 148 275 c 0,75,76
 178 301 178 301 201 319 c 1,77,78
 137 359 137 359 89 418 c 0,79,80
 25 495 25 495 11 576 c 0,81,82
 -12 708 -12 708 77 806 c 0,83,84
 166 903 166 903 316 903 c 0,85,86
 341 903 341 903 366 900 c 0,87,88
 392 897 392 897 418 890 c 0,89,90
 441 883 441 883 453 880 c 0,91,92
 465 877 465 877 491 867 c 2,93,-1
 516 857 l 2,94,95
 538 849 538 849 555 845 c 1,96,-1
 760 875 l 2,97,98
 765 876 765 876 770 874 c 0,99,100
 786 869 786 869 799.5 858 c 128,-1,101
 813 847 813 847 816 830 c 0,102,103
 819 811 819 811 807 775 c 0,104,105
 794 738 794 738 776 726 c 0,106,107
 770 722 770 722 762 723 c 2,108,-1
 665 729 l 1,109,110
 676 713 676 713 688 690 c 0,111,112
 721 631 721 631 732 568 c 0,113,114
 753 447 753 447 664 348 c 0,115,116
 575 249 575 249 425 249 c 0,117,118
 398 249 398 249 359 255 c 0,119,120
 331 260 331 260 314 265 c 1,121,122
 296 252 296 252 283 234 c 0,123,124
 271 217 271 217 272 204 c 0,125,126
 275 196 275 196 300 179 c 0,127,128
 330 159 330 159 375 159 c 2,129,-1
 611 159 l 2,40,41
EndSplineSet
Substitution2: "'smcp' Lowercase to Small Capitals lookup 12 subtable" g.sc
EndChar

StartChar: h
Encoding: 104 104 74
Width: 1032
GlyphClass: 2
Flags: W
LayerCount: 4
Fore
SplineSet
578 901 m 0,0,1
 648 901 648 901 700 882 c 0,2,3
 754 863 754 863 793 828 c 128,-1,4
 832 793 832 793 861 733 c 0,5,6
 888 677 888 677 906 610 c 0,7,8
 924 545 924 545 940 452 c 2,9,-1
 979 232 l 2,10,11
 997 128 997 128 1011 95 c 1,12,13
 1022 90 1022 90 1045 86 c 0,14,15
 1091 77 1091 77 1117 77 c 0,16,17
 1130 77 1130 77 1139 67 c 0,18,19
 1152 53 1152 53 1158 24 c 0,20,21
 1164 -7 1164 -7 1154 -22 c 0,22,23
 1148 -31 1148 -31 1135 -31 c 0,24,25
 932 -21 932 -21 920 -21 c 0,26,27
 885 -21 885 -21 854 -22 c 0,28,29
 822 -23 822 -23 781 -27 c 0,30,31
 739 -30 739 -30 711 -31 c 0,32,33
 699 -31 699 -31 690 -22 c 0,34,35
 674 -7 674 -7 669 24 c 0,36,37
 665 53 665 53 673 67 c 0,38,39
 679 77 679 77 691 77 c 0,40,41
 718 77 718 77 761 86 c 0,42,43
 783 90 783 90 791 95 c 1,44,45
 793 128 793 128 775 232 c 2,46,-1
 740 432 l 2,47,48
 708 614 708 614 659 678 c 0,49,50
 616 735 616 735 515 735 c 0,51,52
 487 735 487 735 450 714 c 0,53,54
 416 695 416 695 393 674 c 0,55,56
 389 670 389 670 385 667 c 0,57,58
 371 654 371 654 366 646 c 1,59,-1
 439 232 l 2,60,61
 457 128 457 128 471 95 c 1,62,63
 482 90 482 90 505 86 c 0,64,65
 551 77 551 77 577 77 c 0,66,67
 589 77 589 77 599 67 c 0,68,69
 612 53 612 53 618 24 c 0,70,71
 624 -7 624 -7 614 -22 c 0,72,73
 608 -31 608 -31 595 -31 c 0,74,75
 392 -21 392 -21 380 -21 c 0,76,77
 345 -21 345 -21 314 -22 c 0,78,79
 282 -23 282 -23 241 -27 c 0,80,81
 199 -30 199 -30 171 -31 c 0,82,83
 159 -31 159 -31 150 -22 c 0,84,85
 134 -7 134 -7 129 24 c 0,86,87
 125 53 125 53 133 67 c 0,88,89
 139 77 139 77 151 77 c 0,90,91
 178 77 178 77 221 86 c 0,92,93
 243 90 243 90 251 95 c 1,94,95
 253 128 253 128 235 232 c 2,96,-1
 79 1116 l 2,97,98
 66 1191 66 1191 54 1210 c 0,99,100
 52 1213 52 1213 43 1217.5 c 128,-1,101
 34 1222 34 1222 9.5 1226.5 c 128,-1,102
 -15 1231 -15 1231 -48 1231 c 0,103,104
 -85 1231 -85 1231 -82 1263 c 0,105,106
 -82 1267 -82 1267 -81 1267 c 1,107,108
 -85 1281 -85 1281 -87 1295 c 0,109,110
 -87.5 1298 l 0,111,112
 -88 1301 -88 1301 -88.5 1303 c 128,-1,113
 -89 1305 -89 1305 -89 1309 c 128,-1,114
 -89 1313 -89 1313 -88 1316 c 128,-1,115
 -87 1319 -87 1319 -85 1322.5 c 128,-1,116
 -83 1326 -83 1326 -79 1328.5 c 128,-1,117
 -75 1331 -75 1331 -70 1332 c 0,118,119
 -68 1332 -68 1332 -67 1333 c 0,120,121
 65 1347 65 1347 196 1411 c 0,122,123
 201 1413 201 1413 206 1413 c 0,124,125
 226 1413 226 1413 244 1392 c 0,126,127
 259 1375 259 1375 263 1356 c 0,128,129
 264 1352 264 1352 263 1348 c 0,130,131
 253 1288 253 1288 271 1182 c 2,132,-1
 343 777 l 1,133,134
 375 810 375 810 428 846 c 0,135,136
 507 901 507 901 578 901 c 0,0,1
EndSplineSet
Substitution2: "'smcp' Lowercase to Small Capitals lookup 12 subtable" h.sc
EndChar

StartChar: k
Encoding: 107 107 77
Width: 1036
GlyphClass: 2
Flags: W
LayerCount: 4
Fore
SplineSet
439 232 m 2,0,1
 457 128 457 128 471 95 c 1,2,3
 482 90 482 90 505 86 c 0,4,5
 551 77 551 77 577 77 c 0,6,7
 589 77 589 77 599 67 c 0,8,9
 612 53 612 53 618 24 c 0,10,11
 624 -7 624 -7 613 -22 c 0,12,13
 607 -31 607 -31 595 -31 c 0,14,15
 392 -21 392 -21 380 -21 c 0,16,17
 345 -21 345 -21 314 -22 c 0,18,19
 282 -23 282 -23 241 -27 c 0,20,21
 199 -30 199 -30 171 -31 c 0,22,23
 159 -31 159 -31 150 -22 c 0,24,25
 134 -7 134 -7 129 24 c 0,26,27
 125 53 125 53 133 67 c 0,28,29
 139 77 139 77 151 77 c 0,30,31
 178 77 178 77 220 86 c 0,32,33
 242 90 242 90 251 95 c 1,34,35
 253 128 253 128 235 232 c 2,36,-1
 79 1116 l 2,37,38
 66 1191 66 1191 54 1210 c 0,39,40
 52 1213 52 1213 43 1217.5 c 128,-1,41
 34 1222 34 1222 9.5 1226.5 c 128,-1,42
 -15 1231 -15 1231 -48 1231 c 0,43,44
 -85 1231 -85 1231 -82 1263 c 0,45,46
 -82 1267 l 1,47,48
 -86 1281 -86 1281 -87 1295 c 0,49,50
 -87.5 1298 l 0,51,52
 -88 1301 -88 1301 -88.5 1303 c 128,-1,53
 -89 1305 -89 1305 -89 1309 c 128,-1,54
 -89 1313 -89 1313 -88 1316 c 128,-1,55
 -87 1319 -87 1319 -85 1322.5 c 128,-1,56
 -83 1326 -83 1326 -79.5 1328.5 c 128,-1,57
 -76 1331 -76 1331 -70 1332 c 0,58,59
 -68 1332 -68 1332 -67 1333 c 0,60,61
 65 1347 65 1347 196 1411 c 0,62,63
 201 1413 201 1413 206 1413 c 0,64,65
 226 1413 226 1413 244 1392 c 0,66,67
 259 1375 259 1375 263 1356 c 0,68,69
 264 1352 264 1352 263 1348 c 0,70,71
 253 1288 253 1288 271 1182 c 2,72,-1
 389 513 l 1,73,74
 427 543 427 543 495 611 c 0,75,76
 516 632 516 632 544.5 659.5 c 128,-1,77
 573 687 573 687 590 703 c 0,78,79
 606 718 606 718 621 734 c 0,80,81
 634 747 634 747 640 756 c 1,82,83
 634 758 634 758 629 760 c 0,84,85
 623 762 623 762 614 763 c 0,86,87
 604 764 604 764 598 765 c 0,88,89
 590 766 590 766 580 766 c 2,90,-1
 571 767 l 2,91,92
 557 768 557 768 548 779 c 0,93,94
 533 797 533 797 530 827 c 0,95,96
 526 865 526 865 548 873 c 0,97,98
 553 875 553 875 559 875 c 0,99,100
 656 865 656 865 750 865 c 0,101,102
 851 865 851 865 921 875 c 0,103,104
 936 877 936 877 947 864 c 0,105,106
 960 848 960 848 965 819 c 0,107,108
 970 789 970 789 961 776 c 0,109,110
 955 767 955 767 943 767 c 0,111,112
 919 767 919 767 875 755 c 0,113,114
 832 743 832 743 811 726 c 0,115,116
 637 581 637 581 550 496 c 1,117,118
 613 439 613 439 700 356 c 0,119,120
 803 259 803 259 868 200 c 0,121,122
 931 143 931 143 955 125 c 0,123,124
 991 100 991 100 1038 88 c 0,125,126
 1082 77 1082 77 1119 77 c 2,127,-1
 1131 77 l 2,128,129
 1145 77 1145 77 1155 65 c 0,130,131
 1163 55 1163 55 1168 32 c 0,132,133
 1174 7 1174 7 1170 -7 c 0,134,135
 1167 -15 1167 -15 1160 -19 c 0,136,137
 1130 -33 1130 -33 1022 -33 c 0,138,139
 937 -33 937 -33 858 -2 c 128,-1,140
 779 29 779 29 741 63 c 0,141,142
 548 238 548 238 416 359 c 1,143,-1
 439 232 l 2,0,1
EndSplineSet
Substitution2: "'smcp' Lowercase to Small Capitals lookup 12 subtable" k.sc
EndChar

StartChar: l
Encoding: 108 108 78
Width: 510
GlyphClass: 2
Flags: W
LayerCount: 4
Fore
SplineSet
79 1116 m 2,0,1
 66 1191 66 1191 54 1210 c 0,2,3
 52 1213 52 1213 43 1217.5 c 128,-1,4
 34 1222 34 1222 9.5 1226.5 c 128,-1,5
 -15 1231 -15 1231 -48 1231 c 0,6,7
 -85 1231 -85 1231 -82 1263 c 0,8,9
 -82 1267 -82 1267 -81 1267 c 1,10,11
 -85 1281 -85 1281 -87 1295 c 0,12,13
 -87.5 1298 l 0,14,15
 -88 1301 -88 1301 -88.5 1303 c 128,-1,16
 -89 1305 -89 1305 -89 1309 c 128,-1,17
 -89 1313 -89 1313 -88 1316 c 128,-1,18
 -87 1319 -87 1319 -85 1322.5 c 128,-1,19
 -83 1326 -83 1326 -79 1328.5 c 128,-1,20
 -75 1331 -75 1331 -70 1332 c 0,21,22
 -68 1332 -68 1332 -67 1333 c 0,23,24
 65 1347 65 1347 196 1411 c 0,25,26
 201 1413 201 1413 206 1413 c 0,27,28
 226 1413 226 1413 244 1392 c 0,29,30
 259 1375 259 1375 263 1356 c 0,31,32
 264 1352 264 1352 263 1348 c 0,33,34
 253 1288 253 1288 271 1182 c 2,35,-1
 439 232 l 2,36,37
 457 128 457 128 471 95 c 1,38,39
 482 90 482 90 505 86 c 0,40,41
 551 77 551 77 577 77 c 0,42,43
 589 77 589 77 599 67 c 0,44,45
 612 53 612 53 618 24 c 0,46,47
 624 -7 624 -7 614 -22 c 0,48,49
 608 -31 608 -31 595 -31 c 0,50,51
 392 -21 392 -21 380 -21 c 0,52,53
 345 -21 345 -21 314 -22 c 0,54,55
 282 -23 282 -23 241 -27 c 0,56,57
 199 -30 199 -30 171 -31 c 0,58,59
 159 -31 159 -31 150 -22 c 0,60,61
 134 -7 134 -7 129 24 c 0,62,63
 125 53 125 53 133 67 c 0,64,65
 139 77 139 77 151 77 c 0,66,67
 178 77 178 77 221 86 c 0,68,69
 243 90 243 90 251 95 c 1,70,71
 253 128 253 128 235 232 c 2,72,-1
 79 1116 l 2,0,1
EndSplineSet
Substitution2: "'smcp' Lowercase to Small Capitals lookup 12 subtable" l.sc
EndChar

StartChar: m
Encoding: 109 109 79
Width: 1580
GlyphClass: 2
Flags: W
LayerCount: 4
Fore
SplineSet
557 901 m 0,0,1
 656 901 656 901 727 858 c 0,2,3
 784 823 784 823 823 754 c 1,4,5
 968 901 968 901 1079 901 c 0,6,7
 1149 901 1149 901 1201 882 c 0,8,9
 1255 863 1255 863 1294 828 c 128,-1,10
 1333 793 1333 793 1362 733 c 0,11,12
 1389 677 1389 677 1407 610 c 0,13,14
 1425 545 1425 545 1441 452 c 2,15,-1
 1480 232 l 2,16,17
 1498 128 1498 128 1512 95 c 1,18,19
 1523 90 1523 90 1546 86 c 0,20,21
 1592 77 1592 77 1618 77 c 0,22,23
 1631 77 1631 77 1640 67 c 0,24,25
 1653 53 1653 53 1659 24 c 0,26,27
 1665 -7 1665 -7 1655 -22 c 0,28,29
 1649 -31 1649 -31 1636 -31 c 0,30,31
 1433 -21 1433 -21 1422 -21 c 0,32,33
 1387 -21 1387 -21 1356 -22 c 0,34,35
 1324 -23 1324 -23 1283 -27 c 0,36,37
 1241 -30 1241 -30 1212 -31 c 0,38,39
 1200 -31 1200 -31 1191 -22 c 0,40,41
 1175 -7 1175 -7 1170 24 c 0,42,43
 1166 53 1166 53 1174 67 c 0,44,45
 1179 77 1179 77 1192 77 c 0,46,47
 1219 77 1219 77 1262 86 c 0,48,49
 1284 90 1284 90 1292 95 c 1,50,51
 1294 128 1294 128 1276 232 c 2,52,-1
 1238 446 l 2,53,54
 1227 509 1227 509 1216 553 c 0,55,56
 1205 596 1205 596 1187 635 c 0,57,58
 1171 671 1171 671 1150 691 c 0,59,60
 1130 711 1130 711 1099 723 c 0,61,62
 1067 735 1067 735 1024 735 c 0,63,64
 986 735 986 735 948 712 c 0,65,66
 913 691 913 691 893 671 c 0,67,68
 889 667 889 667 886 663 c 0,69,70
 874 650 874 650 870 642 c 0,71,72
 871 639 871 639 872 636 c 0,73,74
 874 627 874 627 875 622 c 0,75,76
 892 569 892 569 909 478 c 2,77,-1
 952 232 l 2,78,79
 970 128 970 128 984 95 c 1,80,81
 995 90 995 90 1018 86 c 0,82,83
 1064 77 1064 77 1090 77 c 0,84,85
 1103 77 1103 77 1112 67 c 0,86,87
 1125 53 1125 53 1131 24 c 0,88,89
 1137 -7 1137 -7 1127 -22 c 0,90,91
 1121 -31 1121 -31 1108 -31 c 0,92,93
 905 -21 905 -21 894 -21 c 0,94,95
 859 -21 859 -21 828 -22 c 0,96,97
 796 -23 796 -23 755 -27 c 0,98,99
 713 -30 713 -30 684 -31 c 0,100,101
 672 -31 672 -31 663 -22 c 0,102,103
 647 -7 647 -7 642 24 c 0,104,105
 638 53 638 53 646 67 c 0,106,107
 652 77 652 77 664 77 c 0,108,109
 691 77 691 77 734 86 c 0,110,111
 756 90 756 90 764 95 c 1,112,113
 766 128 766 128 748 232 c 2,114,-1
 712 436 l 2,115,116
 681 613 681 613 633 678 c 0,117,118
 590 735 590 735 496 735 c 0,119,120
 443 735 443 735 394 696 c 0,121,122
 387 691 387 691 381 686 c 0,123,124
 353 662 353 662 351 649 c 1,125,-1
 424 232 l 2,126,127
 442 128 442 128 456 95 c 1,128,129
 467 90 467 90 490 86 c 0,130,131
 536 77 536 77 562 77 c 0,132,133
 574 77 574 77 584 67 c 0,134,135
 597 53 597 53 603 24 c 0,136,137
 609 -7 609 -7 599 -22 c 0,138,139
 593 -31 593 -31 580 -31 c 0,140,141
 377 -21 377 -21 366 -21 c 0,142,143
 331 -21 331 -21 300 -22 c 0,144,145
 268 -23 268 -23 227 -27 c 0,146,147
 185 -30 185 -30 156 -31 c 0,148,149
 144 -31 144 -31 135 -22 c 0,150,151
 119 -7 119 -7 114 24 c 0,152,153
 110 53 110 53 118 67 c 0,154,155
 124 77 124 77 136 77 c 0,156,157
 163 77 163 77 206 86 c 0,158,159
 228 90 228 90 236 95 c 1,160,161
 238 128 238 128 220 232 c 2,162,-1
 156 596 l 2,163,164
 142 678 142 678 130 698 c 0,165,166
 124 703 124 703 106 708 c 0,167,168
 75 716 75 716 56 718 c 0,169,170
 35 719 35 719 19 719 c 0,171,172
 9 719 9 719 0 726 c 0,173,174
 -5 730 -5 730 -8 734.5 c 128,-1,175
 -11 739 -11 739 -12.5 743 c 128,-1,176
 -14 747 -14 747 -15.5 751.5 c 128,-1,177
 -17 756 -17 756 -17.5 759.5 c 128,-1,178
 -18 763 -18 763 -19 767 c 0,179,180
 -25 795 -25 795 -18 809 c 0,181,182
 -14 819 -14 819 -2 821 c 0,183,184
 161 843 161 843 261 902 c 0,185,186
 266 905 266 905 272 905 c 0,187,188
 293 905 293 905 312 881 c 0,189,190
 326 863 326 863 330 848 c 0,191,192
 330 846 330 846 330 844 c 0,193,194
 331 811 331 811 332 788 c 1,195,196
 394 845 394 845 440 869 c 0,197,198
 499 901 499 901 557 901 c 0,0,1
EndSplineSet
Substitution2: "'smcp' Lowercase to Small Capitals lookup 12 subtable" m.sc
EndChar

StartChar: n
Encoding: 110 110 80
Width: 1064
GlyphClass: 2
Flags: W
LayerCount: 4
Fore
SplineSet
563 901 m 0,0,1
 633 901 633 901 685 882 c 0,2,3
 739 863 739 863 778 828 c 128,-1,4
 817 793 817 793 846 733 c 0,5,6
 873 677 873 677 891 610 c 0,7,8
 909 545 909 545 925 452 c 2,9,-1
 964 232 l 2,10,11
 982 128 982 128 996 95 c 1,12,13
 1007 90 1007 90 1030 86 c 0,14,15
 1076 77 1076 77 1102 77 c 0,16,17
 1115 77 1115 77 1124 67 c 0,18,19
 1137 53 1137 53 1143 24 c 0,20,21
 1149 -7 1149 -7 1139 -22 c 0,22,23
 1133 -31 1133 -31 1120 -31 c 0,24,25
 917 -21 917 -21 906 -21 c 0,26,27
 871 -21 871 -21 840 -22 c 0,28,29
 808 -23 808 -23 767 -27 c 0,30,31
 725 -30 725 -30 696 -31 c 0,32,33
 684 -31 684 -31 675 -22 c 0,34,35
 659 -7 659 -7 654 24 c 0,36,37
 650 53 650 53 658 67 c 0,38,39
 664 77 664 77 676 77 c 0,40,41
 703 77 703 77 746 86 c 0,42,43
 768 90 768 90 776 95 c 1,44,45
 778 128 778 128 760 232 c 2,46,-1
 725 432 l 2,47,48
 693 614 693 614 644 678 c 0,49,50
 601 735 601 735 500 735 c 0,51,52
 472 735 472 735 435 714 c 0,53,54
 401 695 401 695 378 674 c 0,55,56
 374 670 374 670 370 667 c 0,57,58
 356 654 356 654 351 646 c 1,59,-1
 424 232 l 2,60,61
 442 128 442 128 456 95 c 1,62,63
 467 90 467 90 490 86 c 0,64,65
 536 77 536 77 562 77 c 0,66,67
 574 77 574 77 584 67 c 0,68,69
 597 53 597 53 603 24 c 0,70,71
 609 -7 609 -7 599 -22 c 0,72,73
 593 -31 593 -31 580 -31 c 0,74,75
 377 -21 377 -21 366 -21 c 0,76,77
 331 -21 331 -21 300 -22 c 0,78,79
 268 -23 268 -23 227 -27 c 0,80,81
 185 -30 185 -30 156 -31 c 0,82,83
 144 -31 144 -31 135 -22 c 0,84,85
 119 -7 119 -7 114 24 c 0,86,87
 110 53 110 53 118 67 c 0,88,89
 124 77 124 77 136 77 c 0,90,91
 163 77 163 77 206 86 c 0,92,93
 228 90 228 90 236 95 c 1,94,95
 238 128 238 128 220 232 c 2,96,-1
 156 596 l 2,97,98
 142 678 142 678 130 698 c 0,99,100
 124 703 124 703 106 708 c 0,101,102
 75 716 75 716 56 718 c 0,103,104
 35 719 35 719 19 719 c 0,105,106
 9 719 9 719 0 726 c 0,107,108
 -5 730 -5 730 -8 734.5 c 128,-1,109
 -11 739 -11 739 -12.5 743 c 128,-1,110
 -14 747 -14 747 -15.5 751.5 c 128,-1,111
 -17 756 -17 756 -17.5 759.5 c 128,-1,112
 -18 763 -18 763 -19 767 c 0,113,114
 -25 795 -25 795 -18 809 c 0,115,116
 -14 819 -14 819 -2 821 c 0,117,118
 161 843 161 843 261 902 c 0,119,120
 266 905 266 905 272 905 c 0,121,122
 293 905 293 905 312 881 c 0,123,124
 326 863 326 863 330 848 c 0,125,126
 330 846 330 846 330 844 c 0,127,128
 331 808 331 808 333 782 c 1,129,130
 365 813 365 813 413 846 c 0,131,132
 492 901 492 901 563 901 c 0,0,1
EndSplineSet
Substitution2: "'smcp' Lowercase to Small Capitals lookup 12 subtable" n.sc
EndChar

StartChar: o
Encoding: 111 111 81
Width: 1018
GlyphClass: 2
Flags: W
LayerCount: 4
Fore
SplineSet
423 787 m 0,0,1
 352 787 352 787 314 742 c 0,2,3
 273 695 273 695 265 626 c 0,4,5
 257 554 257 554 273 466 c 0,6,7
 290 369 290 369 335 280 c 0,8,9
 379 193 379 193 451 134 c 0,10,11
 519 77 519 77 595 77 c 0,12,13
 666 77 666 77 704 122 c 0,14,15
 745 169 745 169 753 237 c 0,16,17
 761 308 761 308 745 396 c 0,18,19
 728 492 728 492 682 582 c 0,20,21
 637 670 637 670 566 730 c 0,22,23
 498 787 498 787 423 787 c 0,0,1
425 903 m 0,24,25
 631 903 631 903 778 773 c 0,26,27
 924 643 924 643 959 442 c 0,28,29
 995 238 995 238 891 100 c 0,30,31
 839 31 839 31 764.5 -4 c 128,-1,32
 690 -39 690 -39 595 -39 c 0,33,34
 389 -39 389 -39 241 93 c 0,35,36
 93 225 93 225 58 426 c 0,37,38
 22 629 22 629 127 766 c 0,39,40
 232 903 232 903 425 903 c 0,24,25
EndSplineSet
Substitution2: "'smcp' Lowercase to Small Capitals lookup 12 subtable" o.sc
EndChar

StartChar: p
Encoding: 112 112 82
Width: 1020
GlyphClass: 2
Flags: W
LayerCount: 4
Fore
SplineSet
460 901 m 0,0,1
 554 901 554 901 639 858 c 0,2,3
 724 816 724 816 782 748 c 0,4,5
 838 682 838 682 875 609 c 0,6,7
 912 535 912 535 924 464 c 0,8,9
 942 364 942 364 914 270 c 0,10,11
 887 176 887 176 830 109 c 0,12,13
 801 75 801 75 766.5 48 c 128,-1,14
 732 21 732 21 692 0 c 0,15,16
 610 -41 610 -41 520 -41 c 0,17,18
 459 -41 459 -41 394 -25 c 1,19,-1
 427 -214 l 2,20,21
 446 -318 446 -318 460 -351 c 1,22,23
 471 -356 471 -356 494 -360 c 0,24,25
 540 -369 540 -369 566 -369 c 0,26,27
 578 -369 578 -369 588 -379 c 0,28,29
 601 -393 601 -393 607 -422 c 0,30,31
 613 -453 613 -453 602 -468 c 0,32,33
 596 -477 596 -477 584 -477 c 0,34,35
 381 -467 381 -467 369 -467 c 0,36,37
 334 -467 334 -467 303 -468 c 0,38,39
 271 -469 271 -469 230 -473 c 0,40,41
 188 -476 188 -476 160 -477 c 0,42,43
 148 -477 148 -477 139 -468 c 0,44,45
 123 -453 123 -453 118 -422 c 0,46,47
 114 -393 114 -393 122 -379 c 0,48,49
 127 -369 127 -369 140 -369 c 0,50,51
 167 -369 167 -369 209 -360 c 0,52,53
 231 -356 231 -356 240 -351 c 1,54,55
 241 -322 241 -322 223 -214 c 2,56,-1
 79 604 l 2,57,58
 66 678 66 678 55 698 c 0,59,60
 49 703 49 703 31 708 c 0,61,62
 0 716 0 716 -19 718 c 0,63,64
 -40 719 -40 719 -56 719 c 0,65,66
 -66 719 -66 719 -75 726 c 0,67,68
 -80 730 -80 730 -83 734.5 c 128,-1,69
 -86 739 -86 739 -88 743 c 128,-1,70
 -90 747 -90 747 -91 751.5 c 128,-1,71
 -92 756 -92 756 -92.5 759.5 c 128,-1,72
 -93 763 -93 763 -94 767 c 0,73,74
 -100 795 -100 795 -93 809 c 0,75,76
 -89 819 -89 819 -77 821 c 0,77,78
 86 843 86 843 186 902 c 0,79,80
 191 905 191 905 197 905 c 0,81,82
 218 905 218 905 237 881 c 0,83,84
 251 863 251 863 254 848 c 0,85,86
 255 845 255 845 254 811 c 1,87,88
 287 837 287 837 330 861 c 0,89,90
 400 901 400 901 460 901 c 0,0,1
403 733 m 0,91,92
 351 733 351 733 306 708 c 0,93,94
 274 690 274 690 270 679 c 1,95,-1
 354 200 l 2,96,97
 364 144 364 144 419 113 c 0,98,99
 479 79 479 79 537 79 c 0,100,101
 607 79 607 79 653 124 c 0,102,103
 701 171 701 171 717 241 c 0,104,105
 733 312 733 312 719 390 c 0,106,107
 690 553 690 553 599 644 c 0,108,109
 510 733 510 733 403 733 c 0,91,92
EndSplineSet
Substitution2: "'smcp' Lowercase to Small Capitals lookup 12 subtable" p.sc
EndChar

StartChar: q
Encoding: 113 113 83
Width: 994
GlyphClass: 2
Flags: W
LayerCount: 4
Fore
SplineSet
412 779 m 0,0,1
 352 779 352 779 310 748 c 0,2,3
 267 717 267 717 249 670 c 0,4,5
 229 620 229 620 223 567 c 0,6,7
 217 515 217 515 225 470 c 0,8,9
 254 307 254 307 345 218 c 0,10,11
 434 131 434 131 552 131 c 0,12,13
 603 131 603 131 644 156 c 0,14,15
 656 163 656 163 664 170.5 c 128,-1,16
 672 178 672 178 674.5 181.5 c 128,-1,17
 677 185 677 185 677 186 c 2,18,-1
 593 664 l 2,19,20
 585 712 585 712 532 744 c 0,21,22
 475 779 475 779 412 779 c 0,0,1
450 901 m 0,23,24
 483 901 483 901 578 875 c 0,25,26
 666 851 666 851 697 851 c 0,27,28
 715 851 715 851 728 856 c 0,29,30
 732 857 732 857 736 857 c 0,31,32
 747 857 747 857 757 851 c 128,-1,33
 767 845 767 845 771 840 c 128,-1,34
 775 835 775 835 781 826 c 0,35,36
 797 803 797 803 799 788 c 0,37,38
 800 783 800 783 799 778 c 0,39,40
 786 730 786 730 801 640 c 2,41,-1
 952 -216 l 2,42,43
 970 -320 970 -320 984 -353 c 1,44,45
 995 -358 995 -358 1018 -362 c 0,46,47
 1064 -371 1064 -371 1091 -371 c 0,48,49
 1103 -371 1103 -371 1112 -381 c 0,50,51
 1125 -395 1125 -395 1132 -424 c 0,52,53
 1138 -455 1138 -455 1127 -470 c 0,54,55
 1121 -479 1121 -479 1108 -479 c 0,56,57
 905 -469 905 -469 894 -469 c 0,58,59
 859 -469 859 -469 828 -470 c 0,60,61
 796 -471 796 -471 755 -475 c 0,62,63
 713 -478 713 -478 685 -479 c 0,64,65
 673 -479 673 -479 663 -470 c 0,66,67
 647 -455 647 -455 643 -424 c 0,68,69
 639 -395 639 -395 646 -381 c 0,70,71
 652 -371 652 -371 665 -371 c 0,72,73
 692 -371 692 -371 734 -362 c 0,74,75
 756 -358 756 -358 765 -353 c 1,76,77
 767 -320 767 -320 748 -216 c 2,78,-1
 700 60 l 1,79,80
 669 35 669 35 617 5 c 0,81,82
 540 -39 540 -39 478 -39 c 0,83,84
 407 -39 407 -39 338.5 -11.5 c 128,-1,85
 270 16 270 16 217 62 c 0,86,87
 166 107 166 107 124 164 c 128,-1,88
 82 221 82 221 56 281 c 128,-1,89
 30 341 30 341 20 398 c 0,90,91
 5 482 5 482 23 562 c 0,92,93
 41 642 41 642 85 702 c 0,94,95
 128 761 128 761 186 807 c 0,96,97
 244 853 244 853 313 877 c 0,98,99
 382 901 382 901 450 901 c 0,23,24
EndSplineSet
Substitution2: "'smcp' Lowercase to Small Capitals lookup 12 subtable" q.sc
EndChar

StartChar: r
Encoding: 114 114 84
Width: 766
GlyphClass: 2
Flags: W
LayerCount: 4
Fore
SplineSet
526 899 m 0,0,1
 571 899 571 899 614 879 c 0,2,3
 659 859 659 859 682 829 c 0,4,5
 684 827 684 827 684 824 c 0,6,7
 698 796 698 796 705 762 c 0,8,9
 715 704 715 704 692 669 c 0,10,11
 668 633 668 633 636 633 c 0,12,13
 617 633 617 633 600 641 c 0,14,15
 585 647 585 647 563 661 c 0,16,17
 544 673 544 673 541 675 c 0,18,19
 508 695 508 695 478 695 c 0,20,21
 433 695 433 695 399 637 c 0,22,23
 364 575 364 575 370 540 c 2,24,-1
 424 232 l 2,25,26
 442 131 442 131 455 97 c 1,27,28
 470 91 470 91 509 86 c 0,29,30
 575 77 575 77 608 77 c 0,31,32
 620 77 620 77 630 67 c 0,33,34
 643 53 643 53 649 24 c 0,35,36
 655 -7 655 -7 645 -22 c 0,37,38
 639 -31 639 -31 626 -31 c 0,39,40
 420 -21 420 -21 378 -21 c 0,41,42
 360 -21 360 -21 157 -31 c 0,43,44
 145 -32 145 -32 135 -22 c 0,45,46
 119 -7 119 -7 114 24 c 0,47,48
 110 53 110 53 118 67 c 0,49,50
 124 77 124 77 136 77 c 0,51,52
 163 77 163 77 206 86 c 0,53,54
 228 90 228 90 236 95 c 1,55,56
 237 124 237 124 220 232 c 2,57,-1
 155 604 l 2,58,59
 142 678 142 678 130 698 c 0,60,61
 124 703 124 703 106 708 c 0,62,63
 75 716 75 716 56 718 c 0,64,65
 35 719 35 719 19 719 c 0,66,67
 9 719 9 719 0 726 c 0,68,69
 -5 730 -5 730 -8 734.5 c 128,-1,70
 -11 739 -11 739 -12.5 743 c 128,-1,71
 -14 747 -14 747 -15.5 751.5 c 128,-1,72
 -17 756 -17 756 -17.5 759.5 c 128,-1,73
 -18 763 -18 763 -19 767 c 0,74,75
 -25 795 -25 795 -18 809 c 0,76,77
 -14 819 -14 819 -2 821 c 0,78,79
 161 843 161 843 261 902 c 0,80,81
 266 905 266 905 272 905 c 0,82,83
 293 905 293 905 312 881 c 0,84,85
 326 863 326 863 330 848 c 0,86,87
 330 846 330 846 330 844 c 0,88,89
 330 833 330 833 338 756 c 0,90,91
 338 752 338 752 339 747 c 1,92,93
 360 785 360 785 389 822 c 0,94,95
 454 899 454 899 526 899 c 0,0,1
EndSplineSet
Substitution2: "'smcp' Lowercase to Small Capitals lookup 12 subtable" r.sc
EndChar

StartChar: s
Encoding: 115 115 85
Width: 738
GlyphClass: 2
Flags: W
LayerCount: 4
Fore
SplineSet
307 899 m 0,0,1
 354 899 354 899 424 887 c 0,2,3
 491 876 491 876 518 873 c 0,4,5
 526 872 526 872 533 866.5 c 128,-1,6
 540 861 540 861 543 853 c 0,7,8
 580 761 580 761 607 628 c 0,9,10
 611 607 611 607 597.5 600 c 128,-1,11
 584 593 584 593 569 593 c 0,12,13
 538 593 538 593 516 609 c 0,14,15
 509 614 509 614 505 622 c 0,16,17
 477 684 477 684 425 738 c 0,18,19
 378 787 378 787 332 787 c 0,20,21
 273 787 273 787 249 759 c 0,22,23
 225 731 225 731 233 686 c 0,24,25
 237 665 237 665 246 648 c 0,26,27
 256 629 256 629 265 618 c 0,28,29
 274 608 274 608 295 593 c 0,30,31
 319 577 319 577 331 569 c 128,-1,32
 343 561 343 561 376 544 c 0,33,34
 410 527 410 527 424 520 c 0,35,36
 435 515 435 515 468 497 c 0,37,38
 503 479 503 479 520 468 c 0,39,40
 536 458 536 458 567 440 c 0,41,42
 601 420 601 420 620 402 c 0,43,44
 638 386 638 386 658 364 c 0,45,46
 682 339 682 339 695 311 c 0,47,48
 708 284 708 284 713 254 c 0,49,50
 736 124 736 124 651 38 c 0,51,52
 567 -47 567 -47 433 -47 c 0,53,54
 390 -47 390 -47 352 -41 c 0,55,56
 315 -35 315 -35 264 -24 c 0,57,58
 215 -13 215 -13 188 -9 c 0,59,60
 174 -6 174 -6 167 7 c 0,61,62
 148 40 148 40 124 112 c 0,63,64
 100 182 100 182 93 224 c 0,65,66
 91 237 91 237 99 244 c 0,67,68
 119 261 119 261 147 261 c 0,69,70
 167 261 167 261 180 253 c 0,71,72
 189 248 189 248 193 239 c 0,73,74
 223 174 223 174 289 119 c 0,75,76
 352 67 352 67 415 67 c 0,77,78
 468 67 468 67 496 99 c 0,79,80
 523 130 523 130 513 186 c 0,81,82
 508 216 508 216 494 239 c 0,83,84
 480 262 480 262 451 282 c 0,85,86
 419 305 419 305 396 318 c 0,87,88
 371 332 371 332 321 356 c 0,89,90
 269 381 269 381 245 395 c 0,91,92
 164 437 164 437 110 491 c 0,93,94
 53 548 53 548 39 630 c 0,95,96
 18 749 18 749 101 825 c 0,97,98
 182 899 182 899 307 899 c 0,0,1
EndSplineSet
Substitution2: "'smcp' Lowercase to Small Capitals lookup 12 subtable" s.sc
EndChar

StartChar: t
Encoding: 116 116 86
Width: 622
GlyphClass: 2
Flags: W
LayerCount: 4
Fore
SplineSet
287 889 m 1,0,-1
 520 889 l 2,1,2
 555 889 555 889 563 842 c 0,3,4
 570 800 570 800 541 764 c 0,5,6
 535 757 535 757 525 757 c 2,7,-1
 310 757 l 1,8,-1
 398 258 l 2,9,10
 411 183 411 183 443 151 c 128,-1,11
 475 119 475 119 530 119 c 0,12,13
 588 119 588 119 638 160 c 0,14,15
 649 169 649 169 663 162 c 0,16,17
 685 152 685 152 689 126 c 0,18,19
 691 114 691 114 691.5 108.5 c 128,-1,20
 692 103 692 103 689.5 94 c 128,-1,21
 687 85 687 85 681 76 c 0,22,23
 666 56 666 56 645 34 c 0,24,25
 622 10 622 10 577 -14 c 0,26,27
 530 -39 530 -39 479 -39 c 0,28,29
 434 -39 434 -39 395 -28 c 0,30,31
 354 -17 354 -17 314 9 c 0,32,33
 272 36 272 36 244 87 c 0,34,35
 216 135 216 135 204 202 c 2,36,-1
 106 757 l 1,37,-1
 15 757 l 2,38,39
 -4 757 -4 757 -14.5 771 c 128,-1,40
 -25 785 -25 785 -27 800 c 0,41,42
 -28 808 -28 808 -27 815 c 128,-1,43
 -26 822 -26 822 -23.5 825.5 c 128,-1,44
 -21 829 -21 829 -15.5 836 c 128,-1,45
 -10 843 -10 843 -8 847 c 0,46,47
 10 873 10 873 17 882 c 0,48,49
 23 889 23 889 34 889 c 2,50,-1
 83 889 l 1,51,-1
 65 990 l 2,52,53
 63 999 63 999 68 1006 c 0,54,55
 81 1025 81 1025 106 1058 c 0,56,57
 130 1090 130 1090 148 1115 c 0,58,59
 166 1139 166 1139 168 1142 c 0,60,61
 176 1152 176 1152 189 1155 c 0,62,63
 202 1159 202 1159 215 1156 c 0,64,65
 224 1154 224 1154 233.5 1146.5 c 128,-1,66
 243 1139 243 1139 245 1126 c 2,67,-1
 287 889 l 1,0,-1
EndSplineSet
Substitution2: "'smcp' Lowercase to Small Capitals lookup 12 subtable" t.sc
EndChar

StartChar: u
Encoding: 117 117 87
Width: 1030
GlyphClass: 2
Flags: W
LayerCount: 4
Fore
SplineSet
637 640 m 2,0,1
 624 711 624 711 607 736 c 0,2,3
 587 763 587 763 513 763 c 0,4,5
 503 763 503 763 494 770 c 0,6,7
 480 782 480 782 474 812 c 0,8,9
 468 840 468 840 476 855 c 0,10,11
 481 865 481 865 494 865 c 0,12,13
 654 871 654 871 754 904 c 0,14,15
 757 905 757 905 762 905 c 128,-1,16
 767 905 767 905 771.5 904 c 128,-1,17
 776 903 776 903 779.5 901 c 128,-1,18
 783 899 783 899 786.5 896 c 128,-1,19
 790 893 790 893 792 891 c 128,-1,20
 794 889 794 889 796.5 885 c 128,-1,21
 799 881 799 881 800 879.5 c 128,-1,22
 801 878 801 878 803.5 874 c 128,-1,23
 806 870 806 870 806 869 c 0,24,25
 819 845 819 845 821 832 c 0,26,27
 822 826 822 826 821 821 c 0,28,29
 814 798 814 798 830 702 c 2,30,-1
 904 282 l 2,31,32
 919 199 919 199 943 136 c 0,33,34
 945 134 945 134 952 132 c 0,35,36
 969 125 969 125 985 123 c 0,37,38
 1004 121 1004 121 1022 120 c 0,39,40
 1038 119 1038 119 1041 119 c 0,41,42
 1047 119 1047 119 1052 116 c 0,43,44
 1056 114 1056 114 1059 112 c 128,-1,45
 1062 110 1062 110 1064.5 107.5 c 128,-1,46
 1067 105 1067 105 1069 102.5 c 128,-1,47
 1071 100 1071 100 1072.5 97 c 128,-1,48
 1074 94 1074 94 1075 91.5 c 128,-1,49
 1076 89 1076 89 1077 85.5 c 128,-1,50
 1078 82 1078 82 1078 81 c 128,-1,51
 1078 80 1078 80 1078.5 76 c 0,52,53
 1079 72 l 0,54,55
 1081 61 1081 61 1078 44 c 0,56,57
 1072 18 1072 18 1052 15 c 0,58,59
 1023 13 1023 13 987.5 7 c 128,-1,60
 952 1 952 1 922 -6 c 0,61,62
 891 -14 891 -14 865 -22 c 0,63,64
 838 -30 838 -30 821 -35 c 2,65,-1
 805 -40 l 2,66,67
 802 -41 802 -41 798 -41 c 0,68,69
 775 -41 775 -41 760 -16 c 0,70,71
 751 -1 751 -1 747 16 c 2,72,-1
 739 65 l 1,73,74
 704 33 704 33 652 5 c 0,75,76
 572 -39 572 -39 494 -39 c 0,77,78
 426 -39 426 -39 370 -10 c 128,-1,79
 314 19 314 19 276 63 c 0,80,81
 240 105 240 105 212 165 c 0,82,83
 185 223 185 223 169 275 c 0,84,85
 154 326 154 326 144 384 c 2,86,-1
 99 640 l 2,87,88
 86 711 86 711 69 736 c 0,89,90
 49 763 49 763 -25 763 c 0,91,92
 -35 763 -35 763 -44 770 c 0,93,94
 -58 782 -58 782 -64 812 c 0,95,96
 -70 840 -70 840 -62 855 c 0,97,98
 -57 865 -57 865 -44 865 c 0,99,100
 116 871 116 871 216 904 c 0,101,102
 219 905 219 905 224 905 c 0,103,104
 247 905 247 905 266 875 c 0,105,106
 280 854 280 854 282 840 c 0,107,108
 283 834 283 834 281 829 c 0,109,110
 274 806 274 806 292 702 c 2,111,-1
 344 408 l 2,112,113
 371 255 371 255 427 186 c 0,114,115
 479 123 479 123 569 123 c 0,116,117
 627 123 627 123 676 155 c 0,118,119
 685 161 685 161 691 167 c 0,120,121
 716 189 716 189 714 207 c 2,122,-1
 637 640 l 2,0,1
EndSplineSet
Substitution2: "'smcp' Lowercase to Small Capitals lookup 12 subtable" u.sc
EndChar

StartChar: v
Encoding: 118 118 88
Width: 946
GlyphClass: 2
Flags: W
LayerCount: 4
Fore
SplineSet
125 875 m 0,0,1
 158 875 158 875 188 876 c 128,-1,2
 218 877 218 877 255 881 c 0,3,4
 293 884 293 884 322 885 c 0,5,6
 339 886 339 886 348 870 c 0,7,8
 357 855 357 855 360 824 c 0,9,-1
 360.5 819 l 0,10,11
 361 814 361 814 361 811 c 128,-1,12
 361 808 361 808 361 802.5 c 128,-1,13
 361 797 361 797 359 793 c 128,-1,14
 357 789 357 789 354.5 785 c 128,-1,15
 352 781 352 781 346.5 779 c 128,-1,16
 341 777 341 777 334 777 c 0,17,18
 322 777 322 777 304 775 c 0,19,20
 288 773 288 773 269 766 c 0,21,22
 267 765 267 765 265 764 c 2,23,-1
 543 288 l 1,24,25
 591 516 591 516 629 683 c 0,26,27
 635 708 635 708 630 738 c 0,28,29
 627 753 627 753 607 763 c 0,30,31
 578 777 578 777 532 777 c 0,32,33
 525 777 525 777 519 779 c 128,-1,34
 513 781 513 781 509.5 784 c 128,-1,35
 506 787 506 787 503 791.5 c 128,-1,36
 500 796 500 796 498 799.5 c 128,-1,37
 496 803 496 803 495 808 c 128,-1,38
 494 813 494 813 493 816 c 128,-1,39
 492 819 492 819 492 823 c 2,40,-1
 491 827 l 2,41,42
 485 861 485 861 496 876 c 0,43,44
 502 885 502 885 514 885 c 0,45,46
 536 884 536 884 564 881 c 0,47,48
 591 878 591 878 615.5 876.5 c 128,-1,49
 640 875 640 875 677 875 c 0,50,51
 710 875 710 875 736 876 c 128,-1,52
 762 877 762 877 795 881 c 0,53,54
 829 884 829 884 860 885 c 0,55,56
 874 885 874 885 884 874 c 0,57,58
 898 857 898 857 899 823 c 0,59,-1
 900 817.5 l 0,60,61
 901 812 901 812 901 808 c 128,-1,62
 901 804 901 804 900 798 c 128,-1,63
 899 792 899 792 896.5 787.5 c 128,-1,64
 894 783 894 783 888 780 c 128,-1,65
 882 777 882 777 874 777 c 0,66,67
 853 777 853 777 817 763 c 0,68,69
 787 751 787 751 780 724 c 0,70,71
 718 469 718 469 675 289 c 128,-1,72
 632 109 632 109 608 3 c 0,73,74
 604 -16 604 -16 580 -32 c 0,75,76
 558 -47 558 -47 541 -47 c 0,77,78
 512 -47 512 -47 497 -25 c 0,79,80
 497 -24 497 -24 496 -24 c 0,81,82
 429 87 429 87 335 251 c 0,83,84
 241 414 241 414 171 533 c 0,85,86
 100 652 100 652 34 751 c 0,87,88
 17 777 17 777 -58 777 c 0,89,90
 -75 777 -75 777 -84 792 c 0,91,92
 -107 831 -107 831 -98 870 c 0,93,94
 -94 886 -94 886 -76 885 c 0,95,96
 -46 884 -46 884 -8 881 c 0,97,98
 29 878 29 878 59 876 c 0,99,100
 90 875 90 875 125 875 c 0,0,1
EndSplineSet
Substitution2: "'smcp' Lowercase to Small Capitals lookup 12 subtable" v.sc
EndChar

StartChar: w
Encoding: 119 119 89
Width: 1442
GlyphClass: 2
Flags: W
LayerCount: 4
Fore
SplineSet
122 875 m 0,0,1
 155 875 155 875 185 876 c 0,2,3
 215 877 215 877 252 881 c 0,4,5
 290 884 290 884 319 885 c 0,6,7
 338 886 338 886 347 868 c 0,8,9
 354 855 354 855 357 827 c 0,10,11
 357 826 357 826 358.5 820 c 128,-1,12
 360 814 360 814 360 811.5 c 128,-1,13
 360 809 360 809 360 803.5 c 128,-1,14
 360 798 360 798 358.5 794.5 c 128,-1,15
 357 791 357 791 354 786.5 c 128,-1,16
 351 782 351 782 346 780 c 0,17,18
 341 777 341 777 335 777 c 0,19,20
 321 777 321 777 304 775 c 0,21,22
 290 773 290 773 272 764 c 0,23,24
 266 761 266 761 264 758 c 0,25,26
 268 751 268 751 276 735 c 0,27,28
 304 684 304 684 534 300 c 1,29,30
 542 339 542 339 552 382 c 0,31,32
 569 460 569 460 579 500 c 0,33,34
 588 539 588 539 596 580 c 128,-1,35
 604 621 604 621 607 639 c 0,36,37
 609 649 609 649 609 655 c 0,38,39
 606 665 606 665 590 692 c 0,40,41
 570 726 570 726 549 750 c 0,42,43
 526 777 526 777 477 777 c 0,44,45
 471 777 471 777 465 780 c 0,46,47
 441 791 441 791 435 829 c 0,48,49
 429 862 429 862 441 878 c 0,50,51
 447 886 447 886 459 885 c 0,52,53
 485 884 485 884 541 879 c 0,54,55
 595 875 595 875 642 875 c 0,56,57
 653 875 653 875 847 885 c 0,58,59
 865 886 865 886 874 869 c 0,60,61
 882 855 882 855 887 829 c 0,62,63
 893 798 893 798 881 784 c 0,64,65
 875 777 875 777 865 777 c 0,66,67
 821 777 821 777 807.5 767 c 128,-1,68
 794 757 794 757 797 739 c 0,69,70
 799 734 799 734 803 723 c 0,71,72
 811 708 811 708 824 683 c 0,73,74
 837 657 837 657 862 615 c 0,75,76
 887 572 887 572 912.5 526 c 128,-1,77
 938 480 938 480 983 401 c 0,78,79
 1010 354 1010 354 1036 308 c 1,80,81
 1107 626 1107 626 1118 696 c 0,82,83
 1123 724 1123 724 1121 736 c 0,84,85
 1119 747 1119 747 1113 754 c 0,86,87
 1106 761 1106 761 1090 765 c 0,88,89
 1067 771 1067 771 1055.5 773 c 128,-1,90
 1044 775 1044 775 1017 777 c 0,91,92
 1009 778 1009 778 1002 783 c 0,93,94
 993 789 993 789 988 798.5 c 128,-1,95
 983 808 983 808 982 812 c 128,-1,96
 981 816 981 816 978 829 c 0,97,98
 972 861 972 861 983 876 c 0,99,100
 989 885 989 885 1001 885 c 0,101,102
 1030 884 1030 884 1081 879 c 0,103,104
 1130 875 1130 875 1176 875 c 0,105,106
 1209 875 1209 875 1234 876 c 0,107,108
 1260 877 1260 877 1293 881 c 0,109,110
 1327 884 1327 884 1357 885 c 0,111,112
 1368 885 1368 885 1377 878 c 0,113,114
 1384 872 1384 872 1387.5 865.5 c 128,-1,115
 1391 859 1391 859 1392 854.5 c 128,-1,116
 1393 850 1393 850 1393.5 842.5 c 128,-1,117
 1394 835 1394 835 1395 832 c 0,118,119
 1401 795 1401 795 1385 782 c 0,120,121
 1379 777 1379 777 1371 777 c 0,122,123
 1347 777 1347 777 1308 762 c 0,124,125
 1274 749 1274 749 1268 721 c 0,126,127
 1171 276 1171 276 1105 3 c 0,128,129
 1101 -16 1101 -16 1084 -31 c 0,130,131
 1066 -47 1066 -47 1048 -47 c 0,132,133
 1013 -47 1013 -47 998 -25 c 0,134,135
 997 -24 997 -24 997 -23 c 2,136,-1
 706 495 l 1,137,-1
 600 8 l 2,138,139
 598 -5 598 -5 580 -25 c 0,140,141
 560 -47 560 -47 536 -47 c 0,142,143
 507 -47 507 -47 492 -25 c 0,144,145
 491 -24 491 -24 491 -23 c 0,146,147
 251 395 251 395 31 748 c 0,148,149
 13 777 13 777 -59 777 c 0,150,151
 -66 777 -66 777 -73.5 781.5 c 128,-1,152
 -81 786 -81 786 -85 792 c 0,153,154
 -94 806 -94 806 -98 831 c 128,-1,155
 -102 856 -102 856 -98 870 c 0,156,157
 -94 885 -94 885 -77 885 c 0,158,159
 -46 884 -46 884 -9 881 c 0,160,161
 27 878 27 878 57 876 c 0,162,163
 87 875 87 875 122 875 c 0,0,1
EndSplineSet
Substitution2: "'smcp' Lowercase to Small Capitals lookup 12 subtable" w.sc
EndChar

StartChar: x
Encoding: 120 120 90
Width: 952
GlyphClass: 2
Flags: W
LayerCount: 4
Fore
SplineSet
839 777 m 1,0,1
 781 774 781 774 747 764 c 128,-1,2
 713 754 713 754 706 743 c 0,3,4
 687 708 687 708 649 637 c 0,5,6
 611 565 611 565 586 520 c 0,7,8
 571 493 571 493 564 479 c 1,9,-1
 854 138 l 2,10,11
 907 77 907 77 998 77 c 0,12,13
 1033 77 1033 77 1032 43 c 0,14,15
 1032 41 1032 41 1032 40 c 0,16,17
 1035 26 1035 26 1036 10 c 0,18,19
 1038 -11 1038 -11 1033 -21 c 0,20,21
 1027 -31 1027 -31 1014 -31 c 0,22,23
 987 -30 987 -30 950 -27 c 0,24,25
 914 -24 914 -24 885 -22 c 0,26,27
 857 -21 857 -21 825 -21 c 0,28,29
 788 -21 788 -21 754 -22 c 0,30,31
 721 -23 721 -23 678 -27 c 0,32,33
 635 -30 635 -30 606 -31 c 0,34,35
 589 -32 589 -32 579 -15 c 0,36,37
 571 0 571 0 566 29 c 0,38,39
 566 30 566 30 564.5 34.5 c 128,-1,40
 563 39 563 39 562.5 43 c 128,-1,41
 562 47 562 47 562.5 53 c 128,-1,42
 563 59 563 59 564.5 63.5 c 128,-1,43
 566 68 566 68 571.5 71.5 c 128,-1,44
 577 75 577 75 584 77 c 0,45,46
 611 79 611 79 635 87 c 0,47,48
 639 89 639 89 642 90 c 1,49,50
 534 227 534 227 469 305 c 1,51,52
 458 282 458 282 439 245 c 0,53,54
 402 171 402 171 379 121 c 0,55,56
 373 108 373 108 375 96 c 0,57,58
 375 94 375 94 377 93 c 0,59,60
 380 90 380 90 392 87 c 0,61,62
 410 83 410 83 420 81 c 0,63,64
 430 80 430 80 455 78 c 0,65,66
 456 78 l 0,67,68
 461 77 461 77 464 77 c 0,69,70
 481 77 481 77 489.5 68 c 128,-1,71
 498 59 498 59 498 50 c 2,72,-1
 498 41 l 2,73,74
 502 27 502 27 503 11 c 0,75,76
 505 -11 505 -11 499 -22 c 0,77,78
 493 -32 493 -32 480 -31 c 0,79,80
 451 -30 451 -30 415 -27 c 0,81,82
 380 -24 380 -24 351 -22 c 0,83,84
 323 -21 323 -21 289 -21 c 0,85,86
 256 -21 256 -21 228 -22 c 128,-1,87
 200 -23 200 -23 166 -27 c 0,88,89
 131 -30 131 -30 104 -31 c 0,90,91
 95 -31 95 -31 87 -25.5 c 128,-1,92
 79 -20 79 -20 75 -12 c 0,93,94
 68 4 68 4 66 27 c 0,95,96
 64 52 64 52 68 64 c 0,97,98
 72 73 72 73 82 76 c 0,99,100
 87 77 87 77 107 81 c 0,101,102
 126 84 126 84 133 85 c 0,103,104
 139 86 139 86 156 89 c 0,105,106
 171 92 171 92 178 95 c 0,107,108
 186 99 186 99 200 104 c 0,109,110
 212 109 212 109 218 114 c 0,111,112
 225 120 225 120 233 128 c 0,113,114
 240 136 240 136 245 144 c 0,115,116
 358 362 358 362 384 412 c 1,117,-1
 103 744 l 2,118,119
 91 759 91 759 58 767 c 0,120,121
 19 777 19 777 -16 777 c 0,122,123
 -33 777 -33 777 -41 786 c 128,-1,124
 -49 795 -49 795 -50 804 c 128,-1,125
 -51 813 -51 813 -50 813 c 1,126,127
 -53 826 -53 826 -54 842 c 0,128,129
 -56 861 -56 861 -53 871 c 0,130,131
 -48 886 -48 886 -30 885 c 0,132,133
 81 875 81 875 167 875 c 0,134,135
 258 875 258 875 365 885 c 0,136,137
 374 886 374 886 383 880 c 128,-1,138
 392 874 392 874 395 865 c 0,139,140
 400 853 400 853 404 830 c 0,141,142
 409 802 409 802 401 787 c 0,143,144
 395 777 395 777 382 777 c 0,145,146
 340 777 340 777 329 768 c 1,147,148
 331 764 331 764 337 757 c 2,149,-1
 480 580 l 1,150,151
 491 602 491 602 507 632 c 0,152,153
 538 688 538 688 553 723 c 0,154,155
 564 750 564 750 564 763 c 0,156,157
 563 764 563 764 561 764 c 0,158,159
 547 771 547 771 533 773 c 0,160,161
 516 775 516 775 495 776 c 0,162,163
 477 777 477 777 474 777 c 0,164,165
 466 777 466 777 460 781 c 0,166,167
 451 786 451 786 446 793.5 c 128,-1,168
 441 801 441 801 439.5 806 c 128,-1,169
 438 811 438 811 437.5 818.5 c 128,-1,170
 437 826 437 826 437 828 c 128,-1,171
 437 830 437 830 435.5 835.5 c 128,-1,172
 434 841 434 841 434 843 c 128,-1,173
 434 845 434 845 433 849 c 128,-1,174
 432 853 432 853 432 855.5 c 128,-1,175
 432 858 432 858 432.5 861.5 c 128,-1,176
 433 865 433 865 434 868 c 128,-1,177
 435 871 435 871 436 874 c 0,178,179
 442 886 442 886 456 885 c 0,180,181
 486 884 486 884 525 881 c 0,182,183
 563 878 563 878 593 876 c 0,184,185
 623 875 623 875 659 875 c 0,186,187
 747 875 747 875 814 885 c 0,188,189
 823 886 823 886 832 880.5 c 128,-1,190
 841 875 841 875 845 866 c 0,191,192
 850 854 850 854 854 826 c 0,193,-1
 856 820.5 l 0,194,195
 858 815 858 815 858.5 809.5 c 128,-1,196
 859 804 859 804 858.5 797.5 c 128,-1,197
 858 791 858 791 853 785.5 c 128,-1,198
 848 780 848 780 839 777 c 1,0,1
EndSplineSet
Substitution2: "'smcp' Lowercase to Small Capitals lookup 12 subtable" x.sc
EndChar

StartChar: y
Encoding: 121 121 91
Width: 938
GlyphClass: 2
Flags: W
LayerCount: 4
Fore
SplineSet
84 875 m 0,0,1
 198 875 198 875 280 885 c 0,2,3
 298 887 298 887 308 870 c 0,4,5
 317 855 317 855 320 824 c 0,6,7
 320.5 819 l 0,8,9
 321 814 321 814 321 811 c 128,-1,10
 321 808 321 808 321 802.5 c 128,-1,11
 321 797 321 797 319 793 c 128,-1,12
 317 789 317 789 314 785 c 128,-1,13
 311 781 311 781 306 779 c 128,-1,14
 301 777 301 777 294 777 c 0,15,16
 282 777 282 777 264 775 c 0,17,18
 248 773 248 773 229 766 c 0,19,20
 227 765 227 765 225 764 c 2,21,-1
 495 289 l 1,22,23
 543 517 543 517 581 683 c 0,24,25
 587 708 587 708 581 738 c 0,26,27
 578 753 578 753 558 763 c 0,28,29
 529 777 529 777 484 777 c 0,30,31
 477 777 477 777 471 779 c 128,-1,32
 465 781 465 781 461.5 784 c 128,-1,33
 458 787 458 787 454.5 791.5 c 128,-1,34
 451 796 451 796 449.5 799.5 c 128,-1,35
 448 803 448 803 446.5 808 c 128,-1,36
 445 813 445 813 444.5 816 c 128,-1,37
 444 819 444 819 444 823 c 2,38,-1
 443 827 l 2,39,40
 437 861 437 861 447 876 c 0,41,42
 454 886 454 886 468 885 c 0,43,44
 543 875 543 875 646 875 c 0,45,46
 713 875 713 875 810 885 c 0,47,48
 825 886 825 886 835 874 c 0,49,50
 849 857 849 857 851 823 c 0,51,-1
 852 817.5 l 0,52,53
 853 812 853 812 853 808 c 128,-1,54
 853 804 853 804 852 798 c 128,-1,55
 851 792 851 792 848.5 787.5 c 128,-1,56
 846 783 846 783 840 780 c 128,-1,57
 834 777 834 777 826 777 c 0,58,59
 805 777 805 777 768 763 c 0,60,61
 738 751 738 751 732 724 c 0,62,63
 670 469 670 469 627 289 c 128,-1,64
 584 109 584 109 559 2 c 0,65,66
 553 -22 553 -22 536 -109 c 0,67,68
 518 -198 518 -198 503 -253 c 0,69,70
 487 -309 487 -309 461 -358 c 0,71,72
 399 -481 399 -481 288 -481 c 0,73,74
 236 -481 236 -481 201 -451.5 c 128,-1,75
 166 -422 166 -422 157 -370 c 0,76,77
 150 -332 150 -332 174 -296 c 0,78,79
 180 -287 180 -287 191 -287 c 0,80,81
 266 -287 266 -287 303 -270 c 0,82,83
 339 -253 339 -253 379 -183 c 0,84,85
 394 -157 394 -157 414 -84 c 0,86,87
 431 -23 431 -23 436 3 c 1,88,89
 150 506 150 506 -7 751 c 0,90,91
 -24 777 -24 777 -98 777 c 0,92,93
 -117 777 -117 777 -126.5 790 c 128,-1,94
 -136 803 -136 803 -136 816 c 2,95,-1
 -136 830 l 2,96,97
 -137 833 -137 833 -139 841.5 c 128,-1,98
 -141 850 -141 850 -141.5 854 c 128,-1,99
 -142 858 -142 858 -140.5 865 c 128,-1,100
 -139 872 -139 872 -134 878 c 0,101,102
 -127 886 -127 886 -115 885 c 0,103,104
 -20 875 -20 875 84 875 c 0,0,1
EndSplineSet
Substitution2: "'smcp' Lowercase to Small Capitals lookup 12 subtable" y.sc
EndChar

StartChar: z
Encoding: 122 122 92
Width: 894
GlyphClass: 2
Flags: W
LayerCount: 4
Fore
SplineSet
217 887 m 2,0,-1
 473 887 l 2,1,2
 584 887 584 887 711 903 c 0,3,4
 727 905 727 905 738 891 c 0,5,6
 750 875 750 875 758 830 c 0,7,8
 759 822 759 822 756 816 c 0,9,10
 602 523 602 523 507.5 342 c 128,-1,11
 413 161 413 161 379 95 c 1,12,-1
 613 95 l 2,13,14
 688 95 688 95 730 142 c 0,15,16
 773 190 773 190 780 256 c 0,17,18
 781 270 781 270 790 278.5 c 128,-1,19
 799 287 799 287 813 287 c 0,20,21
 831 287 831 287 853 277 c 0,22,23
 875 267 875 267 889 255 c 0,24,25
 901 243 901 243 898 228 c 0,26,27
 864 83 864 83 851 -8 c 0,28,29
 848 -25 848 -25 830 -25 c 2,30,-1
 180 -25 l 2,31,32
 177 -25 177 -25 173 -24 c 0,33,34
 153 -19 153 -19 135 0.5 c 128,-1,35
 117 20 117 20 113 40 c 0,36,37
 110 59 110 59 115 68 c 2,38,-1
 478 767 l 1,39,-1
 246 769 l 2,40,41
 224 769 224 769 206 762 c 0,42,43
 188 755 188 755 179 747 c 0,44,45
 170 738 170 738 162 723 c 0,46,47
 154 707 154 707 151 697 c 0,48,49
 148 686 148 686 144 668 c 0,50,51
 140 648 140 648 138 643 c 0,52,53
 133 629 133 629 114 619 c 0,54,55
 97 611 97 611 78 611 c 2,56,-1
 75 611 l 2,57,58
 72 611 72 611 69 610.5 c 128,-1,59
 66 610 66 610 61.5 610.5 c 128,-1,60
 57 611 57 611 52.5 612 c 128,-1,61
 48 613 48 613 43.5 615.5 c 128,-1,62
 39 618 39 618 35.5 621.5 c 128,-1,63
 32 625 32 625 29 630 c 128,-1,64
 26 635 26 635 25 642 c 0,65,66
 24 645 24 645 25 649 c 0,67,68
 33 735 33 735 15 879 c 0,69,70
 14 889 14 889 20 897 c 128,-1,71
 26 905 26 905 40 903 c 0,72,73
 147 887 147 887 217 887 c 2,0,-1
EndSplineSet
Substitution2: "'smcp' Lowercase to Small Capitals lookup 12 subtable" z.sc
EndChar

StartChar: braceleft
Encoding: 123 123 93
Width: 444
GlyphClass: 2
Flags: W
LayerCount: 4
Fore
SplineSet
149 766 m 0,0,1
 147 776 147 776 145 785 c 0,2,3
 143 793 143 793 138 804 c 0,4,5
 132 817 132 817 129 824 c 0,6,7
 126 830 126 830 118 844.5 c 128,-1,8
 110 859 110 859 108 862 c 0,9,10
 105 867 105 867 93 886 c 0,11,12
 83 902 83 902 81 906 c 0,13,14
 15 1010 15 1010 2 1082 c 0,15,16
 -23 1222 -23 1222 32 1326 c 0,17,18
 86 1430 86 1430 164 1463 c 0,19,20
 168 1465 168 1465 173 1465 c 0,21,22
 197 1465 197 1465 218 1444 c 0,23,24
 237 1425 237 1425 241 1402 c 0,25,26
 244 1386 244 1386 231 1380 c 0,27,28
 189 1357 189 1357 150 1296 c 0,29,30
 112 1238 112 1238 123 1178 c 0,31,32
 126 1163 126 1163 129 1149 c 0,33,34
 132 1137 132 1137 137 1124 c 0,35,36
 143 1109 143 1109 148 1099 c 0,37,38
 152 1091 152 1091 160 1076 c 0,39,40
 169 1060 169 1060 172.5 1054 c 128,-1,41
 176 1048 176 1048 187 1029 c 0,42,43
 198 1012 198 1012 201 1006 c 0,44,45
 267 905 267 905 283.5 810 c 128,-1,46
 300 715 300 715 260 644 c 0,47,48
 235 601 235 601 205 576 c 1,49,50
 243 551 243 551 284 508 c 0,51,52
 350 437 350 437 366.5 342 c 128,-1,53
 383 247 383 247 353 146 c 0,54,55
 352 140 352 140 347 123 c 0,56,57
 342 105 342 105 340.5 99 c 128,-1,58
 339 93 339 93 336 76 c 0,59,60
 333 61 333 61 332 53 c 0,61,62
 331 43 331 43 330 28 c 0,63,64
 329 15 329 15 331 3 c 0,65,66
 332 -11 332 -11 335 -26 c 0,67,68
 346 -86 346 -86 404 -144 c 0,69,70
 465 -205 465 -205 515 -228 c 0,71,72
 530 -235 530 -235 533 -250 c 0,73,74
 537 -273 537 -273 524 -292 c 0,75,76
 510 -313 510 -313 487 -313 c 0,77,78
 482 -313 482 -313 477 -311 c 0,79,80
 387 -277 387 -277 296 -174 c 0,81,82
 205 -70 205 -70 180 70 c 0,83,84
 167 141 167 141 197 246 c 0,85,86
 198 250 198 250 203 266 c 0,87,88
 208 285 208 285 209 290 c 0,89,90
 210 293 210 293 213 307.5 c 128,-1,91
 216 322 216 322 217 328 c 0,92,93
 218 336 218 336 219 348 c 0,94,95
 220 358 220 358 219 367 c 0,96,97
 218 376 218 376 217 386 c 0,98,99
 207 442 207 442 169 477 c 128,-1,100
 131 512 131 512 58 530 c 0,101,102
 47 533 47 533 40 542 c 0,103,104
 30 555 30 555 26.5 576.5 c 128,-1,105
 23 598 23 598 28 610 c 0,106,107
 32 619 32 619 42 622 c 0,108,109
 109 640 109 640 134 675 c 128,-1,110
 159 710 159 710 149 766 c 0,0,1
EndSplineSet
Substitution2: "'smcp' Lowercase to Small Capitals lookup 12 subtable" braceleft.sc
EndChar

StartChar: bar
Encoding: 124 124 94
Width: 410
GlyphClass: 2
Flags: W
LayerCount: 4
Fore
SplineSet
434 -212 m 2,0,1
 435 -220 435 -220 433 -227 c 128,-1,2
 431 -234 431 -234 428 -238 c 128,-1,3
 425 -242 425 -242 417.5 -246 c 128,-1,4
 410 -250 410 -250 406 -251 c 128,-1,5
 402 -252 402 -252 393 -255 c 128,-1,6
 384 -258 384 -258 382 -258 c 0,7,8
 339 -271 339 -271 327 -271 c 0,9,10
 315 -271 315 -271 306 -266 c 0,11,12
 294 -260 294 -260 289 -249 c 0,13,14
 286 -242 286 -242 285 -233 c 0,15,16
 285 -231 285 -231 285 -229 c 2,17,-1
 -22 1512 l 2,18,19
 -30 1544 -30 1544 -2 1554 c 0,20,21
 47 1569 47 1569 77 1569 c 0,22,23
 93 1569 93 1569 105 1561 c 0,24,25
 121 1551 121 1551 124 1535 c 2,26,-1
 124 1532 l 1,27,-1
 434 -212 l 2,0,1
EndSplineSet
Substitution2: "'smcp' Lowercase to Small Capitals lookup 12 subtable" bar.sc
EndChar

StartChar: braceright
Encoding: 125 125 95
Width: 446
GlyphClass: 2
Flags: W
LayerCount: 4
Fore
SplineSet
-33 1463 m 0,0,1
 57 1429 57 1429 148 1326 c 0,2,3
 239 1222 239 1222 264 1082 c 0,4,5
 277 1011 277 1011 247 906 c 0,6,7
 246 902 246 902 241 886 c 0,8,9
 236 867 236 867 235 862 c 0,10,11
 234 859 234 859 231 844.5 c 128,-1,12
 228 830 228 830 227 824 c 0,13,14
 226 816 226 816 225 804 c 0,15,16
 224 794 224 794 225 785 c 0,17,18
 226 776 226 776 227 766 c 0,19,20
 237 710 237 710 275 675 c 128,-1,21
 313 640 313 640 386 622 c 0,22,23
 397 619 397 619 404 610 c 0,24,25
 414 597 414 597 417.5 575.5 c 128,-1,26
 421 554 421 554 416 542 c 0,27,28
 412 533 412 533 402 530 c 0,29,30
 335 512 335 512 310 477 c 128,-1,31
 285 442 285 442 295 386 c 0,32,33
 297 376 297 376 299 367 c 0,34,35
 301 359 301 359 306 348 c 0,36,37
 312 335 312 335 315 328 c 0,38,39
 318 322 318 322 326 307.5 c 128,-1,40
 334 293 334 293 336 290 c 0,41,42
 339 285 339 285 351 266 c 0,43,44
 361 250 361 250 363 246 c 0,45,46
 429 142 429 142 442 70 c 0,47,48
 467 -70 467 -70 412 -174 c 0,49,50
 358 -278 358 -278 280 -311 c 0,51,52
 276 -313 276 -313 271 -313 c 0,53,54
 247 -313 247 -313 226 -292 c 0,55,56
 207 -273 207 -273 203 -250 c 0,57,58
 200 -234 200 -234 213 -228 c 0,59,60
 255 -205 255 -205 294 -144 c 0,61,62
 332 -86 332 -86 321 -26 c 0,63,64
 318 -11 318 -11 315 3 c 0,65,66
 312 15 312 15 307 28 c 0,67,68
 301 43 301 43 296 53 c 0,69,70
 292 61 292 61 284 76 c 0,71,72
 275 92 275 92 271.5 98 c 128,-1,73
 268 104 268 104 257 123 c 0,74,75
 246 140 246 140 243 146 c 0,76,77
 177 247 177 247 160.5 342 c 128,-1,78
 144 437 144 437 184 508 c 0,79,80
 209 551 209 551 239 576 c 1,81,82
 201 601 201 601 160 644 c 0,83,84
 94 715 94 715 77.5 810 c 128,-1,85
 61 905 61 905 91 1006 c 0,86,87
 92 1012 92 1012 97 1029 c 0,88,89
 102 1047 102 1047 103.5 1053 c 128,-1,90
 105 1059 105 1059 108 1076 c 0,91,92
 111 1091 111 1091 112 1099 c 0,93,94
 113 1109 113 1109 114 1124 c 0,95,96
 115 1137 115 1137 113 1149 c 0,97,98
 112 1163 112 1163 109 1178 c 0,99,100
 98 1238 98 1238 40 1296 c 0,101,102
 -21 1357 -21 1357 -71 1380 c 0,103,104
 -86 1387 -86 1387 -89 1402 c 0,105,106
 -93 1425 -93 1425 -80 1444 c 0,107,108
 -66 1465 -66 1465 -43 1465 c 0,109,110
 -38 1465 -38 1465 -33 1463 c 0,0,1
EndSplineSet
Substitution2: "'smcp' Lowercase to Small Capitals lookup 12 subtable" braceright.sc
EndChar

StartChar: asciitilde
Encoding: 126 126 96
Width: 1140
GlyphClass: 2
Flags: W
LayerCount: 4
Fore
SplineSet
546 531 m 0,0,1
 496 548 496 548 469 556 c 0,2,3
 443 564 443 564 399 573 c 0,4,5
 355 581 355 581 316 581 c 0,6,7
 270 581 270 581 237 561 c 0,8,9
 201 539 201 539 165 500 c 0,10,11
 154 488 154 488 138 496 c 0,12,13
 103 512 103 512 96 552 c 0,14,15
 84 620 84 620 175 679 c 0,16,17
 260 733 260 733 349 733 c 0,18,19
 395 733 395 733 447 723 c 0,20,21
 498 713 498 713 524 705 c 0,22,23
 548 697 548 697 605 678 c 0,24,25
 655 661 655 661 683 652 c 0,26,27
 709 644 709 644 754 635 c 0,28,29
 798 627 798 627 840 627 c 0,30,31
 852 627 852 627 863 629 c 0,32,33
 876 631 876 631 887 634 c 0,34,35
 894 635 894 635 903 640 c 0,36,37
 915 647 915 647 922 651 c 0,38,39
 927 654 927 654 937 663 c 0,40,41
 949 673 949 673 953 676 c 0,42,43
 957 679 957 679 972 693 c 0,44,45
 987 707 987 707 990 710 c 0,46,47
 1001 719 1001 719 1016 712 c 0,48,49
 1051 696 1051 696 1058 656 c 0,50,51
 1069 591 1069 591 986 531 c 0,52,53
 907 475 907 475 809 475 c 0,54,55
 761 475 761 475 711 484 c 0,56,57
 662 493 662 493 629 503 c 0,58,59
 597 513 597 513 546 531 c 0,0,1
EndSplineSet
Substitution2: "'smcp' Lowercase to Small Capitals lookup 12 subtable" asciitilde.sc
EndChar

StartChar: exclamdown
Encoding: 161 161 98
Width: 430
GlyphClass: 2
Flags: W
LayerCount: 4
Fore
SplineSet
-14 748 m 0,0,1
 -24 803 -24 803 7 844 c 0,2,3
 39 885 39 885 94 885 c 0,4,5
 149 885 149 885 197.5 844 c 128,-1,6
 246 803 246 803 256 748 c 0,7,8
 266 692 266 692 231 653 c 0,9,10
 197 615 197 615 142 615 c 0,11,12
 87 615 87 615 41.5 654 c 128,-1,13
 -4 693 -4 693 -14 748 c 0,0,1
326 -471 m 0,14,15
 269 -471 269 -471 231 -424 c 0,16,17
 197 -382 197 -382 188 -330 c 0,18,19
 185 -313 185 -313 180 -272 c 0,20,21
 176 -231 176 -231 168.5 -155 c 128,-1,22
 161 -79 161 -79 154 4 c 0,23,24
 147 86 147 86 134.5 226.5 c 128,-1,25
 122 367 122 367 110 496 c 0,26,27
 110 501 110 501 111 505 c 0,28,29
 123 541 123 541 156 545 c 0,30,31
 162 546 162 546 168 543 c 0,32,33
 200 532 200 532 215 509 c 0,34,35
 218 505 218 505 219 500 c 0,36,37
 401 -191 401 -191 426 -330 c 0,38,39
 435 -384 435 -384 410 -426 c 0,40,41
 383 -471 383 -471 326 -471 c 0,14,15
EndSplineSet
Substitution2: "'smcp' Lowercase to Small Capitals lookup 12 subtable" exclamdown.sc
EndChar

StartChar: cent
Encoding: 162 162 99
Width: 892
GlyphClass: 2
Flags: W
LayerCount: 4
Fore
SplineSet
448 969 m 0,0,1
 450 969 450 969 459.5 969.5 c 128,-1,2
 469 970 469 970 474.5 969.5 c 128,-1,3
 480 969 480 969 490 968.5 c 128,-1,4
 500 968 500 968 506.5 965.5 c 128,-1,5
 513 963 513 963 519.5 959 c 128,-1,6
 526 955 526 955 530 948 c 128,-1,7
 534 941 534 941 536 932 c 0,8,9
 536 930 536 930 536 928 c 2,10,-1
 551 -94 l 2,11,12
 551 -103 551 -103 544.5 -109 c 128,-1,13
 538 -115 538 -115 530 -115 c 0,14,15
 528 -115 528 -115 520.5 -115 c 128,-1,16
 513 -115 513 -115 509.5 -115 c 128,-1,17
 506 -115 506 -115 497.5 -114.5 c 128,-1,18
 489 -114 489 -114 484.5 -113 c 128,-1,19
 480 -112 480 -112 473.5 -110.5 c 128,-1,20
 467 -109 467 -109 462.5 -106 c 128,-1,21
 458 -103 458 -103 453.5 -99 c 128,-1,22
 449 -95 449 -95 446 -89 c 128,-1,23
 443 -83 443 -83 442 -76 c 0,24,25
 442 -74 442 -74 441 -72 c 2,26,-1
 428 948 l 2,27,28
 428 957 428 957 433.5 963 c 128,-1,29
 439 969 439 969 448 969 c 0,0,1
740 772 m 0,30,31
 750 713 750 713 726 682 c 0,32,33
 701 651 701 651 661 651 c 0,34,35
 634 651 634 651 604 668 c 0,36,37
 580 682 580 682 552 704 c 0,38,39
 528 723 528 723 517 729 c 0,40,41
 482 750 482 750 462 757 c 0,42,43
 443 763 443 763 411 763 c 0,44,45
 338 763 338 763 290 681 c 0,46,47
 241 595 241 595 266 454 c 0,48,49
 294 297 294 297 390 219 c 0,50,51
 487 141 487 141 620 141 c 0,52,53
 685 141 685 141 729 170 c 0,54,55
 775 201 775 201 797 234 c 0,56,57
 803 243 803 243 815 243 c 0,58,59
 821 243 821 243 825.5 241.5 c 128,-1,60
 830 240 830 240 832 238.5 c 128,-1,61
 834 237 834 237 835.5 235.5 c 128,-1,62
 837 234 837 234 838 233 c 0,63,64
 847 226 847 226 854 215 c 0,65,66
 862 203 862 203 865 190 c 0,67,68
 869 167 869 167 858 141 c 0,69,70
 846 113 846 113 825 85 c 0,71,72
 804 57 804 57 772 28 c 0,73,74
 738 -2 738 -2 687 -22 c 0,75,76
 636 -41 636 -41 577 -41 c 0,77,78
 453 -41 453 -41 342 21 c 0,79,80
 231 83 231 83 161 180 c 0,81,82
 91 277 91 277 72 388 c 0,83,84
 56 477 56 477 74 559 c 0,85,86
 92 641 92 641 134 702 c 0,87,88
 176 762 176 762 234 808 c 0,89,90
 292 854 292 854 358 877 c 0,91,92
 425 901 425 901 492 901 c 0,93,94
 608 901 608 901 696 849 c 0,95,96
 698 848 698 848 700 846 c 0,97,98
 713 835 713 835 725 812 c 0,99,100
 737 790 737 790 740 772 c 0,30,31
EndSplineSet
EndChar

StartChar: sterling
Encoding: 163 163 100
Width: 954
GlyphClass: 2
Flags: W
LayerCount: 4
Fore
SplineSet
510 1297 m 0,0,1
 562 1297 562 1297 596 1285 c 0,2,3
 628 1274 628 1274 677 1245 c 0,4,5
 679 1244 679 1244 681 1242 c 0,6,7
 694 1231 694 1231 707 1208 c 0,8,9
 719 1186 719 1186 722 1168 c 0,10,11
 732 1109 732 1109 708 1078 c 0,12,13
 683 1047 683 1047 642 1047 c 0,14,15
 621 1047 621 1047 597 1058 c 0,16,17
 576 1068 576 1068 562 1079 c 0,18,19
 550 1088 550 1088 530 1106 c 0,20,21
 511 1123 511 1123 504 1128 c 0,22,23
 482 1146 482 1146 471 1151 c 0,24,25
 461 1155 461 1155 447 1155 c 0,26,27
 409 1155 409 1155 390 1126 c 0,28,29
 368 1093 368 1093 367 1043 c 0,30,31
 365 989 365 989 378 918 c 0,32,33
 391 842 391 842 433 722 c 0,34,35
 435 716 435 716 438 709 c 1,36,-1
 748 709 l 2,37,38
 757 709 757 709 764 704 c 0,39,40
 794 683 794 683 793 652 c 0,41,42
 792 632 792 632 783 615 c 0,43,44
 775 598 775 598 764 591 c 0,45,46
 759 587 759 587 751 587 c 2,47,-1
 476 587 l 1,48,49
 483 562 483 562 486 544 c 0,50,51
 505 439 505 439 459 333 c 0,52,53
 435 277 435 277 409 235 c 1,54,55
 450 235 450 235 491 219 c 0,56,57
 531 204 531 204 563 184 c 0,58,59
 589 168 589 168 636.5 154.5 c 128,-1,60
 684 141 684 141 740 141 c 0,61,62
 772 141 772 141 799 157 c 0,63,64
 828 174 828 174 846 201 c 0,65,66
 865 231 865 231 875 250 c 0,67,68
 885 270 885 270 891 289 c 0,69,70
 895 303 895 303 911 303 c 0,71,72
 919 303 919 303 923.5 301.5 c 128,-1,73
 928 300 928 300 931 297 c 128,-1,74
 934 294 934 294 935 294 c 0,75,76
 946 287 946 287 956 276 c 0,77,78
 970 261 970 261 972 246 c 0,79,80
 975 230 975 230 972 208 c 0,81,82
 967 178 967 178 948 139 c 0,83,84
 929 101 929 101 898 59 c 0,85,86
 866 16 866 16 814 -12 c 0,87,88
 761 -41 761 -41 700 -41 c 128,-1,89
 639 -41 639 -41 577 -22 c 0,90,91
 516 -3 516 -3 476 20 c 0,92,93
 440 40 440 40 398 57 c 0,94,95
 359 73 359 73 330 73 c 0,96,97
 312 73 312 73 302 61 c 0,98,99
 288 44 288 44 278 17 c 0,100,101
 271 0 271 0 265.5 -11 c 128,-1,102
 260 -22 260 -22 254 -30 c 0,103,104
 248 -37 248 -37 237 -37 c 0,105,106
 212 -37 212 -37 190 -11 c 0,107,108
 172 10 172 10 168 32 c 0,109,110
 156 98 156 98 245 206 c 0,111,112
 277 245 277 245 294.5 320.5 c 128,-1,113
 312 396 312 396 300 462 c 0,114,115
 297 477 297 477 261 587 c 1,116,-1
 117 587 l 2,117,118
 107 587 107 587 98 594 c 0,119,120
 85 605 85 605 83 620.5 c 128,-1,121
 81 636 81 636 84 644 c 128,-1,122
 87 652 87 652 94 666 c 0,123,124
 100 680 100 680 104.5 687.5 c 128,-1,125
 109 695 109 695 119 702 c 128,-1,126
 129 709 129 709 142 709 c 2,127,-1
 221 709 l 1,128,129
 200 776 200 776 195 798 c 2,130,-1
 192 815 l 2,131,132
 175 909 175 909 192 995 c 0,133,134
 209 1089 209 1089 254 1154 c 128,-1,135
 299 1219 299 1219 366 1258 c 0,136,137
 434 1297 434 1297 510 1297 c 0,0,1
EndSplineSet
EndChar

StartChar: currency
Encoding: 164 164 101
Width: 1148
GlyphClass: 2
Flags: W
LayerCount: 4
Fore
SplineSet
639 329 m 0,0,1
 715 329 715 329 751 402 c 0,2,3
 790 480 790 480 771 588 c 0,4,5
 748 717 748 717 665 811 c 0,6,7
 586 901 586 901 504 901 c 0,8,9
 428 901 428 901 392 826 c 0,10,11
 353 746 353 746 372 638 c 0,12,13
 395 509 395 509 477 417 c 0,14,15
 557 329 557 329 639 329 c 0,0,1
738 943 m 1,16,-1
 823 1038 l 2,17,18
 842 1061 842 1061 881 1036 c 0,19,20
 904 1021 904 1021 927 993 c 0,21,22
 950 966 950 966 964 939 c 0,23,24
 971 924 971 924 961 914 c 2,25,-1
 873 815 l 1,26,27
 941 720 941 720 960 614 c 0,28,29
 981 498 981 498 938 401 c 1,30,-1
 1051 299 l 2,31,32
 1078 276 1078 276 1058 242 c 0,33,34
 1047 222 1047 222 1023 203 c 0,35,36
 999 184 999 184 974 176 c 0,37,38
 960 171 960 171 947 183 c 2,39,-1
 841 277 l 1,40,41
 757 215 757 215 643 215 c 0,42,43
 517 215 517 215 404 287 c 1,44,-1
 329 202 l 2,45,46
 310 179 310 179 271 204 c 0,47,48
 248 219 248 219 225 247 c 0,49,50
 202 274 202 274 188 301 c 0,51,52
 181 316 181 316 191 326 c 2,53,-1
 268 414 l 1,54,55
 198 508 198 508 180 614 c 0,56,57
 157 742 157 742 208 844 c 1,58,-1
 101 941 l 2,59,60
 74 964 74 964 94 998 c 0,61,62
 105 1018 105 1018 129 1037 c 0,63,64
 153 1056 153 1056 178 1064 c 0,65,66
 192 1069 192 1069 205 1057 c 2,67,-1
 312 962 l 1,68,69
 392 1017 392 1017 502 1017 c 0,70,71
 626 1017 626 1017 738 943 c 1,16,-1
EndSplineSet
EndChar

StartChar: yen
Encoding: 165 165 102
Width: 1344
GlyphClass: 2
Flags: W
LayerCount: 4
Fore
SplineSet
617 411 m 1,0,-1
 446 411 l 2,1,2
 436 411 436 411 427 418 c 0,3,4
 415 428 415 428 412 443.5 c 128,-1,5
 409 459 409 459 411 467 c 128,-1,6
 413 475 413 475 419 489 c 0,7,8
 424 503 424 503 428 511 c 128,-1,9
 432 519 432 519 441.5 527 c 128,-1,10
 451 535 451 535 464 535 c 2,11,-1
 584 535 l 1,12,13
 502 648 502 648 392 796 c 0,14,15
 281 945 281 945 211 1040 c 0,16,17
 173 1091 173 1091 142 1118 c 128,-1,18
 111 1145 111 1145 66 1168 c 0,19,20
 43 1180 43 1180 10.5 1188.5 c 128,-1,21
 -22 1197 -22 1197 -39 1197 c 0,22,23
 -72 1197 -72 1197 -81 1247 c 0,24,25
 -87 1282 -87 1282 -74 1298 c 0,26,27
 -68 1306 -68 1306 -57 1305 c 0,28,29
 -22 1304 -22 1304 26 1301 c 128,-1,30
 74 1298 74 1298 113 1296 c 0,31,32
 151 1295 151 1295 194 1295 c 0,33,34
 249 1295 249 1295 447 1305 c 0,35,36
 464 1306 464 1306 474 1290 c 0,37,38
 483 1276 483 1276 487 1246 c 0,39,-1
 488 1242 l 0,40,41
 489 1238 489 1238 489.5 1235 c 128,-1,42
 490 1232 490 1232 490 1227.5 c 128,-1,43
 490 1223 490 1223 489.5 1219 c 128,-1,44
 489 1215 489 1215 487.5 1210.5 c 128,-1,45
 486 1206 486 1206 483 1203.5 c 128,-1,46
 480 1201 480 1201 475 1199 c 128,-1,47
 470 1197 470 1197 463 1197 c 0,48,49
 446 1197 446 1197 424 1193 c 0,50,51
 404 1189 404 1189 385 1176 c 0,52,53
 373 1168 373 1168 375 1158 c 0,54,55
 377 1144 377 1144 404 1111 c 2,56,-1
 737 673 l 1,57,58
 779 786 779 786 826 929 c 0,59,60
 882 1095 882 1095 894 1149 c 0,61,62
 895 1159 895 1159 895 1166 c 0,63,64
 893 1168 893 1168 891 1169 c 0,65,66
 881 1176 881 1176 848 1185 c 0,67,68
 813 1195 813 1195 766 1195 c 0,69,70
 758 1195 758 1195 751 1197.5 c 128,-1,71
 744 1200 744 1200 740 1204.5 c 128,-1,72
 736 1209 736 1209 733 1214 c 128,-1,73
 730 1219 730 1219 729 1224.5 c 128,-1,74
 728 1230 728 1230 727.5 1234.5 c 128,-1,75
 727 1239 727 1239 726.5 1242.5 c 0,76,-1
 726 1246 l 0,77,78
 725 1249 725 1249 723 1257.5 c 128,-1,79
 721 1266 721 1266 720 1270 c 128,-1,80
 719 1274 719 1274 720 1280.5 c 128,-1,81
 721 1287 721 1287 724 1293 c 0,82,83
 730 1304 730 1304 744 1303 c 0,84,85
 930 1293 930 1293 950 1293 c 0,86,87
 996 1293 996 1293 1030 1294.5 c 128,-1,88
 1064 1296 1064 1296 1102 1299 c 0,89,90
 1141 1302 1141 1302 1168 1303 c 0,91,92
 1187 1304 1187 1304 1195 1286 c 0,93,94
 1202 1272 1202 1272 1206 1243 c 0,95,-1
 1206.5 1240.5 l 0,96,97
 1207 1238 1207 1238 1208 1235 c 128,-1,98
 1209 1232 1209 1232 1209.5 1227.5 c 128,-1,99
 1210 1223 1210 1223 1210 1218.5 c 128,-1,100
 1210 1214 1210 1214 1208.5 1209.5 c 128,-1,101
 1207 1205 1207 1205 1204 1202 c 128,-1,102
 1201 1199 1201 1199 1196 1197 c 128,-1,103
 1191 1195 1191 1195 1184 1195 c 0,104,105
 1171 1195 1171 1195 1157 1193.5 c 128,-1,106
 1143 1192 1143 1192 1114 1186 c 0,107,108
 1089 1180 1089 1180 1068 1165 c 0,109,110
 1048 1150 1048 1150 1039 1128 c 0,111,112
 997 1021 997 1021 826 546 c 0,113,114
 825 542 825 542 824 535 c 1,115,-1
 988 535 l 2,116,117
 997 535 997 535 1004 530 c 0,118,119
 1034 509 1034 509 1032 477 c 0,120,121
 1030 457 1030 457 1022 440 c 0,122,123
 1013 423 1013 423 1002 415 c 0,124,125
 997 411 997 411 990 411 c 2,126,-1
 842 411 l 1,127,128
 845 393 845 393 848 375 c 1,129,-1
 1016 375 l 2,130,131
 1025 375 1025 375 1033 370 c 0,132,133
 1063 349 1063 349 1061 317 c 0,134,135
 1059 297 1059 297 1051 280 c 0,136,137
 1042 263 1042 263 1031 255 c 0,138,139
 1026 251 1026 251 1018 251 c 2,140,-1
 869 251 l 1,141,-1
 872 232 l 2,142,143
 890 129 890 129 904 96 c 1,144,145
 916 91 916 91 943 86 c 0,146,147
 994 77 994 77 1023 77 c 0,148,149
 1035 77 1035 77 1045 67 c 0,150,151
 1058 53 1058 53 1064 24 c 0,152,153
 1070 -7 1070 -7 1059 -22 c 0,154,155
 1053 -31 1053 -31 1041 -31 c 0,156,157
 835 -21 835 -21 806 -21 c 0,158,159
 776 -21 776 -21 573 -31 c 0,160,161
 561 -32 561 -32 551 -22 c 0,162,163
 535 -7 535 -7 531 24 c 0,164,165
 527 53 527 53 535 67 c 0,166,167
 541 77 541 77 553 77 c 0,168,169
 581 77 581 77 629 86 c 0,170,171
 655 91 655 91 665 96 c 1,172,173
 667 129 667 129 648 232 c 2,174,-1
 645 251 l 1,175,-1
 474 251 l 2,176,177
 464 251 464 251 455 258 c 0,178,179
 443 268 443 268 440 283.5 c 128,-1,180
 437 299 437 299 439 307 c 128,-1,181
 441 315 441 315 447 329 c 0,182,183
 452 343 452 343 456 351 c 128,-1,184
 460 359 460 359 469.5 367 c 128,-1,185
 479 375 479 375 492 375 c 2,186,-1
 623 375 l 1,187,-1
 617 411 l 1,0,-1
EndSplineSet
EndChar

StartChar: brokenbar
Encoding: 166 166 103
Width: 428
GlyphClass: 2
Flags: W
LayerCount: 4
Fore
SplineSet
265 798 m 0,0,1
 266 790 266 790 263.5 783.5 c 128,-1,2
 261 777 261 777 258 773.5 c 128,-1,3
 255 770 255 770 247.5 766.5 c 128,-1,4
 240 763 240 763 236.5 762 c 128,-1,5
 233 761 233 761 223.5 758.5 c 128,-1,6
 214 756 214 756 213 756 c 0,7,8
 172 745 172 745 158 745 c 0,9,10
 146 745 146 745 136 750 c 0,11,12
 124 756 124 756 120 767 c 0,13,14
 117 774 117 774 116 783 c 0,15,16
 116 785 116 785 115 787 c 2,17,-1
 -12 1512 l 2,18,19
 -20 1544 -20 1544 8 1554 c 0,20,21
 44 1565 44 1565 89 1565 c 0,22,23
 105 1565 105 1565 118 1557 c 0,24,25
 134 1547 134 1547 136 1531 c 2,26,-1
 265 800 l 2,27,28
 265 799 265 799 265 798 c 0,0,1
295 -229 m 2,29,-1
 167 496 l 2,30,31
 159 528 159 528 187 538 c 0,32,33
 223 549 223 549 268 549 c 0,34,35
 284 549 284 549 297 541 c 0,36,37
 313 530 313 530 315 515 c 2,38,-1
 444 -216 l 2,39,40
 444 -217 444 -217 444 -218 c 0,41,42
 445 -226 445 -226 442.5 -232.5 c 128,-1,43
 440 -239 440 -239 437 -242.5 c 128,-1,44
 434 -246 434 -246 426.5 -249.5 c 128,-1,45
 419 -253 419 -253 415.5 -254 c 128,-1,46
 412 -255 412 -255 402.5 -257.5 c 128,-1,47
 393 -260 393 -260 392 -260 c 0,48,49
 351 -271 351 -271 337 -271 c 0,50,51
 325 -271 325 -271 316 -266 c 0,52,53
 304 -260 304 -260 299 -249 c 0,54,55
 296 -242 296 -242 295 -233 c 0,56,57
 295 -231 295 -231 295 -229 c 2,29,-1
EndSplineSet
EndChar

StartChar: section
Encoding: 167 167 104
Width: 882
GlyphClass: 2
Flags: W
LayerCount: 4
Fore
SplineSet
409 -181 m 0,0,1
 359 -181 359 -181 314 -163 c 0,2,3
 305 -159 305 -159 300 -151 c 0,4,5
 280 -122 280 -122 274 -88 c 0,6,7
 268 -56 268 -56 294 -24 c 0,8,9
 306 -9 306 -9 321 0 c 128,-1,10
 336 9 336 9 354 9 c 0,11,12
 369 9 369 9 384 5 c 0,13,14
 397 2 397 2 405 -1 c 0,15,16
 413 -4 413 -4 427 -11 c 0,17,18
 440 -17 440 -17 442 -18 c 0,19,20
 471 -31 471 -31 497 -31 c 0,21,22
 527 -31 527 -31 558 -22 c 0,23,24
 586 -13 586 -13 606 9 c 0,25,26
 623 28 623 28 619 52 c 0,27,28
 610 104 610 104 526 189 c 0,29,30
 437 280 437 280 328 366 c 0,31,32
 274 409 274 409 230 449 c 0,33,34
 186 490 186 490 139 544 c 0,35,36
 90 600 90 600 57 663 c 0,37,38
 24 727 24 727 13 792 c 0,39,40
 -6 900 -6 900 71 1045 c 0,41,42
 133 1162 133 1162 189 1218 c 0,43,44
 198 1229 198 1229 208 1240 c 0,45,46
 209 1241 l 0,47,48
 302 1331 302 1331 475 1331 c 0,49,50
 525 1331 525 1331 570 1313 c 0,51,52
 579 1309 579 1309 584 1301 c 0,53,54
 604 1272 604 1272 610 1238 c 0,55,56
 616 1206 616 1206 590 1174 c 0,57,58
 564 1141 564 1141 530 1141 c 0,59,60
 515 1141 515 1141 500 1145 c 0,61,62
 487 1148 487 1148 479 1151 c 0,63,64
 471 1154 471 1154 457 1161 c 0,65,66
 444 1167 444 1167 442 1168 c 0,67,68
 413 1181 413 1181 387 1181 c 0,69,70
 357 1181 357 1181 326 1172 c 0,71,72
 298 1163 298 1163 278 1141 c 0,73,74
 261 1122 261 1122 265 1098 c 0,75,76
 274 1046 274 1046 358 961 c 0,77,78
 447 870 447 870 556 784 c 0,79,80
 610 741 610 741 654 701 c 0,81,82
 698 660 698 660 745 606 c 0,83,84
 794 550 794 550 827 487 c 0,85,86
 860 423 860 423 871 358 c 0,87,88
 890 250 890 250 813 105 c 0,89,90
 751 -12 751 -12 695 -68 c 0,91,92
 686 -79 686 -79 676 -90 c 0,93,94
 675 -91 l 0,95,96
 582 -181 582 -181 409 -181 c 0,0,1
729 194 m 1,97,98
 733 212 733 212 733 228 c 0,99,100
 733 247 733 247 729 270 c 0,101,102
 697 452 697 452 446 651 c 0,103,104
 438 657 438 657 403 684 c 0,105,106
 366 713 366 713 354.5 722.5 c 128,-1,107
 343 732 343 732 309 761 c 0,108,109
 274 791 274 791 260 807 c 0,110,111
 246 822 246 822 222 850 c 0,112,113
 196 880 196 880 181 904 c 0,114,115
 168 927 168 927 156 955 c 2,116,-1
 155 956 l 1,117,118
 151 938 151 938 151 922 c 0,119,120
 151 903 151 903 155 880 c 0,121,122
 187 698 187 698 438 499 c 0,123,124
 446 493 446 493 481 466 c 0,125,126
 518 437 518 437 529.5 427.5 c 128,-1,127
 541 418 541 418 575 389 c 0,128,129
 610 359 610 359 624 343 c 0,130,131
 638 328 638 328 662 300 c 0,132,133
 688 270 688 270 703 246 c 0,134,135
 716 223 716 223 728 195 c 2,136,-1
 729 194 l 1,97,98
EndSplineSet
EndChar

StartChar: copyright
Encoding: 169 169 106
Width: 1318
GlyphClass: 2
Flags: W
LayerCount: 4
Fore
SplineSet
960 552 m 0,0,1
 962 540 962 540 956 481 c 0,2,3
 955 476 955 476 954.5 462 c 128,-1,4
 954 448 954 448 953 442.5 c 128,-1,5
 952 437 952 437 949.5 428 c 128,-1,6
 947 419 947 419 942.5 413.5 c 128,-1,7
 938 408 938 408 931 405 c 0,8,9
 839 365 839 365 716 365 c 0,10,11
 585 365 585 365 479.5 454 c 128,-1,12
 374 543 374 543 351 672 c 0,13,14
 328 804 328 804 398 897 c 0,15,16
 469 991 469 991 602 991 c 0,17,18
 732 991 732 991 842 951 c 0,19,20
 855 947 855 947 860 935 c 0,21,22
 914 818 914 818 915 806 c 0,23,24
 919 784 919 784 898 771 c 0,25,26
 884 763 884 763 866 763 c 0,27,28
 854 763 854 763 840 770 c 0,29,30
 829 775 829 775 824 786 c 0,31,32
 820 795 820 795 811 807 c 0,33,34
 801 820 801 820 780 836 c 0,35,36
 762 851 762 851 728 862 c 0,37,38
 692 873 692 873 647 873 c 0,39,40
 578 873 578 873 539 819 c 0,41,42
 499 764 499 764 512 690 c 0,43,44
 530 589 530 589 597 534 c 0,45,46
 665 479 665 479 734 479 c 0,47,48
 827 479 827 479 855 510 c 0,49,50
 860 517 860 517 863 528 c 0,51,52
 867 542 867 542 867 552 c 0,53,54
 866 553 866 553 865.5 555 c 128,-1,55
 865 557 865 557 864 562.5 c 128,-1,56
 863 568 863 568 864.5 572 c 128,-1,57
 866 576 866 576 872.5 579.5 c 128,-1,58
 879 583 879 583 890 583 c 0,59,60
 893 583 893 583 902 583.5 c 128,-1,61
 911 584 911 584 916.5 584 c 128,-1,62
 922 584 922 584 929.5 582.5 c 128,-1,63
 937 581 937 581 943.5 576 c 128,-1,64
 950 571 950 571 956 563 c 0,65,66
 959 558 959 558 960 552 c 0,0,1
203 684 m 128,-1,68
 225 560 225 560 305 454 c 128,-1,69
 385 348 385 348 501 286.5 c 128,-1,70
 617 225 617 225 741 225 c 128,-1,71
 865 225 865 225 960 286.5 c 128,-1,72
 1055 348 1055 348 1098 454 c 128,-1,73
 1141 560 1141 560 1119 684 c 128,-1,74
 1097 808 1097 808 1017 914 c 128,-1,75
 937 1020 937 1020 820 1081.5 c 128,-1,76
 703 1143 703 1143 579 1143 c 128,-1,77
 455 1143 455 1143 360.5 1081.5 c 128,-1,78
 266 1020 266 1020 223.5 914 c 128,-1,67
 181 808 181 808 203 684 c 128,-1,68
87 684 m 0,79,80
 45 920 45 920 183 1087.5 c 128,-1,81
 321 1255 321 1255 557 1255 c 0,82,83
 713 1255 713 1255 858.5 1178.5 c 128,-1,84
 1004 1102 1004 1102 1104 970.5 c 128,-1,85
 1204 839 1204 839 1231 684 c 128,-1,86
 1258 529 1258 529 1204.5 397.5 c 128,-1,87
 1151 266 1151 266 1032.5 189.5 c 128,-1,88
 914 113 914 113 759 113 c 0,89,90
 523 113 523 113 326 280 c 0,91,92
 228 363 228 363 168 464.5 c 128,-1,93
 108 566 108 566 87 684 c 0,79,80
EndSplineSet
EndChar

